<?xml version="1.0" encoding="UTF-8"?>
<!DOCTYPE svg PUBLIC "-//W3C//DTD SVG 1.1//EN" "http://www.w3.org/Graphics/SVG/1.1/DTD/svg11.dtd">
<svg xmlns="http://www.w3.org/2000/svg" version="1.1" width="1024px" height="1024px" style="shape-rendering:geometricPrecision; text-rendering:geometricPrecision; image-rendering:optimizeQuality; fill-rule:evenodd; clip-rule:evenodd" xmlns:xlink="http://www.w3.org/1999/xlink">
<g><path style="opacity:1" fill="#0a0a09" d="M -0.5,-0.5 C 340.833,-0.5 682.167,-0.5 1023.5,-0.5C 1023.5,340.833 1023.5,682.167 1023.5,1023.5C 682.167,1023.5 340.833,1023.5 -0.5,1023.5C -0.5,682.167 -0.5,340.833 -0.5,-0.5 Z"/></g>
<g><path style="opacity:1" fill="#00d3e6" d="M 713.5,218.5 C 637.335,219.499 561.002,219.833 484.5,219.5C 490.987,218.672 497.654,218.172 504.5,218C 574.173,217.226 643.839,217.392 713.5,218.5 Z"/></g>
<g><path style="opacity:1" fill="#00c1d5" d="M 713.5,218.5 C 785.811,226.722 837.311,263.722 868,329.5C 876.615,349.627 881.615,370.627 883,392.5C 884.501,462.827 884.834,533.16 884,603.5C 878.239,679.877 841.405,735.377 773.5,770C 759.587,775.894 745.253,780.394 730.5,783.5C 729.726,782.853 728.726,782.52 727.5,782.5C 718.536,783.93 709.536,785.096 700.5,786C 631.501,786.5 562.501,786.667 493.5,786.5C 432.402,783.171 383.568,757.171 347,708.5C 335.897,692.901 327.73,675.901 322.5,657.5C 328.206,657.171 333.872,657.505 339.5,658.5C 360.957,713.79 400.291,749.29 457.5,765C 466.765,767.053 476.098,768.72 485.5,770C 560.833,770.667 636.167,770.667 711.5,770C 777.389,760.325 824.555,725.492 853,665.5C 860.52,647.087 865.353,628.087 867.5,608.5C 868.665,538.335 868.832,468.001 868,397.5C 867.667,392.833 867.333,388.167 867,383.5C 866.841,381.657 866.341,380.991 865.5,381.5C 853.068,308.565 811.401,261.398 740.5,240C 733.513,238.574 726.513,237.24 719.5,236C 641.18,234.379 562.847,234.046 484.5,235C 440.568,237.886 403.735,255.386 374,287.5C 367.583,295.419 361.749,303.752 356.5,312.5C 350.167,313.833 343.833,313.833 337.5,312.5C 369.205,254.465 418.205,223.465 484.5,219.5C 561.002,219.833 637.335,219.499 713.5,218.5 Z"/></g>
<g><path style="opacity:1" fill="#f4f4f4" d="M 210.5,435.5 C 215.099,435.2 219.599,435.533 224,436.5C 236.975,471.095 250.142,505.595 263.5,540C 258.798,540.828 254.131,540.662 249.5,539.5C 246.333,531.167 243.167,522.833 240,514.5C 239.167,513.667 238.333,512.833 237.5,512C 223.788,511.185 210.121,511.352 196.5,512.5C 195.667,513.5 194.833,514.5 194,515.5C 191.562,523.709 188.562,531.709 185,539.5C 180.55,540.8 176.05,540.8 171.5,539.5C 185.076,505.021 198.076,470.354 210.5,435.5 Z"/></g>
<g><path style="opacity:1" fill="#f0f1f0" d="M 271.5,436.5 C 297.833,436.5 324.167,436.5 350.5,436.5C 350.5,440.167 350.5,443.833 350.5,447.5C 339.5,447.5 328.5,447.5 317.5,447.5C 317.5,478.5 317.5,509.5 317.5,540.5C 313.167,540.5 308.833,540.5 304.5,540.5C 304.667,510.498 304.5,480.498 304,450.5C 303.626,449.584 303.126,448.75 302.5,448C 292.172,447.5 281.839,447.334 271.5,447.5C 271.5,443.833 271.5,440.167 271.5,436.5 Z"/></g>
<g><path style="opacity:1" fill="#f5f5f5" d="M 379.5,436.5 C 400.833,436.5 422.167,436.5 443.5,436.5C 443.5,440.167 443.5,443.833 443.5,447.5C 426.83,447.333 410.163,447.5 393.5,448C 393,448.5 392.5,449 392,449.5C 391.333,459.833 391.333,470.167 392,480.5C 392.5,481 393,481.5 393.5,482C 408.83,482.5 424.163,482.667 439.5,482.5C 439.5,486.167 439.5,489.833 439.5,493.5C 423.5,493.5 407.5,493.5 391.5,493.5C 391.5,505.5 391.5,517.5 391.5,529.5C 409.167,529.5 426.833,529.5 444.5,529.5C 444.5,533.167 444.5,536.833 444.5,540.5C 422.833,540.5 401.167,540.5 379.5,540.5C 379.5,505.833 379.5,471.167 379.5,436.5 Z"/></g>
<g><path style="opacity:1" fill="#f5f5f5" d="M 479.5,436.5 C 483.833,436.5 488.167,436.5 492.5,436.5C 492.333,466.835 492.5,497.168 493,527.5C 493.5,528 494,528.5 494.5,529C 510.497,529.5 526.497,529.667 542.5,529.5C 542.5,533.167 542.5,536.833 542.5,540.5C 521.5,540.5 500.5,540.5 479.5,540.5C 479.5,505.833 479.5,471.167 479.5,436.5 Z"/></g>
<g><path style="opacity:1" fill="#f2f2f2" d="M 574.5,436.5 C 578.833,436.5 583.167,436.5 587.5,436.5C 587.5,471.167 587.5,505.833 587.5,540.5C 583.167,540.5 578.833,540.5 574.5,540.5C 574.5,505.833 574.5,471.167 574.5,436.5 Z"/></g>
<g><path style="opacity:1" fill="#f5f5f5" d="M 625.5,436.5 C 646.833,436.5 668.167,436.5 689.5,436.5C 689.5,440.167 689.5,443.833 689.5,447.5C 672.83,447.333 656.163,447.5 639.5,448C 639,448.5 638.5,449 638,449.5C 637.333,459.5 637.333,469.5 638,479.5C 638.374,480.416 638.874,481.25 639.5,482C 654.83,482.5 670.163,482.667 685.5,482.5C 685.5,486.167 685.5,489.833 685.5,493.5C 669.5,493.5 653.5,493.5 637.5,493.5C 637.5,505.5 637.5,517.5 637.5,529.5C 654.833,529.5 672.167,529.5 689.5,529.5C 689.5,533.167 689.5,536.833 689.5,540.5C 668.167,540.5 646.833,540.5 625.5,540.5C 625.5,505.833 625.5,471.167 625.5,436.5 Z"/></g>
<g><path style="opacity:1" fill="#f2f2f2" d="M 724.5,436.5 C 739.837,436.333 755.17,436.5 770.5,437C 792.973,441.424 801.806,454.924 797,477.5C 793.526,486.308 787.359,492.474 778.5,496C 785.961,510.422 793.294,524.922 800.5,539.5C 795.208,540.495 789.875,540.828 784.5,540.5C 778.793,526.748 772.793,513.082 766.5,499.5C 757.518,498.335 748.518,498.168 739.5,499C 739,499.5 738.5,500 738,500.5C 737.5,513.829 737.333,527.163 737.5,540.5C 733.167,540.5 728.833,540.5 724.5,540.5C 724.5,505.833 724.5,471.167 724.5,436.5 Z"/></g>
<g><path style="opacity:1" fill="#0b0b0a" d="M 737.5,446.5 C 745.84,446.334 754.173,446.5 762.5,447C 783.148,448.148 789.982,458.648 783,478.5C 778.682,483.576 773.182,486.409 766.5,487C 757.5,487.667 748.5,487.667 739.5,487C 739,486.5 738.5,486 738,485.5C 737.5,472.504 737.333,459.504 737.5,446.5 Z"/></g>
<g><path style="opacity:1" fill="#0a0a0a" d="M 216.5,451.5 C 217.497,451.47 218.164,451.97 218.5,453C 224.28,468.383 229.613,483.883 234.5,499.5C 222.814,499.832 211.148,499.499 199.5,498.5C 205.459,482.92 211.125,467.254 216.5,451.5 Z"/></g>
<g><path style="opacity:1" fill="#00effc" d="M 867.5,608.5 C 867.667,538.499 867.5,468.499 867,398.5C 866.469,392.829 865.969,387.162 865.5,381.5C 866.341,380.991 866.841,381.657 867,383.5C 867.333,388.167 867.667,392.833 868,397.5C 868.832,468.001 868.665,538.335 867.5,608.5 Z"/></g>
<g><path style="opacity:1" fill="#00f2fc" d="M 730.5,783.5 C 720.916,785.24 711.25,786.406 701.5,787C 631.999,787.832 562.665,787.665 493.5,786.5C 562.501,786.667 631.501,786.5 700.5,786C 709.536,785.096 718.536,783.93 727.5,782.5C 728.726,782.52 729.726,782.853 730.5,783.5 Z"/></g>
</svg>
