<?xml version="1.0" encoding="UTF-8"?>
<svg version="1.1" xmlns="http://www.w3.org/2000/svg" width="837" height="604">
<path d="M0 0 C276.21 0 552.42 0 837 0 C837 199.32 837 398.64 837 604 C560.79 604 284.58 604 0 604 C0 404.68 0 205.36 0 0 Z " fill="#000304" transform="translate(0,0)"/>
<path d="M0 0 C1.97941572 -0.0771917 3.9585724 -0.16117033 5.9375 -0.25 C11.90929684 -0.27236628 15.67897429 0.8137056 20 5 C24.87461183 11.09059815 27.45677733 16.22302846 27.33203125 24.08203125 C25.55655786 39.68530914 14.00218395 55.46263234 5.97521973 68.521698 C-17.5209725 106.76590238 -35.96751711 147.14069075 -52 189 C-28.69663377 185.34837486 -6.43745416 178.08275132 16 171 C16.8703186 170.72615479 17.74063721 170.45230957 18.6373291 170.17016602 C52.43654212 159.71679614 52.43654212 159.71679614 85 146 C83.39517111 154.66976527 79.70402549 160.30755586 73 166 C67.9000257 169.48275398 62.52394402 172.25327663 57 175 C55.89285645 175.55300781 54.78571289 176.10601562 53.64501953 176.67578125 C49.87626139 178.55185601 46.09662262 180.40514063 42.3125 182.25 C41.39664124 182.69768738 41.39664124 182.69768738 40.46228027 183.15441895 C32.11110306 187.22098655 23.72036292 190.80911306 15 194 C15.79792969 194.61230469 16.59585937 195.22460938 17.41796875 195.85546875 C21.13054455 198.93898481 21.76781236 201.37468654 22.4375 206.0625 C21.49062609 214.5843652 16.91401558 222.46189592 13 230 C15.43789852 229.39740777 17.87531771 228.79297725 20.3125 228.1875 C21.04146484 228.00735352 21.77042969 227.82720703 22.52148438 227.64160156 C26.71100613 226.59883513 30.85811557 225.47095042 35 224.25 C39.50233711 222.99859512 43.33899011 222.65474001 48 223 C49 224 49 224 49.375 226.25 C48.95115584 229.35819051 48.03855613 230.68962789 45.70703125 232.7578125 C38.33483571 238.12247653 29.20809454 241.01241837 20.7578125 244.25390625 C20.01023682 244.5482959 19.26266113 244.84268555 18.49243164 245.14599609 C16 246 16 246 12.97436523 246.63916016 C8.23155155 247.76188884 5.01334849 248.6125924 2.06542969 252.64868164 C0.41191902 256.11630137 -0.93162987 259.62638457 -2.1875 263.25 C-2.68055013 264.56572251 -3.17768247 265.87992187 -3.67871094 267.19262695 C-4.68561942 269.85191215 -5.66616963 272.51863809 -6.62451172 275.19580078 C-7.84661741 278.60195449 -9.14415152 281.9735433 -10.47265625 285.33984375 C-16.08157055 299.652205 -20.71346881 314.24238402 -25 329 C-25.43590454 330.46336792 -25.43590454 330.46336792 -25.88061523 331.95629883 C-27.35919897 337.08045417 -28.39748647 341.6822024 -28.3125 347.0625 C-28.30863281 348.14660156 -28.30476563 349.23070312 -28.30078125 350.34765625 C-28.26146741 353.15381712 -28.26146741 353.15381712 -26 355 C-12.12994053 355.25685295 0.15947917 342.5589869 10 334 C12.39536396 331.60463604 12.25610909 331.0412077 12.30859375 327.7734375 C12.33147461 326.91443848 12.35435547 326.05543945 12.37792969 325.17041016 C12.40741699 323.78668213 12.40741699 323.78668213 12.4375 322.375 C13.34897937 296.86659866 20.77751314 275.00408008 37 255 C37.721875 254.10023438 38.44375 253.20046875 39.1875 252.2734375 C48.45345195 241.31975859 58.32943876 236.47495245 72.47265625 234.6875 C78.43393414 234.35106104 83.96323531 235.77305584 89 239 C94.51812835 245.18834637 96.48596316 251.07685244 96.40625 259.27734375 C95.14317461 270.85148653 90.6112485 282.19081988 83 291 C82.17371094 291.97324219 81.34742188 292.94648438 80.49609375 293.94921875 C68.29494308 307.96342728 52.79213371 319.05010095 36 327 C36.37658588 333.025374 38.22830169 337.25812496 42 342 C46.10988332 344.73992221 49.17504215 344.59096383 54 344 C73.06824683 338.87214618 88.48476331 322.46336316 101 308 C102.16601165 305.6679767 102.3111542 303.8876822 102.578125 301.29296875 C107.96761601 252.0831481 126.21775979 204.18117528 150 161 C150.63566895 159.84491943 150.63566895 159.84491943 151.28417969 158.66650391 C159.48017022 143.97590707 169.44756403 130.21848099 181 118 C182.10948291 116.71289686 183.21379412 115.42131485 184.3125 114.125 C204.0451556 91.59955555 204.0451556 91.59955555 214.625 90.6875 C219.41628383 90.76590283 223.12858999 92.19301314 227 95 C232.35254121 101.72498768 232.75913126 107.66763066 232 116 C227.19834877 139.37130243 215.22879865 161.21182928 204 182 C203.04923299 183.78372297 202.09870089 185.56757118 201.1484375 187.3515625 C191.75912537 204.84340356 180.85572578 221.2945501 169.875 237.8125 C169.41177338 238.51015472 168.94854675 239.20780945 168.47128296 239.92660522 C160.13487866 252.46746974 151.57523446 264.82246397 142.375 276.75 C141.8286792 277.46389893 141.2823584 278.17779785 140.71948242 278.91333008 C137.08661876 283.64501294 133.36234237 288.28650691 129.48828125 292.82421875 C123.37924808 301.75527249 124.88376486 316.41562563 126.6171875 326.640625 C128.63615422 333.03699744 132.1907465 337.5909134 138 341 C142.4832264 342.77737378 146.02098762 342.25587037 150.4375 340.5 C180.39255729 325.29361268 202.75135602 287.85579514 216.58203125 258.5 C216.89119476 257.84639999 217.20035828 257.19279999 217.51889038 256.51939392 C219.05808441 253.25707465 220.57410774 249.98685257 222.0546875 246.69750977 C222.61547771 245.48695298 223.17665825 244.2765769 223.73828125 243.06640625 C224.22337158 241.99334229 224.70846191 240.92027832 225.20825195 239.81469727 C227.3664218 236.42437976 229.49184388 234.91537096 233 233 C238.03645826 232.38148758 240.93090016 232.97724012 245 236 C247.52416204 238.52416204 247.32525352 239.49784796 247.375 243 C247.40335938 243.886875 247.43171875 244.77375 247.4609375 245.6875 C246.11355809 255.3703622 240.44916369 264.12114003 235.94537354 272.66012573 C230.53149844 282.94608006 225.18796495 293.23933868 220.625 303.9375 C220.11803589 305.12146362 220.11803589 305.12146362 219.60083008 306.3293457 C213.97749902 319.76458632 213.97749902 319.76458632 214.875 333.9375 C215.82823451 336.15206079 215.82823451 336.15206079 218 337 C227.53497378 338.00368145 233.21736364 333.5566167 240.4375 327.75 C241.35660156 326.95851563 242.27570312 326.16703125 243.22265625 325.3515625 C246 323 246 323 248.74609375 321.0859375 C256.55586614 315.26052035 257.79434158 308.97940027 259.80078125 299.92578125 C261.48495351 292.5081951 264.65042836 285.79469081 268 279 C268.58007812 277.82308594 269.16015625 276.64617187 269.7578125 275.43359375 C280.20932883 255.21014398 300.77424927 234.50305277 322.4375 226.125 C330.28710839 223.6461763 337.0317671 223.04003343 344.8828125 225.87890625 C349.44842114 228.29648869 352.38732484 232.16197453 354 237 C355.38562297 251.52239462 348.36038595 266.43889475 339.24609375 277.515625 C336.63458218 280.49265703 333.85275579 283.25449067 331 286 C330.37996094 286.639375 329.75992188 287.27875 329.12109375 287.9375 C320.91596815 295.86728581 309.93321459 301.33004578 299.59375 305.875 C297.95696289 306.59478027 297.95696289 306.59478027 296.28710938 307.32910156 C294.12107789 308.2653986 291.94527621 309.17945504 289.75976562 310.06933594 C288.76654297 310.49504883 287.77332031 310.92076172 286.75 311.359375 C285.85796875 311.72514648 284.9659375 312.09091797 284.046875 312.46777344 C281.69159374 313.89898012 281.69159374 313.89898012 281.21362305 317.01635742 C280.29084202 325.8513804 280.29084202 325.8513804 283 334 C288.33163777 338.06888145 294.60901335 337.69864202 301 337 C317.91429143 333.03681874 331.5925562 320.80571465 343.5 308.8125 C344.32806152 307.97879883 345.15612305 307.14509766 346.00927734 306.28613281 C355.44170759 296.66635243 362.94464568 286.52740956 369.71484375 274.89453125 C372.079377 270.83385864 374.56184139 266.85284293 377.0625 262.875 C377.47532227 262.21234131 377.88814453 261.54968262 378.31347656 260.86694336 C380.33088485 257.63184526 382.3742825 254.42029453 384.48046875 251.2421875 C384.86388428 250.65195801 385.2472998 250.06172852 385.64233398 249.45361328 C386.68320583 247.85273081 387.73953125 246.26192628 388.796875 244.671875 C390.29861043 242.11440351 390.29861043 242.11440351 389.3359375 239.76953125 C387.96778522 237.86346655 387.96778522 237.86346655 385.875 235.9375 C382.9908485 231.41899598 383.29508479 227.21343538 384 222 C386.20462929 214.20112389 392.21720165 208.389671 398.90625 204.1640625 C404.74631056 201.02281781 409.36449563 198.83587643 416 200 C419 201.625 419 201.625 421 204 C421.82074339 209.6385071 419.69841433 212.89472369 416.75 217.4375 C415.95243126 218.70659553 415.15555269 219.97612507 414.359375 221.24609375 C413.96814453 221.86210449 413.57691406 222.47811523 413.17382812 223.11279297 C411.3613267 226.02681876 409.68249331 229.00932956 408 232 C408.71929688 232.27021973 409.43859375 232.54043945 410.1796875 232.81884766 C415.04729989 234.85741316 419.47037111 237.68330953 424 240.375 C424.98484375 240.9525 425.9696875 241.53 426.984375 242.125 C427.93828125 242.68960938 428.8921875 243.25421875 429.875 243.8359375 C430.73867188 244.34688965 431.60234375 244.8578418 432.4921875 245.38427734 C439.42567859 249.85135717 439.42567859 249.85135717 441 253 C441.23828125 255.25 441.23828125 255.25 441.3125 258 C441.34988281 258.886875 441.38726563 259.77375 441.42578125 260.6875 C440.24172305 269.89925552 434.97380492 277.76784276 430.25 285.5625 C425.97815346 292.75251703 421.8169965 299.93090235 418.25 307.5 C417.9396582 308.1504126 417.62931641 308.8008252 417.30957031 309.47094727 C413.85243823 317.03071358 412.06931482 324.68110632 413 333 C414.25425523 336.01021255 415.06372537 337.4246021 417.82421875 339.12109375 C422.72256524 341.0997795 427.79347046 339.93157025 432.53515625 337.9296875 C448.12909547 328.94494424 459.64144467 313.3231195 470 299 C470.8598169 297.82749373 471.72043823 296.65557675 472.58203125 295.484375 C474.40154418 292.99887572 476.2086018 290.50579264 478 288 C479.65 288.33 481.3 288.66 483 289 C480.3683304 310.2081609 455.19454125 335.30827804 439 348 C427.96182785 355.59458277 418.75896698 360.74664731 405 359 C399.78681099 357.36695284 396.0906195 355.25421242 392.5 351.125 C385.68904863 336.93551798 388.86541088 321.98423981 393.76513672 307.78222656 C398.41712693 294.60021049 404.02195918 281.80780394 409.69506836 269.04077148 C409.97217651 268.41250961 410.24928467 267.78424774 410.53479004 267.13694763 C411.29281715 265.41907373 412.05626506 263.70359474 412.82006836 261.98828125 C413.88187486 259.29916237 414.54871429 256.84702849 415 254 C413.27430361 252.86968397 411.54428261 251.74596893 409.8125 250.625 C408.84957031 249.99851562 407.88664063 249.37203125 406.89453125 248.7265625 C404.30196064 247.18011688 401.83146884 246.02491925 399 245 C398.64035156 246.01707031 398.64035156 246.01707031 398.2734375 247.0546875 C396.72371375 250.63901789 394.72112341 253.84455463 392.625 257.125 C391.71874676 258.55598753 390.8124969 259.9869772 389.90625 261.41796875 C389.43058594 262.1661084 388.95492187 262.91424805 388.46484375 263.68505859 C386.99516362 266.00764309 385.54246351 268.34007057 384.09375 270.67578125 C375.42998215 284.60199648 366.32437841 298.23792113 356 311 C355.34 311.83273437 354.68 312.66546875 354 313.5234375 C351.70527321 316.38365054 349.36681988 319.19913949 347 322 C346.3488623 322.7741626 346.3488623 322.7741626 345.68457031 323.56396484 C330.61000046 341.28764486 310.70797569 355.84746042 287.03125 358.30859375 C279.30113607 358.65899727 274.2680604 356.72338366 268.375 351.8125 C262.3169304 344.63847021 258.96728688 338.23244282 257 329 C254.91740303 328.77704351 254.91740303 328.77704351 253.52636719 330.32592773 C252.95563477 330.93895752 252.38490234 331.5519873 251.796875 332.18359375 C251.15306885 332.8600293 250.5092627 333.53646484 249.84594727 334.23339844 C249.15428467 334.96075195 248.46262207 335.68810547 247.75 336.4375 C240.75697628 343.60991307 233.77096266 349.19685378 225 354 C223.73542969 354.70576172 223.73542969 354.70576172 222.4453125 355.42578125 C216.64426355 358.34637856 211.15784509 359.28695205 204.8671875 357.33984375 C198.76597374 354.66041337 194.37754194 350.36888659 191.8515625 344.19140625 C189.40814394 335.0341908 190.91883058 325.10511623 193 316 C192.52691406 316.60585938 192.05382812 317.21171875 191.56640625 317.8359375 C186.60872833 324.11759568 181.45877736 330.14870186 176 336 C175.22914063 336.83660156 174.45828125 337.67320312 173.6640625 338.53515625 C163.72604933 348.93951631 150.34807859 360.06574598 135.375 360.5 C126.00986854 360.05720419 119.82443775 357.84487133 113.00390625 351.2734375 C105.76746125 343.06366949 104.16002471 332.40190673 102 322 C101.43454468 322.61875 101.43454468 322.61875 100.85766602 323.25 C91.34867498 333.62607669 81.95058397 343.01226783 70.5 351.25 C69.79963623 351.75813232 69.09927246 352.26626465 68.37768555 352.78979492 C58.06385339 360.05043488 48.63937892 362.92042291 36 362 C33.10723898 361.3453985 30.6302013 360.35656779 28 359 C26.96875 358.484375 25.9375 357.96875 24.875 357.4375 C20.81262466 353.99331222 18.26172251 349.80415526 16 345 C16 344.01 16 343.02 16 342 C15.34 342 14.68 342 14 342 C14 342.66 14 343.32 14 344 C12.6015625 345.41015625 12.6015625 345.41015625 10.625 347.0625 C7.38595496 349.80542371 4.2398488 352.61679344 1.125 355.5 C-9.53014067 365.0814929 -21.72703105 374.41078194 -36.53125 374.21484375 C-41.22126703 373.80669353 -44.0068072 372.04994667 -47.1875 368.6875 C-53.9702016 358.63039073 -53.44438197 347.65794278 -51.49316406 335.96191406 C-47.70454348 317.77999521 -41.24433723 300.10607716 -35.23806763 282.56053162 C-32.44199866 274.39039359 -29.72096532 266.19539587 -27 258 C-27.90935303 258.32379639 -28.81870605 258.64759277 -29.75561523 258.98120117 C-33.57224919 260.17969718 -37.10459065 260.33097763 -41.0625 260.3125 C-41.75666016 260.32861328 -42.45082031 260.34472656 -43.16601562 260.36132812 C-47.60995304 260.36554839 -50.5082305 259.80138161 -54 257 C-54.8125 254.3125 -54.8125 254.3125 -55 252 C-48.02464609 248.69524122 -40.89052155 246.15555115 -33.5625 243.75 C-32.47517578 243.38648438 -31.38785156 243.02296875 -30.26757812 242.6484375 C-22.2675047 240 -22.2675047 240 -20 240 C-19.83927002 239.47212891 -19.67854004 238.94425781 -19.51293945 238.40039062 C-17.54064066 232.18531673 -15.00491707 226.37425047 -12.1875 220.5 C-11.77435547 219.61441406 -11.36121094 218.72882813 -10.93554688 217.81640625 C-8.09188946 211.84866912 -4.81360729 206.39787319 -1 201 C-1.74757568 201.29656494 -2.49515137 201.59312988 -3.26538086 201.89868164 C-18.59865548 207.94423906 -33.80217573 213.38099066 -49.76953125 217.5625 C-51.10987427 217.93411255 -51.10987427 217.93411255 -52.47729492 218.31323242 C-54.08823396 218.75178575 -55.71117849 219.14963995 -57.3449707 219.4934082 C-59.58732703 220.07974419 -61.13262893 220.62189769 -63 222 C-64.86353658 225.22186686 -65.68169423 228.59030934 -66.5625 232.1875 C-66.84295166 233.21343262 -67.12340332 234.23936523 -67.41235352 235.29638672 C-68.00232695 237.45485816 -68.57983633 239.61677098 -69.14550781 241.78173828 C-70.20863019 245.78576089 -71.38507125 249.750266 -72.57202148 253.71899414 C-73.76893536 257.73785617 -74.92257217 261.76874926 -76.07763672 265.79980469 C-76.70285587 267.96904043 -77.33491216 270.1363151 -77.97314453 272.30175781 C-82.32297041 287.07034103 -85.96088433 301.82834181 -88.875 316.9375 C-89.0203418 317.68954712 -89.16568359 318.44159424 -89.31542969 319.21643066 C-90.25865605 324.13626267 -91.14511809 329.06412529 -92 334 C-92.20681396 335.15846436 -92.41362793 336.31692871 -92.62670898 337.51049805 C-94.0920254 346.51023825 -94.34002881 355.37229647 -94.31567383 364.4675293 C-94.312508 366.93127543 -94.33609687 369.39382239 -94.36132812 371.85742188 C-94.4619006 396.63342682 -87.72535503 422.36681271 -70.41699219 440.79858398 C-62.04255141 449.23724593 -52.22572477 455.09473422 -41 459 C-40.18917969 459.31839844 -39.37835938 459.63679688 -38.54296875 459.96484375 C-23.8096878 464.99968149 -7.49828072 462.37985548 7 458 C9.66086849 457.30718111 12.32879008 456.6523747 15 456 C10.66811797 461.10118032 5.58537719 463.43620641 -0.4375 466.1875 C-1.36626953 466.62513672 -2.29503906 467.06277344 -3.25195312 467.51367188 C-22.91618039 476.68098067 -46.740508 476.68247898 -67.125 469.3125 C-91.36843982 459.98721802 -109.2139669 440.07226027 -119.98266602 416.88696289 C-138.75284447 374.56547435 -133.07592241 327.77595969 -123 284 C-122.81228027 283.18033752 -122.62456055 282.36067505 -122.43115234 281.51617432 C-120.95330381 275.06853655 -119.45145641 268.62674717 -117.9375 262.1875 C-117.73003143 261.30012146 -117.52256287 260.41274292 -117.30880737 259.49847412 C-114.65041276 248.17110445 -111.64443673 237.05127817 -108 226 C-109.14210937 226.36351562 -110.28421875 226.72703125 -111.4609375 227.1015625 C-120.92028323 230.05531052 -130.39169393 232.64558175 -140.0625 234.8125 C-150.1298284 237.08075136 -160.16499844 239.45487708 -170.1713562 241.97787476 C-171.7042416 242.36271829 -173.23818232 242.74338633 -174.77322388 243.11953735 C-186.90795852 246.09845837 -197.32176608 249.03571033 -205.6875 258.8125 C-206.244375 259.43850098 -206.80125 260.06450195 -207.375 260.70947266 C-208.92965455 262.4620999 -210.46520919 264.23000048 -212 266 C-212.63550781 266.70253906 -213.27101562 267.40507812 -213.92578125 268.12890625 C-223.80103627 279.08235288 -232.75858115 290.89704255 -241.671875 302.6328125 C-245.72365057 307.9637158 -249.84084966 313.24317248 -253.96044922 318.52172852 C-256.63466835 321.95049441 -259.30065149 325.38407724 -261.9296875 328.84765625 C-262.37803955 329.43708008 -262.8263916 330.02650391 -263.28833008 330.63378906 C-264.46737137 332.18716862 -265.64208092 333.74383346 -266.81640625 335.30078125 C-269.05164235 338.06383696 -271.44398793 340.53383019 -274 343 C-273.56632035 338.55478358 -272.29689646 335.64088486 -269.9765625 331.8515625 C-268.63686832 329.31150233 -268.10476518 326.76675543 -267.49609375 323.9765625 C-266.70637906 320.83014018 -265.31454003 317.95771506 -264 315 C-263.649375 313.9275 -263.29875 312.855 -262.9375 311.75 C-262 309 -262 309 -260 306 C-259.2169824 303.73703813 -258.54932519 301.45482922 -257.87890625 299.15625 C-257 297 -257 297 -255.40234375 295.40625 C-253.64693868 293.97695149 -253.64693868 293.97695149 -254 291 C-253.34 291 -252.68 291 -252 291 C-251.34 290.01 -250.68 289.02 -250 288 C-250.99 288.33 -251.98 288.66 -253 289 C-252.52412884 282.97229862 -249.80277043 278.23321711 -247 273 C-278.25461312 284.13178002 -307.18503228 303.16311128 -333.8515625 322.625 C-336.15305415 324.09795466 -338.4379443 325.06507441 -341 326 C-335.65356916 318.11663531 -329.30526277 311.74377926 -321 307 C-323.3189679 308.1165401 -325.45488056 309.29242321 -327.625 310.6875 C-328.40875 311.120625 -329.1925 311.55375 -330 312 C-330.66 311.67 -331.32 311.34 -332 311 C-331.02417969 310.18015625 -330.04835938 309.3603125 -329.04296875 308.515625 C-327.757625 307.42730474 -326.47247911 306.33875077 -325.1875 305.25 C-324.54490234 304.71117187 -323.90230469 304.17234375 -323.24023438 303.6171875 C-320.10669271 300.95448889 -317.26969571 298.47626257 -315 295 C-324.35038459 300.7073776 -333.45693814 306.60427227 -342.3046875 313.06640625 C-345 315 -345 315 -347 316 C-345.45233046 311.96500441 -342.84719134 310.00871108 -339.5 307.375 C-335.62232458 304.33050718 -335.62232458 304.33050718 -332 301 C-332.58007812 301.45890625 -333.16015625 301.9178125 -333.7578125 302.390625 C-338.07119974 305.77869815 -342.38193513 309.03970201 -347 312 C-345.70700306 309.11562221 -344.34058637 307.12780579 -342 305 C-342.33 304.34 -342.66 303.68 -343 303 C-341.17696529 299.35393058 -338.85580005 296.85580005 -336 294 C-336 293.34 -336 292.68 -336 292 C-334.515 290.7934375 -334.515 290.7934375 -333 289.5625 C-332.01 288.716875 -331.02 287.87125 -330 287 C-330 286.01 -330 285.02 -330 284 C-330.74765625 284.61488281 -331.4953125 285.22976563 -332.265625 285.86328125 C-333.25046875 286.67152344 -334.2353125 287.47976563 -335.25 288.3125 C-336.22453125 289.11300781 -337.1990625 289.91351563 -338.203125 290.73828125 C-340.4366262 292.54442258 -342.68687263 294.29819915 -345 296 C-341.39497829 287.60067107 -332.11170586 282.54910541 -324.69921875 277.859375 C-322.13484084 276.09288602 -320.1598188 274.22717282 -318 272 C-315.72241503 270.24088966 -313.36788069 268.63930202 -311 267 C-319.25515686 272.37170668 -327.18373952 278.01307708 -335 284 C-335 281 -335 281 -333.2421875 278.9140625 C-320.92150171 267 -320.92150171 267 -318 267 C-317.96519531 266.42636719 -317.93039062 265.85273438 -317.89453125 265.26171875 C-316.53456153 261.82319268 -313.76556642 260.57589355 -310.6875 258.8125 C-310.02524414 258.42449219 -309.36298828 258.03648437 -308.68066406 257.63671875 C-301.70282233 253.65488546 -294.40885331 250.43410396 -287.046875 247.23828125 C-283.89934904 245.8661455 -280.81646685 244.43058469 -277.765625 242.85546875 C-264.82150552 236.22979407 -251.22960891 231.86797289 -237.4234314 227.42318726 C-234.56575034 226.49951715 -231.71310859 225.56121989 -228.862854 224.61489868 C-227.20305188 224.06702422 -225.53812434 223.53473325 -223.87255859 223.00463867 C-217.80839536 220.88976877 -214.98991319 218.43220397 -211.75 212.9375 C-210.82512674 211.48993751 -209.89657506 210.04472031 -208.96484375 208.6015625 C-208.48515137 207.84649414 -208.00545898 207.09142578 -207.51123047 206.31347656 C-204.93300435 202.36658307 -202.12450592 198.59472095 -199.3125 194.8125 C-198.73250244 194.02858887 -198.15250488 193.24467773 -197.55493164 192.43701172 C-191.65289029 184.48477071 -185.64137267 176.61586654 -179.625 168.75 C-176.7876561 165.03873087 -173.97768152 161.30931519 -171.1875 157.5625 C-159.74660831 142.27193209 -147.72858445 127.38016022 -135.23632812 112.9375 C-132.27574249 109.51027902 -129.39531573 106.03456972 -126.5625 102.5 C-121.96314584 96.82830098 -116.9935621 91.53651437 -112 86.21484375 C-109.18605675 83.21289998 -106.46848097 80.13958802 -103.77734375 77.02734375 C-99.60784419 72.27136513 -95.29450259 67.64295427 -91 63 C-90.42733398 62.3807666 -89.85466797 61.7615332 -89.26464844 61.12353516 C-83.1834626 54.55671049 -77.09838145 48.02166464 -70.71484375 41.74609375 C-68.93506907 39.93388581 -67.2781635 38.05305443 -65.625 36.125 C-59.62102637 29.16367295 -53.05381819 22.71613093 -46.0390625 16.77734375 C-44.5763737 15.5023947 -43.15877348 14.17500768 -41.7734375 12.81640625 C-28.93195874 0.41413116 -17.41580493 -2.53320799 0 0 Z " fill="#0486C0" transform="translate(351,124)"/>
<path d="M0 0 C4.80333 2.167795 7.31021312 4.56804442 9.8359375 9.31640625 C15.95628263 27.67744163 2.07822153 52.45828419 -5.71435547 68.50976562 C-9.39360638 75.8525681 -13.26109165 83.0907335 -17.1640625 90.31640625 C-18.11482951 92.10012922 -19.06536161 93.88397743 -20.015625 95.66796875 C-29.40493713 113.15980981 -40.30833672 129.61095635 -51.2890625 146.12890625 C-51.75228912 146.82656097 -52.21551575 147.5242157 -52.69277954 148.24301147 C-61.02918384 160.78387599 -69.58882804 173.13887022 -78.7890625 185.06640625 C-79.3353833 185.78030518 -79.8817041 186.4942041 -80.44458008 187.22973633 C-84.07744374 191.96141919 -87.80172013 196.60291316 -91.67578125 201.140625 C-97.78481442 210.07167874 -96.28029764 224.73203188 -94.546875 234.95703125 C-92.52790828 241.35340369 -88.973316 245.90731965 -83.1640625 249.31640625 C-78.6808361 251.09378003 -75.14307488 250.57227662 -70.7265625 248.81640625 C-40.77150521 233.61001893 -18.41270648 196.17220139 -4.58203125 166.81640625 C-4.27286774 166.16280624 -3.96370422 165.50920624 -3.64517212 164.83580017 C-2.10597809 161.5734809 -0.58995476 158.30325882 0.890625 155.01391602 C1.45141521 153.80335923 2.01259575 152.59298315 2.57421875 151.3828125 C3.05930908 150.30974854 3.54439941 149.23668457 4.04418945 148.13110352 C6.2023593 144.74078601 8.32778138 143.23177721 11.8359375 141.31640625 C16.87239576 140.69789383 19.76683766 141.29364637 23.8359375 144.31640625 C26.36009954 146.84056829 26.16119102 147.81425421 26.2109375 151.31640625 C26.23929688 152.20328125 26.26765625 153.09015625 26.296875 154.00390625 C24.94949559 163.68676845 19.28510119 172.43754628 14.78131104 180.97653198 C9.36743594 191.26248631 4.02390245 201.55574493 -0.5390625 212.25390625 C-0.87703857 213.04321533 -1.21501465 213.83252441 -1.56323242 214.64575195 C-7.18656348 228.08099257 -7.18656348 228.08099257 -6.2890625 242.25390625 C-5.33582799 244.46846704 -5.33582799 244.46846704 -3.1640625 245.31640625 C6.37091128 246.3200877 12.05330114 241.87302295 19.2734375 236.06640625 C20.19253906 235.27492188 21.11164063 234.4834375 22.05859375 233.66796875 C24.8359375 231.31640625 24.8359375 231.31640625 27.58203125 229.40234375 C35.39180364 223.5769266 36.63027908 217.29580652 38.63671875 208.2421875 C40.32089101 200.82460135 43.48636586 194.11109706 46.8359375 187.31640625 C47.41601562 186.13949219 47.99609375 184.96257812 48.59375 183.75 C59.04526633 163.52655023 79.61018677 142.81945902 101.2734375 134.44140625 C109.12304589 131.96258255 115.8677046 131.35643968 123.71875 134.1953125 C128.28435864 136.61289494 131.22326234 140.47838078 132.8359375 145.31640625 C134.22156047 159.83880087 127.19632345 174.755301 118.08203125 185.83203125 C115.47051968 188.80906328 112.68869329 191.57089692 109.8359375 194.31640625 C109.21589844 194.95578125 108.59585937 195.59515625 107.95703125 196.25390625 C99.75190565 204.18369206 88.76915209 209.64645203 78.4296875 214.19140625 C76.79290039 214.91118652 76.79290039 214.91118652 75.12304688 215.64550781 C72.95701539 216.58180485 70.78121371 217.49586129 68.59570312 218.38574219 C67.10586914 219.02431152 67.10586914 219.02431152 65.5859375 219.67578125 C64.69390625 220.04155273 63.801875 220.40732422 62.8828125 220.78417969 C60.52753124 222.21538637 60.52753124 222.21538637 60.04956055 225.33276367 C59.12677952 234.16778665 59.12677952 234.16778665 61.8359375 242.31640625 C67.16757527 246.3852877 73.44495085 246.01504827 79.8359375 245.31640625 C96.75022893 241.35322499 110.4284937 229.1221209 122.3359375 217.12890625 C123.16399902 216.29520508 123.99206055 215.46150391 124.84521484 214.60253906 C134.27764509 204.98275868 141.78058318 194.84381581 148.55078125 183.2109375 C150.9153145 179.15026489 153.39777889 175.16924918 155.8984375 171.19140625 C156.31125977 170.52874756 156.72408203 169.86608887 157.14941406 169.18334961 C159.16682235 165.94825151 161.21022 162.73670078 163.31640625 159.55859375 C163.89152954 158.67324951 163.89152954 158.67324951 164.47827148 157.77001953 C165.51914333 156.16913706 166.57546875 154.57833253 167.6328125 152.98828125 C169.13454793 150.43080976 169.13454793 150.43080976 168.171875 148.0859375 C166.80372272 146.1798728 166.80372272 146.1798728 164.7109375 144.25390625 C161.826786 139.73540223 162.13102229 135.52984163 162.8359375 130.31640625 C165.04056679 122.51753014 171.05313915 116.70607725 177.7421875 112.48046875 C183.58224806 109.33922406 188.20043313 107.15228268 194.8359375 108.31640625 C197.8359375 109.94140625 197.8359375 109.94140625 199.8359375 112.31640625 C200.65668089 117.95491335 198.53435183 121.21112994 195.5859375 125.75390625 C194.78836876 127.02300178 193.99149019 128.29253132 193.1953125 129.5625 C192.80408203 130.17851074 192.41285156 130.79452148 192.00976562 131.42919922 C190.1972642 134.34322501 188.51843081 137.32573581 186.8359375 140.31640625 C187.55523438 140.58662598 188.27453125 140.8568457 189.015625 141.13525391 C193.88323739 143.17381941 198.30630861 145.99971578 202.8359375 148.69140625 C204.31320312 149.55765625 204.31320312 149.55765625 205.8203125 150.44140625 C207.25117187 151.28832031 207.25117187 151.28832031 208.7109375 152.15234375 C209.57460938 152.6632959 210.43828125 153.17424805 211.328125 153.70068359 C218.26161609 158.16776342 218.26161609 158.16776342 219.8359375 161.31640625 C220.07421875 163.56640625 220.07421875 163.56640625 220.1484375 166.31640625 C220.18582031 167.20328125 220.22320313 168.09015625 220.26171875 169.00390625 C219.07766055 178.21566177 213.80974242 186.08424901 209.0859375 193.87890625 C204.81409096 201.06892328 200.652934 208.2473086 197.0859375 215.81640625 C196.7755957 216.46681885 196.46525391 217.11723145 196.14550781 217.78735352 C192.68837573 225.34711983 190.90525232 232.99751257 191.8359375 241.31640625 C193.09019273 244.3266188 193.89966287 245.74100835 196.66015625 247.4375 C201.55850274 249.41618575 206.62940796 248.2479765 211.37109375 246.24609375 C226.96503297 237.26135049 238.47738217 221.63952575 248.8359375 207.31640625 C249.6957544 206.14389998 250.55637573 204.971983 251.41796875 203.80078125 C253.23748168 201.31528197 255.0445393 198.82219889 256.8359375 196.31640625 C258.4859375 196.64640625 260.1359375 196.97640625 261.8359375 197.31640625 C259.2042679 218.52456715 234.03047875 243.62468429 217.8359375 256.31640625 C206.79776535 263.91098902 197.59490448 269.06305356 183.8359375 267.31640625 C178.62274849 265.68335909 174.926557 263.57061867 171.3359375 259.44140625 C164.52498613 245.25192423 167.70134838 230.30064606 172.60107422 216.09863281 C177.25306443 202.91661674 182.85789668 190.12421019 188.53100586 177.35717773 C188.80811401 176.72891586 189.08522217 176.10065399 189.37072754 175.45335388 C190.12875465 173.73547998 190.89220256 172.02000099 191.65600586 170.3046875 C192.71781236 167.61556862 193.38465179 165.16343474 193.8359375 162.31640625 C192.11024111 161.18609022 190.38022011 160.06237518 188.6484375 158.94140625 C187.68550781 158.31492187 186.72257812 157.6884375 185.73046875 157.04296875 C183.13789814 155.49652313 180.66740634 154.3413255 177.8359375 153.31640625 C177.59617187 153.99445313 177.35640625 154.6725 177.109375 155.37109375 C175.55965125 158.95542414 173.55706091 162.16096088 171.4609375 165.44140625 C170.55468426 166.87239378 169.6484344 168.30338345 168.7421875 169.734375 C168.26652344 170.48251465 167.79085938 171.2306543 167.30078125 172.00146484 C165.83110112 174.32404934 164.37840101 176.65647682 162.9296875 178.9921875 C154.26591965 192.91840273 145.16031591 206.55432738 134.8359375 219.31640625 C134.1759375 220.14914062 133.5159375 220.981875 132.8359375 221.83984375 C130.54121071 224.70005679 128.20275738 227.51554574 125.8359375 230.31640625 C125.1847998 231.09056885 125.1847998 231.09056885 124.52050781 231.88037109 C109.44593796 249.60405111 89.54391319 264.16386667 65.8671875 266.625 C58.13707357 266.97540352 53.1039979 265.03978991 47.2109375 260.12890625 C41.1528679 252.95487646 37.80322438 246.54884907 35.8359375 237.31640625 C33.75334053 237.09344976 33.75334053 237.09344976 32.36230469 238.64233398 C31.79157227 239.25536377 31.22083984 239.86839355 30.6328125 240.5 C29.98900635 241.17643555 29.3452002 241.85287109 28.68188477 242.54980469 C27.64439087 243.64083496 27.64439087 243.64083496 26.5859375 244.75390625 C19.59291378 251.92631932 12.60690016 257.51326003 3.8359375 262.31640625 C2.99289062 262.78691406 2.14984375 263.25742187 1.28125 263.7421875 C-4.51979895 266.66278481 -10.00621741 267.6033583 -16.296875 265.65625 C-22.39808876 262.97681962 -26.78652056 258.68529284 -29.3125 252.5078125 C-31.75591856 243.35059705 -30.24523192 233.42152248 -28.1640625 224.31640625 C-28.87369141 225.22519531 -28.87369141 225.22519531 -29.59765625 226.15234375 C-34.55533417 232.43400193 -39.70528514 238.46510811 -45.1640625 244.31640625 C-45.93492187 245.15300781 -46.70578125 245.98960937 -47.5 246.8515625 C-57.43801317 257.25592256 -70.81598391 268.38215223 -85.7890625 268.81640625 C-95.15419396 268.37361044 -101.33962475 266.16127758 -108.16015625 259.58984375 C-115.39660125 251.38007574 -117.00403779 240.71831298 -119.1640625 230.31640625 C-119.54103271 230.72890625 -119.91800293 231.14140625 -120.30639648 231.56640625 C-129.81538752 241.94248294 -139.21347853 251.32867408 -150.6640625 259.56640625 C-151.36442627 260.07453857 -152.06479004 260.5826709 -152.78637695 261.10620117 C-163.10020911 268.36684113 -172.52468358 271.23682916 -185.1640625 270.31640625 C-188.05682352 269.66180475 -190.5338612 268.67297404 -193.1640625 267.31640625 C-194.1953125 266.80078125 -195.2265625 266.28515625 -196.2890625 265.75390625 C-200.35143784 262.30971847 -202.90233999 258.12056151 -205.1640625 253.31640625 C-205.1640625 252.32640625 -205.1640625 251.33640625 -205.1640625 250.31640625 C-205.8240625 250.31640625 -206.4840625 250.31640625 -207.1640625 250.31640625 C-207.1640625 250.97640625 -207.1640625 251.63640625 -207.1640625 252.31640625 C-208.5625 253.7265625 -208.5625 253.7265625 -210.5390625 255.37890625 C-213.77810754 258.12182996 -216.9242137 260.93319969 -220.0390625 263.81640625 C-230.69420317 273.39789915 -242.89109355 282.72718819 -257.6953125 282.53125 C-262.38532953 282.12309978 -265.1708697 280.36635292 -268.3515625 277.00390625 C-275.1342641 266.94679698 -274.60844447 255.97434903 -272.65722656 244.27832031 C-268.86860598 226.09640146 -262.40839973 208.42248341 -256.40213013 190.87693787 C-253.60606116 182.70679984 -250.88502782 174.51180212 -248.1640625 166.31640625 C-249.52809204 166.80210083 -249.52809204 166.80210083 -250.91967773 167.29760742 C-254.73631169 168.49610343 -258.26865315 168.64738388 -262.2265625 168.62890625 C-262.92072266 168.64501953 -263.61488281 168.66113281 -264.33007812 168.67773438 C-268.77401554 168.68195464 -271.672293 168.11778786 -275.1640625 165.31640625 C-275.9765625 162.62890625 -275.9765625 162.62890625 -276.1640625 160.31640625 C-269.18870859 157.01164747 -262.05458405 154.4719574 -254.7265625 152.06640625 C-253.63923828 151.70289063 -252.55191406 151.339375 -251.43164062 150.96484375 C-243.4315672 148.31640625 -243.4315672 148.31640625 -241.1640625 148.31640625 C-241.00188232 147.78635986 -240.83970215 147.25631348 -240.67260742 146.71020508 C-236.51835351 133.65215619 -229.43780701 112.60145585 -217.69140625 104.640625 C-213.49954408 102.69959681 -210.84322509 102.23016338 -206.2265625 102.81640625 C-203.08888026 104.3532302 -201.81677769 105.2864284 -200.1640625 108.31640625 C-196.90644901 118.08924673 -202.17721759 126.39066724 -206.4765625 135.06640625 C-207.0334375 136.13890625 -207.5903125 137.21140625 -208.1640625 138.31640625 C-205.72616398 137.71381402 -203.28874479 137.1093835 -200.8515625 136.50390625 C-200.12259766 136.32375977 -199.39363281 136.14361328 -198.64257812 135.95800781 C-194.45305637 134.91524138 -190.30594693 133.78735667 -186.1640625 132.56640625 C-181.66172539 131.31500137 -177.82507239 130.97114626 -173.1640625 131.31640625 C-172.1640625 132.31640625 -172.1640625 132.31640625 -171.7890625 134.56640625 C-172.21290666 137.67459676 -173.12550637 139.00603414 -175.45703125 141.07421875 C-182.82922679 146.43888278 -191.95596796 149.32882462 -200.40625 152.5703125 C-201.15382568 152.86470215 -201.90140137 153.1590918 -202.67163086 153.46240234 C-205.1640625 154.31640625 -205.1640625 154.31640625 -208.18969727 154.95556641 C-212.93251095 156.07829509 -216.15071401 156.92899865 -219.09863281 160.96508789 C-220.75214348 164.43270762 -222.09569237 167.94279082 -223.3515625 171.56640625 C-223.84461263 172.88212876 -224.34174497 174.19632812 -224.84277344 175.5090332 C-225.84968192 178.1683184 -226.83023213 180.83504434 -227.78857422 183.51220703 C-229.01067991 186.91836074 -230.30821402 190.28994955 -231.63671875 193.65625 C-237.24563305 207.96861125 -241.87753131 222.55879027 -246.1640625 237.31640625 C-246.59996704 238.77977417 -246.59996704 238.77977417 -247.04467773 240.27270508 C-248.52326147 245.39686042 -249.56154897 249.99860865 -249.4765625 255.37890625 C-249.47076172 257.00505859 -249.47076172 257.00505859 -249.46484375 258.6640625 C-249.42552991 261.47022337 -249.42552991 261.47022337 -247.1640625 263.31640625 C-233.29400303 263.5732592 -221.00458333 250.87539315 -211.1640625 242.31640625 C-208.76869854 239.92104229 -208.90795341 239.35761395 -208.85546875 236.08984375 C-208.83258789 235.23084473 -208.80970703 234.3718457 -208.78613281 233.48681641 C-208.76647461 232.56433105 -208.74681641 231.6418457 -208.7265625 230.69140625 C-207.81508313 205.18300491 -200.38654936 183.32048633 -184.1640625 163.31640625 C-183.4421875 162.41664063 -182.7203125 161.516875 -181.9765625 160.58984375 C-172.71061055 149.63616484 -162.83462374 144.7913587 -148.69140625 143.00390625 C-142.73012836 142.66746729 -137.20082719 144.08946209 -132.1640625 147.31640625 C-126.64593415 153.50475262 -124.67809934 159.39325869 -124.7578125 167.59375 C-126.02088789 179.16789278 -130.552814 190.50722613 -138.1640625 199.31640625 C-138.99035156 200.28964844 -139.81664062 201.26289063 -140.66796875 202.265625 C-152.86911942 216.27983353 -168.37192879 227.3665072 -185.1640625 235.31640625 C-184.78747662 241.34178025 -182.93576081 245.57453121 -179.1640625 250.31640625 C-175.05417918 253.05632846 -171.98902035 252.90737008 -167.1640625 252.31640625 C-148.09581567 247.18855243 -132.67929919 230.77976941 -120.1640625 216.31640625 C-118.99805085 213.98438295 -118.8529083 212.20408845 -118.5859375 209.609375 C-113.19644649 160.39955435 -94.94630271 112.49758153 -71.1640625 69.31640625 C-70.7402832 68.54635254 -70.31650391 67.77629883 -69.87988281 66.98291016 C-61.68389228 52.29231332 -51.71649847 38.53488724 -40.1640625 26.31640625 C-39.05457959 25.02930311 -37.95026838 23.7377211 -36.8515625 22.44140625 C-13.46616843 -4.25375357 -13.46616843 -4.25375357 0 0 Z " fill="#E4E5E4" transform="translate(572.1640625,215.68359375)"/>
<path d="M0 0 C0 3.57048776 -0.95063502 5.28464262 -2.53515625 8.4765625 C-3.08921143 9.60408936 -3.6432666 10.73161621 -4.21411133 11.89331055 C-4.51427155 12.49863617 -4.81443176 13.10396179 -5.12368774 13.72763062 C-6.75117957 17.01684329 -8.35174327 20.3191097 -9.953125 23.62109375 C-10.28858841 24.31243912 -10.62405182 25.00378448 -10.96968079 25.71607971 C-27.83359338 60.54348959 -42.80398291 96.33230934 -55.23828125 132.98266602 C-56 135 -56 135 -57 136 C-59.45633526 136.43219064 -61.90891873 136.81872026 -64.375 137.1875 C-72.51656906 138.46644701 -80.52773506 140.17264311 -88.5625 142 C-96.35437699 143.76341907 -104.13827533 145.51141567 -112 146.9375 C-113.02202515 147.12989258 -113.02202515 147.12989258 -114.06469727 147.32617188 C-117.20601532 147.87327146 -118.91433579 148.02855474 -122 147 C-121.35675781 146.25878906 -120.71351563 145.51757812 -120.05078125 144.75390625 C-112.87574129 136.41691105 -106.154834 127.78647835 -99.52392578 119.01318359 C-86.93510937 102.38271578 -74.06668491 85.98197187 -60.43725586 70.18920898 C-57.43097567 66.69833722 -54.50206669 63.16150721 -51.625 59.5625 C-46.77643433 53.58142264 -41.49450179 48.03069612 -36.21875 42.4296875 C-32.71055607 38.70323265 -29.32236942 34.89273327 -26 31 C-25.1018435 29.95548748 -24.20337566 28.91124263 -23.3046875 27.8671875 C-18.16219437 21.88698048 -13.04156045 15.88803813 -7.9375 9.875 C-7.4847168 9.34302002 -7.03193359 8.81104004 -6.56542969 8.26293945 C-4.28512274 5.57074233 -2.07981366 2.85036758 0 0 Z " fill="#000102" transform="translate(310,182)"/>
<path d="M0 0 C3.875 1.75 3.875 1.75 5 4 C5.96227134 12.45686656 4.00813829 18.99186691 0.6875 26.6875 C0.23673096 27.76765381 -0.21403809 28.84780762 -0.6784668 29.96069336 C-2.093154 33.31889771 -3.54091783 36.66087073 -5 40 C-5.66515625 41.53672363 -5.66515625 41.53672363 -6.34375 43.10449219 C-22.16184479 79.41313983 -43.6484979 112.51938418 -65.1875 145.625 C-65.82357178 146.60339844 -66.45964355 147.58179688 -67.11499023 148.58984375 C-67.70997314 149.50121094 -68.30495605 150.41257812 -68.91796875 151.3515625 C-69.44156982 152.15416504 -69.9651709 152.95676758 -70.50463867 153.78369141 C-71.93945921 155.91027114 -73.44182784 157.9625917 -75 160 C-75.66 159.67 -76.32 159.34 -77 159 C-68.65210098 129.81832227 -58.7785945 101.58199709 -46 74 C-45.50854492 72.93346191 -45.01708984 71.86692383 -44.51074219 70.76806641 C-38.66241853 58.1368156 -32.56438598 45.79725554 -25.21777344 33.96630859 C-23.96402803 31.94191696 -22.73481502 29.90397514 -21.5078125 27.86328125 C-7.75825141 5.18988051 -7.75825141 5.18988051 0 0 Z " fill="#030405" transform="translate(558,239)"/>
<path d="M0 0 C2.47189851 1.94220597 2.97912836 2.93738507 4 6 C5.11744037 15.98368859 2.2641952 23.44167538 -3.875 31.25 C-5.56004898 33.19661705 -7.25697689 35.10731732 -9 37 C-9.50853516 37.55768066 -10.01707031 38.11536133 -10.54101562 38.68994141 C-18.74984118 47.58447425 -27.44698323 55.00522346 -38 61 C-38.66 61 -39.32 61 -40 61 C-35.2150241 37.42263271 -28.30213755 14.87249611 -8 0 C-4.65044556 -1.11651815 -3.32740404 -0.99822121 0 0 Z " fill="#020202" transform="translate(427,374)"/>
<path d="M0 0 C2.51039324 5.02078647 1.68066364 12.86753938 0 18.125 C-8.52782754 37.27313128 -29.13498571 49.79617839 -47 59 C-47.66 59 -48.32 59 -49 59 C-47.04166448 52.4565795 -44.46492489 46.51960245 -41.25 40.5 C-40.80317871 39.66122314 -40.35635742 38.82244629 -39.89599609 37.95825195 C-36.73982202 32.14051115 -33.37720305 26.97646299 -29 22 C-28.07034921 20.87059806 -27.14352111 19.73886971 -26.21875 18.60546875 C-10.64630341 -0.28773793 -10.64630341 -0.28773793 0 0 Z " fill="#030303" transform="translate(685,364)"/>
<path d="M0 0 C3.59855687 1.64782402 7.18570281 3.37140562 9 7 C9.5238576 12.25575165 9.66505372 16.64526095 7.3125 21.4375 C1.62848668 27.73600125 1.62848668 27.73600125 -2.14453125 28.34765625 C-6.87222975 28.52798306 -10.29448254 28.17615782 -14 25 C-17.70704987 20.79199745 -18.59914821 17.55053156 -18.31640625 12.10546875 C-17.58504745 7.23877253 -14.61741479 3.93591747 -10.796875 0.95703125 C-7.25640381 -0.92865449 -3.85526476 -0.83076412 0 0 Z " fill="#E5E6E6" transform="translate(619,296)"/>
<path d="M0 0 C0.99 0.66 1.98 1.32 3 2 C1.54545455 7.45454545 1.54545455 7.45454545 -0.6875 9.6875 C-3 11 -3 11 -6.140625 12.2421875 C-10.50359941 14.09323229 -14.21298597 16.70145149 -18.0625 19.4375 C-19.42814574 20.39487322 -20.79402748 21.35190991 -22.16015625 22.30859375 C-22.8061377 22.76347168 -23.45211914 23.21834961 -24.11767578 23.68701172 C-26.71774684 25.50065402 -29.35413855 27.25397911 -32 29 C-28.930321 21.96792922 -22.00792799 16.57746894 -16 12 C-15.34 12 -14.68 12 -14 12 C-13.95552734 11.14148438 -13.95552734 11.14148438 -13.91015625 10.265625 C-12.51115683 6.78313718 -9.56421003 5.52916061 -6.4375 3.75 C-5.82197266 3.38648438 -5.20644531 3.02296875 -4.57226562 2.6484375 C-3.05473967 1.7543912 -1.52819561 0.87568372 0 0 Z " fill="#0679BA" transform="translate(47,379)"/>
<path d="M0 0 C1.23012478 3.69037435 0.5178832 4.54259938 -1 8 C-1.35858516 9.32676508 -1.7018576 10.65835921 -2 12 C-0.68 11.34 0.64 10.68 2 10 C0.56662073 15.73351707 -2.39063793 19.47811298 -6 24 C-7.29275891 25.6658196 -8.58443756 27.33247814 -9.875 29 C-10.91596693 30.33387971 -11.95737583 31.66741527 -13 33 C-14 30 -14 30 -13.07421875 27.80078125 C-12.61660156 26.97964844 -12.15898438 26.15851563 -11.6875 25.3125 C-10.02184111 22.15554872 -8.65790257 19.29811842 -7.875 15.8125 C-6.96343424 11.84067777 -5.70203035 8.68773243 -4 5 C-3.649375 4.21625 -3.29875 3.4325 -2.9375 2.625 C-2 1 -2 1 0 0 Z " fill="#0572AC" transform="translate(91,434)"/>
<path d="M0 0 C-1.0828125 0.8353125 -1.0828125 0.8353125 -2.1875 1.6875 C-4.98174341 3.88640183 -4.98174341 3.88640183 -7.125 6.25 C-12.62107618 11.50711635 -18.77380309 16.44726739 -26 19 C-20.08183272 10.27360433 -11.44968168 -0.798815 0 0 Z " fill="#0675B3" transform="translate(36,431)"/>
<path d="M0 0 C3.16616599 -0.14700056 6.33143982 -0.23462106 9.5 -0.3125 C10.8303125 -0.3753418 10.8303125 -0.3753418 12.1875 -0.43945312 C18.74149088 -0.5599309 22.9797934 0.71275259 28 5 C30.05859375 7.3515625 30.05859375 7.3515625 31.4375 9.625 C32.14712891 10.75808594 32.14712891 10.75808594 32.87109375 11.9140625 C34.74673503 15.37978029 35.15892634 18.18219679 35.1875 22.0625 C35.20167969 22.94035156 35.21585937 23.81820312 35.23046875 24.72265625 C35 27 35 27 33 29 C32.90203125 27.98679688 32.8040625 26.97359375 32.703125 25.9296875 C32.55294077 24.57802945 32.40185077 23.22647183 32.25 21.875 C32.188125 21.20984375 32.12625 20.5446875 32.0625 19.859375 C31.3447325 13.75835121 29.03453529 9.92745449 24.625 5.75 C19.22100851 2.14733901 15.34273358 1.88524475 9.1171875 2.765625 C6.52877772 3.05216483 4.46981194 2.82327065 2 2 C1.34 1.34 0.68 0.68 0 0 Z " fill="#02A4DA" transform="translate(343,124)"/>
<path d="M0 0 C-4.59336167 4.15728303 -9.82899011 6.56469949 -15.375 9.1875 C-16.29539062 9.63802734 -17.21578125 10.08855469 -18.1640625 10.55273438 C-23.1743211 12.93976472 -27.44818379 14.60999638 -33 15 C-30.59195432 12.59195432 -28.57796225 11.99231241 -25.375 10.875 C-24.37210937 10.52179687 -23.36921875 10.16859375 -22.3359375 9.8046875 C-21.17964844 9.40636719 -21.17964844 9.40636719 -20 9 C-20.33 7.68 -20.66 6.36 -21 5 C-17.87883314 3.96717589 -14.75255182 2.95080882 -11.625 1.9375 C-10.29082031 1.49567383 -10.29082031 1.49567383 -8.9296875 1.04492188 C-7.65351563 0.6340332 -7.65351563 0.6340332 -6.3515625 0.21484375 C-5.56604004 -0.04176025 -4.78051758 -0.29836426 -3.97119141 -0.56274414 C-2 -1 -2 -1 0 0 Z " fill="#06A9E3" transform="translate(366,581)"/>
<path d="M0 0 C1.32 0.33 2.64 0.66 4 1 C4 1.66 4 2.32 4 3 C2.29059971 4.60228383 0.46698472 6.01294742 -1.37109375 7.46484375 C-3.26558258 9.00756886 -3.26558258 9.00756886 -4 12 C-4.99 12.33 -5.98 12.66 -7 13 C-7.66 12.01 -8.32 11.02 -9 10 C-9.74765625 10.61488281 -10.4953125 11.22976563 -11.265625 11.86328125 C-12.25046875 12.67152344 -13.2353125 13.47976563 -14.25 14.3125 C-15.22453125 15.11300781 -16.1990625 15.91351563 -17.203125 16.73828125 C-19.4366262 18.54442258 -21.68687263 20.29819915 -24 22 C-20.3524289 13.50153538 -10.89465953 8.4105039 -3.40625 3.6640625 C-0.91154107 2.22414614 -0.91154107 2.22414614 0 0 Z " fill="#0682BE" transform="translate(30,398)"/>
<path d="M0 0 C0.99 0.66 1.98 1.32 3 2 C2.15905619 5.15353929 1.49932382 7.46501019 -0.75 9.875 C-3.62434327 11.31217164 -5.82934761 11.21618085 -9 11 C-8.34 10.67 -7.68 10.34 -7 10 C-9.62113708 10 -11.50935112 10.31292445 -14 11 C-12.64478423 6.93435268 -9.95964829 5.8649215 -6.4375 3.8125 C-5.82197266 3.44447266 -5.20644531 3.07644531 -4.57226562 2.69726562 C-3.05283891 1.790321 -1.52700967 0.89411832 0 0 Z " fill="#035280" transform="translate(47,379)"/>
<path d="M0 0 C0.66 0.33 1.32 0.66 2 1 C1.21753906 1.75925781 0.43507813 2.51851562 -0.37109375 3.30078125 C-1.39349196 4.30441986 -2.41561299 5.30834089 -3.4375 6.3125 C-3.95376953 6.81201172 -4.47003906 7.31152344 -5.00195312 7.82617188 C-7.40590176 10.19869635 -8.91656793 11.74970379 -10 15 C-11.6015625 16.578125 -11.6015625 16.578125 -13.625 18.25 C-20.68768648 23.88338558 -20.68768648 23.88338558 -26 31 C-26.66 31 -27.32 31 -28 31 C-28.2475 31.61875 -28.495 32.2375 -28.75 32.875 C-30.20628639 35.35068687 -31.37812506 35.95125002 -34 37 C-30.84738259 31.81214856 -27.03566256 27.83609451 -22.6875 23.625 C-18.13038708 19.14629839 -13.68643302 14.6715873 -9.5625 9.78515625 C-6.55633961 6.350618 -3.26387436 3.187576 0 0 Z " fill="#03ABE4" transform="translate(297,148)"/>
<path d="M0 0 C4.93497985 4.22998273 7.37685715 9.1094336 10 15 C10.37125 15.79277344 10.7425 16.58554688 11.125 17.40234375 C14.08068606 26.17703674 12.31880741 37.51860329 9 46 C7.39453125 47.83203125 7.39453125 47.83203125 6 49 C6.2165625 48.2471875 6.433125 47.494375 6.65625 46.71875 C9.97675384 34.05164274 11.25540587 20.99119337 5 9 C3.43825914 6.55784433 1.76528669 4.30467985 0 2 C0 1.34 0 0.68 0 0 Z " fill="#001F2E" transform="translate(679,133)"/>
<path d="M0 0 C1 3 1 3 0.07519531 5.17285156 C-3.73753568 11.4577643 -8.00329231 16.61673464 -13.25 21.75 C-13.94996094 22.46542969 -14.64992188 23.18085938 -15.37109375 23.91796875 C-20.42500086 28.93505322 -25.7516841 32.60156533 -32 36 C-30.69853442 32.09560327 -28.976824 31.34369184 -25.625 29 C-14.81723986 21.15783334 -6.01701328 12.03402655 0 0 Z " fill="#F3F4F3" transform="translate(685,380)"/>
<path d="M0 0 C0.66 0 1.32 0 2 0 C2 0.66 2 1.32 2 2 C1.34 2 0.68 2 0 2 C-0.268125 2.86625 -0.53625 3.7325 -0.8125 4.625 C-1.99714607 7.99188882 -3.09947569 10.97323906 -5 14 C-7.1875 14.5625 -7.1875 14.5625 -10 15 C-12.14637438 16.25893112 -14.18475131 17.62309747 -16.23046875 19.0390625 C-16.81441406 19.35617187 -17.39835937 19.67328125 -18 20 C-18.66 19.67 -19.32 19.34 -20 19 C-19.05898438 18.21496094 -18.11796875 17.42992187 -17.1484375 16.62109375 C-15.89037595 15.5601911 -14.63257751 14.49897639 -13.375 13.4375 C-12.75753906 12.92380859 -12.14007812 12.41011719 -11.50390625 11.88085938 C-7.6640756 8.62710814 -4.36981581 5.25794369 -1.24853516 1.30493164 C-0.83651855 0.8743042 -0.42450195 0.44367676 0 0 Z " fill="#04669F" transform="translate(39,416)"/>
<path d="M0 0 C1.24452234 3.73356702 0.57603411 4.7361346 -0.87109375 8.32421875 C-1.28037109 9.35224609 -1.68964844 10.38027344 -2.11132812 11.43945312 C-2.54896484 12.51130859 -2.98660156 13.58316406 -3.4375 14.6875 C-4.0881543 16.31268555 -4.0881543 16.31268555 -4.75195312 17.97070312 C-5.82623953 20.65051646 -6.91204418 23.32570703 -8 26 C-3.38 25.67 1.24 25.34 6 25 C1.12206417 28.25195722 -3.22391379 28.11325659 -9 28 C-10.46240849 24.17950735 -9.49051262 22.02736262 -7.91015625 18.359375 C-7.45576172 17.28945313 -7.00136719 16.21953125 -6.53320312 15.1171875 C-6.04787109 14.00601562 -5.56253906 12.89484375 -5.0625 11.75 C-4.34030273 10.06003906 -4.34030273 10.06003906 -3.60351562 8.3359375 C-2.4124158 5.55277356 -1.210947 2.77457241 0 0 Z " fill="#05A9E5" transform="translate(307,287)"/>
<path d="M0 0 C1.42101714 4.26305141 -0.45165918 6.85336405 -2.3125 10.6875 C-2.66699219 11.4312085 -3.02148438 12.17491699 -3.38671875 12.94116211 C-7.3269588 20.99912284 -12.08160271 28.51153855 -17 36 C-17.33 35.34 -17.66 34.68 -18 34 C-16.7952587 31.67975749 -15.5471027 29.47689579 -14.1875 27.25 C-11.55526585 22.91347462 -9.42584417 18.91878518 -8 14 C-7.34 14 -6.68 14 -6 14 C-5.34 11.36 -4.68 8.72 -4 6 C-3.34 6 -2.68 6 -2 6 C-1.855625 5.195625 -1.71125 4.39125 -1.5625 3.5625 C-1 1 -1 1 0 0 Z " fill="#02ADE3" transform="translate(375,154)"/>
<path d="M0 0 C0.66 0.33 1.32 0.66 2 1 C1.56429687 1.42410156 1.12859375 1.84820312 0.6796875 2.28515625 C-2.31116186 5.23068971 -5.18072517 8.16474849 -7.8125 11.4375 C-13.2874607 17.92254703 -19.96145561 23.20398456 -28 26 C-28 25.34 -28 24.68 -28 24 C-26.55102449 23.09556388 -25.06210036 22.25526127 -23.5625 21.4375 C-14.42517435 15.86420975 -7.3480384 7.68457002 0 0 Z " fill="#F2F2F2" transform="translate(809,439)"/>
<path d="M0 0 C1.65 0.33 3.3 0.66 5 1 C4.49172849 5.37113496 3.54826592 8.38995662 1 12 C0.67 12 0.34 12 0 12 C0 10.35 0 8.7 0 7 C-1.94999129 7.19471111 -1.94999129 7.19471111 -4 8 C-5.28436734 9.9837767 -5.28436734 9.9837767 -6 12 C-6 8.36804504 -5.04546845 7.25286089 -3 4.3125 C-2.443125 3.50425781 -1.88625 2.69601562 -1.3125 1.86328125 C-0.879375 1.24839844 -0.44625 0.63351562 0 0 Z " fill="#EAEAE9" transform="translate(829,412)"/>
<path d="M0 0 C1.65 0.33 3.3 0.66 5 1 C5 2.32 5 3.64 5 5 C2.59375 7.359375 2.59375 7.359375 -0.5 9.75 C-1.5209375 10.54921875 -2.541875 11.3484375 -3.59375 12.171875 C-4.3878125 12.77515625 -5.181875 13.3784375 -6 14 C-6 11 -6 11 -4 8.8125 C-3.34 8.214375 -2.68 7.61625 -2 7 C-2.33 6.34 -2.66 5.68 -3 5 C-1.5625 2.375 -1.5625 2.375 0 0 Z " fill="#0576B2" transform="translate(11,422)"/>
<path d="M0 0 C0.66 0.33 1.32 0.66 2 1 C0.3790787 2.17232685 -1.24686833 3.3377077 -2.875 4.5 C-3.77992187 5.1496875 -4.68484375 5.799375 -5.6171875 6.46875 C-8 8 -8 8 -10 8 C-10.33 8.99 -10.66 9.98 -11 11 C-13.21484375 12.82421875 -13.21484375 12.82421875 -15.9375 14.6875 C-16.83339844 15.31011719 -17.72929687 15.93273437 -18.65234375 16.57421875 C-21 18 -21 18 -23 18 C-21.79102227 14.37306681 -20.69546295 13.81226427 -17.59765625 11.6796875 C-16.70755859 11.06222656 -15.81746094 10.44476563 -14.90039062 9.80859375 C-13.96388672 9.17050781 -13.02738281 8.53242188 -12.0625 7.875 C-11.12986328 7.22917969 -10.19722656 6.58335937 -9.23632812 5.91796875 C-2.38821429 1.19410714 -2.38821429 1.19410714 0 0 Z " fill="#01131F" transform="translate(40,390)"/>
<path d="M0 0 C0.66 0.33 1.32 0.66 2 1 C-0.76857417 3.81814919 -3.54377913 6.62958172 -6.32519531 9.43505859 C-7.73334701 10.85817009 -9.13623955 12.2864792 -10.5390625 13.71484375 C-11.42851562 14.61074219 -12.31796875 15.50664062 -13.234375 16.4296875 C-14.05131836 17.25710449 -14.86826172 18.08452148 -15.70996094 18.93701172 C-17.76723234 20.79031058 -19.46630336 21.93666145 -22 23 C-20.5046685 19.37544646 -18.45667772 17.41063184 -15.5 14.875 C-10.0901451 10.1354624 -5.03679689 5.1332462 0 0 Z " fill="#F6F7F7" transform="translate(421,407)"/>
<path d="M0 0 C-4.3802282 5.47528525 -10.32932405 8.07311974 -17 10 C-18.32 9.67 -19.64 9.34 -21 9 C-16.71 7.35 -12.42 5.7 -8 4 C-8.33 2.68 -8.66 1.36 -9 0 C-5.93109813 -1.53445094 -3.29905734 -0.54984289 0 0 Z " fill="#049EDB" transform="translate(354,586)"/>
<path d="M0 0 C1.27066587 2.54133174 1 4.12791367 1 7 C-0.53125 9.26171875 -0.53125 9.26171875 -2.5 11.6875 C-3.47453125 12.89986328 -3.47453125 12.89986328 -4.46875 14.13671875 C-4.9740625 14.75160156 -5.479375 15.36648438 -6 16 C-7 13 -7 13 -5.8203125 10.1171875 C-5.26085937 9.04726563 -4.70140625 7.97734375 -4.125 6.875 C-3.57070312 5.79992187 -3.01640625 4.72484375 -2.4453125 3.6171875 C-1 1 -1 1 0 0 Z " fill="#0586CA" transform="translate(84,451)"/>
<path d="M0 0 C0 5.25961376 -3.5812612 9.20140133 -7 13 C-9.27066092 14.786188 -11.59991266 16.3845566 -14 18 C-12.39435789 14.32872101 -10.110728 11.51294759 -7.5625 8.4375 C-6.78003906 7.48746094 -5.99757812 6.53742188 -5.19140625 5.55859375 C-3.52174835 3.60917143 -1.85359593 1.77015431 0 0 Z " fill="#0696D3" transform="translate(216,237)"/>
<path d="M0 0 C2.46868712 2.74298569 2.75934698 4.63968308 3.0390625 8.265625 C2.3790625 8.265625 1.7190625 8.265625 1.0390625 8.265625 C0.08697768 6.88613368 -0.79808928 5.46005212 -1.6484375 4.015625 C-4.65744208 -0.61809633 -6.85048684 -2.61970576 -11.9609375 -4.734375 C-14.66102689 -5.28483259 -17.20052537 -5.54066187 -19.9609375 -5.734375 C-19.9609375 -6.064375 -19.9609375 -6.394375 -19.9609375 -6.734375 C-11.625973 -9.26012182 -6.35163153 -4.87406166 0 0 Z " fill="#011118" transform="translate(374.9609375,129.734375)"/>
<path d="M0 0 C3.24983 -0.08728882 6.4993575 -0.14048658 9.75 -0.1875 C11.13058594 -0.22520508 11.13058594 -0.22520508 12.5390625 -0.26367188 C13.42851562 -0.27333984 14.31796875 -0.28300781 15.234375 -0.29296875 C16.05131836 -0.3086792 16.86826172 -0.32438965 17.70996094 -0.34057617 C20.51240627 0.07620541 21.88847021 1.16195148 24 3 C23.01 3.495 23.01 3.495 22 4 C21.154375 3.67 20.30875 3.34 19.4375 3 C15.55714876 1.87117055 13.04257158 2.21052018 9.1171875 2.765625 C6.52877772 3.05216483 4.46981194 2.82327065 2 2 C1.34 1.34 0.68 0.68 0 0 Z " fill="#01AFE8" transform="translate(343,124)"/>
<path d="M0 0 C0 3 0 3 -2 5.25 C-2.98834894 6.17921695 -3.99010669 7.09424437 -5 8 C-5.65097656 8.58523437 -6.30195312 9.17046875 -6.97265625 9.7734375 C-10.22631399 12.65611744 -13.49565379 15.42442261 -17 18 C-15.40425499 14.02941094 -12.63330816 11.37060046 -9.625 8.4375 C-9.14289062 7.95603516 -8.66078125 7.47457031 -8.1640625 6.97851562 C-5.58143857 4.4274727 -2.96958619 2.08996942 0 0 Z " fill="#EFF1F0" transform="translate(555,219)"/>
<path d="M0 0 C0.66 0.33 1.32 0.66 2 1 C0.2758698 2.29838176 -1.45453232 3.58843747 -3.1875 4.875 C-4.63189453 5.95394531 -4.63189453 5.95394531 -6.10546875 7.0546875 C-8.71128675 8.80596599 -11.04792144 9.97459794 -14 11 C-8.88887388 3.2894008 -8.88887388 3.2894008 -5.3125 2.125 C-4.549375 2.08375 -3.78625 2.0425 -3 2 C-2.01 1.34 -1.02 0.68 0 0 Z " fill="#088BCE" transform="translate(24,439)"/>
<path d="M0 0 C0 0.66 0 1.32 0 2 C-0.66 2 -1.32 2 -2 2 C-2 3.32 -2 4.64 -2 6 C-3.875 8.25 -3.875 8.25 -6 10 C-6.66 10 -7.32 10 -8 10 C-7.39457203 3.58246347 -7.39457203 3.58246347 -5.6875 1.0625 C-4 0 -4 0 0 0 Z " fill="#0369A1" transform="translate(100,419)"/>
<path d="M0 0 C1 3 1 3 0.0625 5.1875 C-0.4634375 6.0846875 -0.4634375 6.0846875 -1 7 C-1.66 7 -2.32 7 -3 7 C-3.103125 7.763125 -3.20625 8.52625 -3.3125 9.3125 C-4.04364039 12.17059424 -4.76951913 13.15742885 -7 15 C-6.14176406 9.99362371 -4.52426082 5.41745643 -2 1 C-1.34 0.67 -0.68 0.34 0 0 Z " fill="#0471AF" transform="translate(91,434)"/>
<path d="M0 0 C0.66 0.33 1.32 0.66 2 1 C-3.28 5.95 -8.56 10.9 -14 16 C-14.66 15.67 -15.32 15.34 -16 15 C-14.08643227 13.05935348 -12.16932062 11.122443 -10.25 9.1875 C-9.71117187 8.64029297 -9.17234375 8.09308594 -8.6171875 7.52929688 C-5.88259137 4.77802637 -3.20316096 2.21577882 0 0 Z " fill="#03B3EA" transform="translate(316,131)"/>
<path d="M0 0 C0.33 1.32 0.66 2.64 1 4 C-5.625 8 -5.625 8 -9 8 C-8.75390625 6.140625 -8.75390625 6.140625 -8 4 C-6.15234375 2.734375 -6.15234375 2.734375 -3.9375 1.75 C-2.83728516 1.24726563 -2.83728516 1.24726563 -1.71484375 0.734375 C-1.14894531 0.49203125 -0.58304688 0.2496875 0 0 Z " fill="#0470AD" transform="translate(39,387)"/>
<path d="M0 0 C0.99 0.66 1.98 1.32 3 2 C2.34 3.98 1.68 5.96 1 8 C-1.31 8 -3.62 8 -6 8 C-5.34 7.401875 -4.68 6.80375 -4 6.1875 C-1.6626154 4.12498166 -1.6626154 4.12498166 -2 1 C-1.34 0.67 -0.68 0.34 0 0 Z " fill="#0469A2" transform="translate(47,379)"/>
<path d="M0 0 C-1.1446875 0.5878125 -1.1446875 0.5878125 -2.3125 1.1875 C-5.30517686 3.20581695 -6.3130041 4.8560531 -8 8 C-8.98244845 9.34631825 -9.97676564 10.68441297 -11 12 C-11.66 11.67 -12.32 11.34 -13 11 C-11.90630138 9.18116422 -10.79968608 7.37009022 -9.6875 5.5625 C-9.07261719 4.55316406 -8.45773437 3.54382813 -7.82421875 2.50390625 C-5.30423074 -0.95500663 -4.06122967 -1.35374322 0 0 Z " fill="#EAEDED" transform="translate(358,322)"/>
<path d="M0 0 C0 3.63327194 -0.95586411 5.04735927 -3 8 C-6.03525486 10.02350324 -7.19426202 10.32124018 -10.6875 10.625 C-11.49574219 10.69976562 -12.30398438 10.77453125 -13.13671875 10.8515625 C-14.05904297 10.92503906 -14.05904297 10.92503906 -15 11 C-14.67 10.34 -14.34 9.68 -14 9 C-11.21029524 8.22533078 -8.40244837 7.65473845 -5.56640625 7.07421875 C-2.77109552 6.23049022 -2.77109552 6.23049022 -1.71484375 3.45703125 C-1.47894531 2.64621094 -1.24304688 1.83539063 -1 1 C-0.67 0.67 -0.34 0.34 0 0 Z " fill="#ECEDED" transform="translate(334,358)"/>
<path d="M0 0 C0.66 0.33 1.32 0.66 2 1 C-0.26328524 3.0091515 -2.53480776 5.0072998 -4.8125 7 C-5.77639648 7.85851562 -5.77639648 7.85851562 -6.75976562 8.734375 C-7.69272461 9.54648437 -7.69272461 9.54648437 -8.64453125 10.375 C-9.21534424 10.87773437 -9.78615723 11.38046875 -10.37426758 11.8984375 C-12 13 -12 13 -15 13 C-10.43369266 8.12927217 -5.25023461 4.10843602 0 0 Z " fill="#022033" transform="translate(21,422)"/>
<path d="M0 0 C0.66 0.33 1.32 0.66 2 1 C-1.12437857 5.55638541 -4.97720024 8.7169092 -10 11 C-10.66 10.67 -11.32 10.34 -12 10 C-8.04 6.7 -4.08 3.4 0 0 Z " fill="#0685C7" transform="translate(31,425)"/>
<path d="M0 0 C1.205464 3.61639199 0.3844923 4.80981018 -1.1640625 8.1484375 C-2.31599871 10.69992238 -3.15469381 13.33403433 -4 16 C-4.66 16 -5.32 16 -6 16 C-5.52412884 9.97229862 -2.80277043 5.23321711 0 0 Z " fill="#03A4DF" transform="translate(280,249)"/>
<path d="M0 0 C-3.19990508 2.74277578 -6.00499382 4.6302836 -10 6 C-10.33 5.01 -10.66 4.02 -11 3 C-7.16674383 0.29417212 -4.67461851 -0.32613618 0 0 Z " fill="#056AA3" transform="translate(36,431)"/>
<path d="M0 0 C0.66 0.33 1.32 0.66 2 1 C1.38511719 1.90492188 1.38511719 1.90492188 0.7578125 2.828125 C-0.05042969 4.02695312 -0.05042969 4.02695312 -0.875 5.25 C-1.40867187 6.03890625 -1.94234375 6.8278125 -2.4921875 7.640625 C-3.81822015 9.71555692 -4.94928175 11.77614972 -6 14 C-6.66 14 -7.32 14 -8 14 C-6.58036591 8.32146365 -3.60636039 4.46825784 0 0 Z " fill="#EFF0EF" transform="translate(503,368)"/>
<path d="M0 0 C0.66 0.33 1.32 0.66 2 1 C0.52307692 8.63076923 0.52307692 8.63076923 -2.125 10.5 C-2.74375 10.665 -3.3625 10.83 -4 11 C-4.33 9.68 -4.66 8.36 -5 7 C-4.34 7 -3.68 7 -3 7 C-2.01 4.69 -1.02 2.38 0 0 Z " fill="#035F93" transform="translate(88,441)"/>
<path d="M0 0 C1.65 0.33 3.3 0.66 5 1 C4.48964169 5.3890815 3.47785723 8.33708062 1 12 C-0.39195915 7.82412255 1.17676781 5.86525224 3 2 C1.68 2.33 0.36 2.66 -1 3 C-0.67 2.01 -0.34 1.02 0 0 Z " fill="#F1F1F0" transform="translate(829,412)"/>
<path d="M0 0 C1.32 0.66 2.64 1.32 4 2 C3.34 2 2.68 2 2 2 C2 2.66 2 3.32 2 4 C1.34 4 0.68 4 0 4 C0 4.66 0 5.32 0 6 C1.32 6.66 2.64 7.32 4 8 C3.01 8.66 2.02 9.32 1 10 C-0.32 9.01 -1.64 8.02 -3 7 C-2.01 4.69 -1.02 2.38 0 0 Z " fill="#0468A0" transform="translate(103,402)"/>
<path d="M0 0 C0 0.66 0 1.32 0 2 C-1.96937661 3.62356346 -3.93345148 5.13559566 -6 6.625 C-6.85851562 7.25535156 -6.85851562 7.25535156 -7.734375 7.8984375 C-9.15203933 8.93805801 -10.57549262 9.96977591 -12 11 C-12 10.01 -12 9.02 -12 8 C-9.8828125 5.95703125 -9.8828125 5.95703125 -7.125 3.8125 C-5.76761719 2.73935547 -5.76761719 2.73935547 -4.3828125 1.64453125 C-2 0 -2 0 0 0 Z " fill="#089ADB" transform="translate(17,429)"/>
<path d="M0 0 C1 2 1 2 0.29296875 4.12890625 C-0.07183594 4.93199219 -0.43664062 5.73507812 -0.8125 6.5625 C-1.16957031 7.36816406 -1.52664063 8.17382812 -1.89453125 9.00390625 C-3 11 -3 11 -5 12 C-3.125 6.25 -3.125 6.25 -2 4 C-2.99 3.67 -3.98 3.34 -5 3 C-3.35 2.01 -1.7 1.02 0 0 Z " fill="#05AFE7" transform="translate(435,270)"/>
<path d="M0 0 C-0.8125 2.9375 -0.8125 2.9375 -2 6 C-2.99 6.33 -3.98 6.66 -5 7 C-5.33 5.35 -5.66 3.7 -6 2 C-3 0 -3 0 0 0 Z " fill="#056198" transform="translate(28,404)"/>
<path d="M0 0 C0.66 0.33 1.32 0.66 2 1 C-0.64 4.63 -3.28 8.26 -6 12 C-6.66 11.67 -7.32 11.34 -8 11 C-6.85539001 9.35331565 -5.70927742 7.70767566 -4.5625 6.0625 C-3.92441406 5.14597656 -3.28632813 4.22945313 -2.62890625 3.28515625 C-1 1 -1 1 0 0 Z " fill="#F0F0F0" transform="translate(386,382)"/>
<path d="M0 0 C0.99 0.33 1.98 0.66 3 1 C1.23494565 1.86604534 -0.53728074 2.71748642 -2.3125 3.5625 C-3.79169922 4.27599609 -3.79169922 4.27599609 -5.30078125 5.00390625 C-8 6 -8 6 -11 5 C-10 3 -10 3 -8.22265625 2.40234375 C-7.15337891 2.17224609 -7.15337891 2.17224609 -6.0625 1.9375 C-3.82845863 1.44690289 -2.05204395 1.02602198 0 0 Z " fill="#03A9E4" transform="translate(384,308)"/>
<path d="M0 0 C0.33 0.66 0.66 1.32 1 2 C-0.45738102 2.98058352 -1.91593675 3.95942132 -3.375 4.9375 C-4.59316406 5.75541016 -4.59316406 5.75541016 -5.8359375 6.58984375 C-8 8 -8 8 -10 9 C-10.99 8.34 -11.98 7.68 -13 7 C-12.22076172 6.61908203 -12.22076172 6.61908203 -11.42578125 6.23046875 C-7.51334292 4.29956111 -3.7041846 2.31511537 0 0 Z " fill="#01233A" transform="translate(31,429)"/>
<path d="M0 0 C3.51799762 1.95444312 6.39208869 3.90914215 9 7 C9 7.99 9 8.98 9 10 C8.34 10 7.68 10 7 10 C5.66666667 8 4.33333333 6 3 4 C0.89424357 2.16699091 0.89424357 2.16699091 -1 1 C-0.67 0.67 -0.34 0.34 0 0 Z " fill="#0D0E0F" transform="translate(574,215)"/>
<path d="M0 0 C-0.33 1.65 -0.66 3.3 -1 5 C-1.5878125 4.2575 -1.5878125 4.2575 -2.1875 3.5 C-4.55091715 1.54406857 -6.01435003 1.75792027 -9 2 C-9 1.34 -9 0.68 -9 0 C-5.52176885 -1.15941038 -3.54104422 -0.70820884 0 0 Z " fill="#046DA6" transform="translate(107,395)"/>
<path d="M0 0 C1.65 0.33 3.3 0.66 5 1 C3.03617993 2.50559539 1.21736634 3.89131683 -1 5 C-1.72159424 6.64363134 -2.39351421 8.31050386 -3 10 C-4 7 -4 7 -3.22265625 5.17578125 C-2.1484375 3.45052083 -1.07421875 1.72526042 0 0 Z " fill="#03A4E1" transform="translate(289,341)"/>
<path d="M0 0 C0 3.88182751 -0.99521992 5.91792914 -3.625 8.75 C-4.305625 9.36875 -4.305625 9.36875 -5 10 C-5.66 9.67 -6.32 9.34 -7 9 C-4.69 6.03 -2.38 3.06 0 0 Z " fill="#0794D5" transform="translate(166,300)"/>
<path d="M0 0 C4.875 1.75 4.875 1.75 6 4 C6.06950541 5.54023996 6.08452357 7.08334988 6.0625 8.625 C6.05347656 9.44226563 6.04445313 10.25953125 6.03515625 11.1015625 C6.02355469 11.72804688 6.01195312 12.35453125 6 13 C5.67 13 5.34 13 5 13 C4.731875 11.783125 4.46375 10.56625 4.1875 9.3125 C3.31505639 5.77878956 2.07843061 3.0231718 0 0 Z " fill="#F2F2F2" transform="translate(622,299)"/>
<path d="M0 0 C0.33 0.99 0.66 1.98 1 3 C-3.455 6.96 -3.455 6.96 -8 11 C-8 8 -8 8 -6.25 5.95703125 C-5.5075 5.24933594 -4.765 4.54164063 -4 3.8125 C-2.88625 2.73935547 -2.88625 2.73935547 -1.75 1.64453125 C-1.1725 1.10183594 -0.595 0.55914062 0 0 Z " fill="#09090A" transform="translate(553,218)"/>
<path d="M0 0 C0 3.86695678 -1.41909971 6.5088452 -3 10 C-3.99 9.67 -4.98 9.34 -6 9 C-4.47291037 5.56404834 -2.40072955 2.88087546 0 0 Z " fill="#02121B" transform="translate(310,182)"/>
<path d="M0 0 C0.33 0.99 0.66 1.98 1 3 C-2 4 -2 4 -6 4 C-6.99 4.495 -6.99 4.495 -8 5 C-7.625 3.0625 -7.625 3.0625 -7 1 C-4.53721199 -0.231394 -2.7204945 -0.07159196 0 0 Z " fill="#066BA5" transform="translate(26,420)"/>
<path d="M0 0 C2.39763185 2.39763185 2.34280586 3.33273498 2.625 6.625 C2.69976562 7.44226563 2.77453125 8.25953125 2.8515625 9.1015625 C2.90054687 9.72804688 2.94953125 10.35453125 3 11 C1 10 1 10 0 7 C-0.03954234 4.66700175 -0.04401732 2.33291811 0 0 Z " fill="#03A6DE" transform="translate(257,519)"/>
<path d="M0 0 C0 3 0 3 -2.5 5.6875 C-3.325 6.450625 -4.15 7.21375 -5 8 C-4.75 5.125 -4.75 5.125 -4 2 C-1.9375 0.625 -1.9375 0.625 0 0 Z " fill="#0699DA" transform="translate(82,459)"/>
<path d="M0 0 C-1.50223584 4.20626034 -4.28550034 5.73900021 -8 8 C-6.48291727 4.46014029 -4.24676932 0 0 0 Z " fill="#078DD3" transform="translate(23,400)"/>
<path d="M0 0 C0.66 0.33 1.32 0.66 2 1 C-0.52788007 3.79872437 -2.20411134 5.45773019 -6 6 C-5 3 -5 3 -2.5625 1.25 C-1.716875 0.8375 -0.87125 0.425 0 0 Z " fill="#045D8E" transform="translate(39,384)"/>
<path d="M0 0 C2.475 0.495 2.475 0.495 5 1 C5 2.65 5 4.3 5 6 C4.01 6 3.02 6 2 6 C2.33 4.68 2.66 3.36 3 2 C2.01 2 1.02 2 0 2 C0 1.34 0 0.68 0 0 Z " fill="#F5F5F4" transform="translate(395,347)"/>
<path d="M0 0 C0.33 0.99 0.66 1.98 1 3 C-4.625 7 -4.625 7 -8 7 C-5.4837822 4.39391727 -2.94865641 2.10618315 0 0 Z " fill="#056FAD" transform="translate(46,387)"/>
</svg>
