<?xml version="1.0" encoding="UTF-8"?>
<svg version="1.1" xmlns="http://www.w3.org/2000/svg" width="819" height="596">
<path d="M0 0 C270.27 0 540.54 0 819 0 C819 196.68 819 393.36 819 596 C548.73 596 278.46 596 0 596 C0 399.32 0 202.64 0 0 Z " fill="#0C0C0B" transform="translate(0,0)"/>
<path d="M0 0 C2.52259061 1.97420135 2.9929808 2.96745642 3.6875 6.1875 C3.790625 7.115625 3.89375 8.04375 4 9 C5.32 7.68 6.64 6.36 8 5 C8.19335938 5.97582031 8.38671875 6.95164062 8.5859375 7.95703125 C8.84632813 9.22933594 9.10671875 10.50164062 9.375 11.8125 C9.75785156 13.70935547 9.75785156 13.70935547 10.1484375 15.64453125 C10.82777181 19.10239018 10.82777181 19.10239018 13 22 C13.37890625 24.8828125 13.37890625 24.8828125 13.5625 28.125 C13.46334775 31.87914167 13.46334775 31.87914167 15 35 C15 31.37 15 27.74 15 24 C20.45244534 32.17866801 18.21855432 47.52867132 18.24023438 57.19165039 C18.24994602 59.79801292 18.28108547 62.40358652 18.3125 65.00976562 C18.40099836 78.90458352 16.84243671 91.97575312 12.25 105.1875 C11.86485229 106.31128052 11.86485229 106.31128052 11.47192383 107.45776367 C6.03641819 122.75401217 -3.16069159 136.31108083 -14.25 148.07421875 C-16.05668258 149.88790585 -16.05668258 149.88790585 -17 152 C-17.66 152 -18.32 152 -19 152 C-19 152.66 -19 153.32 -19 154 C-30.69983114 165.29391863 -45.35706467 173.24087398 -60 180 C-61.71703125 180.80244141 -61.71703125 180.80244141 -63.46875 181.62109375 C-93.46094861 194.62446815 -127.58062038 196.21640961 -159.8359375 196.0859375 C-161.76573633 196.08163518 -163.69553578 196.07760368 -165.62533569 196.07382202 C-171.75027869 196.05905295 -177.87512232 196.03148048 -184 196 C-184.99614822 195.99492935 -185.99229645 195.9898587 -187.01863098 195.9846344 C-202.55443459 195.90283575 -218.0897015 195.77314157 -233.625 195.625 C-234.7389061 195.61454021 -235.85281219 195.60408043 -237.00047302 195.59330368 C-278.97537078 195.19703415 -320.92737091 194.38994156 -362.88674355 193.19897842 C-369.28883691 193.0180461 -375.69120489 192.8490745 -382.09370041 192.68306255 C-389.10051582 192.50120726 -396.10711761 192.31212157 -403.11364746 192.11959839 C-405.96914211 192.04123327 -408.82468186 191.96519431 -411.68029785 191.89138794 C-429.17348771 191.43606261 -446.56694381 190.53673056 -464 189 C-464 188.34 -464 187.68 -464 187 C-463.05680908 187.00523682 -462.11361816 187.01047363 -461.1418457 187.01586914 C-457.62881861 187.03295311 -454.11583593 187.04547066 -450.6027832 187.05493164 C-449.08487245 187.05994766 -447.5669665 187.06676203 -446.04907227 187.07543945 C-443.86212984 187.08762497 -441.67525154 187.09325572 -439.48828125 187.09765625 C-437.51661987 187.10551147 -437.51661987 187.10551147 -435.50512695 187.11352539 C-432.08636838 187.10370859 -432.08636838 187.10370859 -429.14526367 186.40405273 C-428.08335815 186.20404663 -428.08335815 186.20404663 -427 186 C-425.1875 187.4375 -425.1875 187.4375 -424 189 C-423.67 188.01 -423.34 187.02 -423 186 C-423.82383682 185.98160568 -424.64767365 185.96321136 -425.49647522 185.94425964 C-433.27954052 185.76797137 -441.06210165 185.57809254 -448.84446049 185.37313366 C-452.84498451 185.26824905 -456.84549543 185.16853071 -460.84643555 185.08081055 C-464.71123038 184.99588194 -468.5754522 184.8971326 -472.43966484 184.78899574 C-473.91024187 184.75023475 -475.38095659 184.71636368 -476.85176277 184.68758202 C-478.92006752 184.64625283 -480.98718885 184.58718118 -483.05493164 184.52416992 C-484.22963516 184.49530197 -485.40433868 184.46643402 -486.61463928 184.43669128 C-490.67247073 183.9132553 -493.37068657 182.88290807 -497 181 C-501.04434299 173.09514778 -500.14854957 162.75708876 -500.14526367 154.10839844 C-500.14862228 152.83237762 -500.1519809 151.55635681 -500.15544128 150.2416687 C-500.16423282 146.75743475 -500.16661757 143.27322541 -500.16725707 139.78898144 C-500.16797123 137.60177294 -500.17011262 135.41457056 -500.17275429 133.22736359 C-500.18199727 125.56628529 -500.18609118 117.90522432 -500.18530273 110.24414062 C-500.18470478 103.15523494 -500.19520362 96.06640605 -500.2110464 88.97751975 C-500.22423327 82.85395068 -500.22948189 76.73040632 -500.22884732 70.60682321 C-500.22859524 66.96663221 -500.23128177 63.32650928 -500.24202538 59.6863327 C-500.28519879 44.01024742 -500.03382469 28.56261465 -498 13 C-497.67 13 -497.34 13 -497 13 C-496.67 14.98 -496.34 16.96 -496 19 C-495.67 19 -495.34 19 -495 19 C-494.34 15.37 -493.68 11.74 -493 8 C-492.34 9.32 -491.68 10.64 -491 12 C-491 11.34 -491 10.68 -491 10 C-491 8.33333333 -491 6.66666667 -491 5 C-489.79371992 7.33214148 -488.8345262 9.49642139 -488 12 C-488 10.02 -488 8.04 -488 6 C-487.67 6 -487.34 6 -487 6 C-486.68080061 7.31088682 -486.37014053 8.62385248 -486.0625 9.9375 C-485.88847656 10.66839844 -485.71445312 11.39929688 -485.53515625 12.15234375 C-484.23346662 19.07885278 -483.8326687 26.03607712 -483.68359375 33.0703125 C-483.66281265 33.92843536 -483.64203156 34.78655823 -483.62062073 35.67068481 C-483.55464153 38.48870322 -483.49559237 41.30680867 -483.4375 44.125 C-483.41598877 45.10319702 -483.39447754 46.08139404 -483.37231445 47.0892334 C-483.01647391 63.4691425 -482.95498612 79.83985509 -483.00997925 96.22293091 C-483.05820298 111.52282027 -482.79335698 126.7777563 -482.21875 142.06640625 C-481.96522141 149.04735557 -481.95194155 156.01483838 -482 163 C-481.22043945 162.84080078 -480.44087891 162.68160156 -479.63769531 162.51757812 C-475.01002774 161.85914489 -470.46594462 161.78414913 -465.796875 161.71875 C-464.21144142 161.69161171 -464.21144142 161.69161171 -462.59397888 161.66392517 C-458.97938175 161.60410945 -455.36472102 161.55175843 -451.75 161.5 C-450.48088776 161.48043243 -449.21177551 161.46086487 -447.90420532 161.44070435 C-419.84163151 161.00851092 -391.77681467 160.74062041 -363.71229553 160.47134399 C-361.37512598 160.44890322 -359.03795759 160.42634188 -356.70079041 160.40365601 C-311.4151399 159.96418555 -311.4151399 159.96418555 -293.46875 160 C-271.0382586 160.04434134 -248.60843987 159.81679154 -226.17895508 159.62768555 C-219.59944106 159.57244108 -213.0198982 159.52230115 -206.44033527 159.47328281 C-201.29336623 159.43402088 -196.14643298 159.39102616 -190.99950218 159.34705925 C-188.57466916 159.32696354 -186.1498246 159.30820484 -183.72496986 159.29092598 C-172.28155647 159.20819151 -160.84976838 159.07450327 -149.41674805 158.55297852 C-148.17842334 158.49799242 -148.17842334 158.49799242 -146.91508198 158.44189548 C-138.67861953 158.02282516 -130.61023876 156.82944518 -122.5 155.375 C-121.37794159 155.17809067 -121.37794159 155.17809067 -120.23321533 154.97720337 C-96.25800239 150.73014203 -75.51193457 142.82794005 -55.953125 128.1640625 C-53 126 -53 126 -50.2578125 124.38671875 C-47.7108122 122.82238465 -46.19097116 120.9111721 -44.36328125 118.57421875 C-42.96164159 116.95570648 -41.51334129 115.79455133 -39.8125 114.5 C-27.32822375 104.02406384 -19.80910397 86.96786834 -14.6875 71.875 C-14.34187012 70.85647949 -14.34187012 70.85647949 -13.98925781 69.81738281 C-9.76162936 56.6254438 -7.95639156 42.84561709 -5.9375 29.1875 C-5.55244801 26.59197331 -5.1660167 23.99668308 -4.77577209 21.40193176 C-4.53554561 19.80399812 -4.29819838 18.20562757 -4.06443787 16.60673523 C-1.84993154 1.84993154 -1.84993154 1.84993154 0 0 Z " fill="#00CDE4" transform="translate(658,392)"/>
<path d="M0 0 C2.60858898 0.00503793 5.21716265 0.00649995 7.82575607 0.00745392 C36.25681853 0.02943276 64.65190435 0.67588849 93.0638237 1.69245148 C94.40349638 1.73995859 94.40349638 1.73995859 95.77023315 1.78842545 C114.24547217 2.44655057 132.71067958 3.23087934 151.1653862 4.32917023 C152.47439392 4.40618164 153.78340164 4.48319305 155.13207626 4.56253815 C167.15678353 5.31249713 179.07019029 6.6675145 191.0013237 8.31745148 C191.82712936 8.42669952 192.65293503 8.53594757 193.50376511 8.64850616 C204.82809049 10.15101923 216.03800717 12.21508524 227.2513237 14.37995148 C227.92544296 14.50987488 228.59956223 14.63979828 229.29410934 14.77365875 C236.24497568 16.1188542 243.15681157 17.5020923 250.0013237 19.31745148 C250.0013237 19.64745148 250.0013237 19.97745148 250.0013237 20.31745148 C225.11820682 17.87589304 225.11820682 17.87589304 222.0013237 16.31745148 C222.0013237 16.97745148 222.0013237 17.63745148 222.0013237 18.31745148 C217.7113237 17.98745148 213.4213237 17.65745148 209.0013237 17.31745148 C210.9194487 17.60749054 210.9194487 17.60749054 212.8763237 17.90338898 C214.58468715 18.16621412 216.29301881 18.42924598 218.0013237 18.69245148 C218.84050339 18.8187796 219.67968307 18.94510773 220.54429245 19.07526398 C225.79050772 19.88863069 230.87059101 20.95163143 236.0013237 22.31745148 C236.0013237 22.64745148 236.0013237 22.97745148 236.0013237 23.31745148 C229.58118163 22.81392792 223.19846209 22.11257108 216.8138237 21.27448273 C215.35940162 21.08629302 213.90497447 20.89814245 212.45054245 20.7100296 C210.20702872 20.41925874 207.96423817 20.12491748 205.72251511 19.82062531 C203.52503034 19.52372554 201.32606855 19.24157307 199.1263237 18.96198273 C197.82952682 18.79029572 196.53272995 18.6186087 195.1966362 18.44171906 C191.8442975 17.99846874 191.8442975 17.99846874 189.0013237 20.31745148 C205.8313237 22.79245148 205.8313237 22.79245148 223.0013237 25.31745148 C223.0013237 25.64745148 223.0013237 25.97745148 223.0013237 26.31745148 C220.16777271 26.17516847 217.33453583 26.02871732 214.5013237 25.87995148 C213.31409714 25.82097687 213.31409714 25.82097687 212.1028862 25.76081085 C211.31655807 25.71891632 210.53022995 25.67702179 209.7200737 25.63385773 C208.65176315 25.57887115 208.65176315 25.57887115 207.56187057 25.52277374 C204.02444701 25.23911878 200.52065854 24.77360143 197.0013237 24.31745148 C197.99051804 24.4636795 198.97971237 24.60990753 199.99888229 24.76056671 C203.6632999 25.3031812 207.327036 25.85028126 210.99058151 26.39875031 C212.57731265 26.63565582 214.1642268 26.87133889 215.7513237 27.10578156 C218.03046038 27.44266644 220.30890614 27.78391932 222.5872612 28.12604523 C223.29877335 28.23025284 224.01028549 28.33446045 224.74335861 28.44182587 C229.77358029 29.20357977 229.77358029 29.20357977 232.0013237 30.31745148 C232.3313237 31.30745148 232.6613237 32.29745148 233.0013237 33.31745148 C233.0013237 31.99745148 233.0013237 30.67745148 233.0013237 29.31745148 C230.0313237 28.65745148 227.0613237 27.99745148 224.0013237 27.31745148 C224.0013237 26.98745148 224.0013237 26.65745148 224.0013237 26.31745148 C232.37627384 26.70357795 240.00401601 27.76921115 248.0013237 30.31745148 C245.79612684 30.88048046 243.61345614 31.39133101 241.3763237 31.81745148 C238.99844462 32.21332461 238.99844462 32.21332461 237.0013237 33.31745148 C237.6613237 33.97745148 238.3213237 34.63745148 239.0013237 35.31745148 C227.64891432 34.51709608 216.32751797 33.42099643 205.0013237 32.31745148 C205.0013237 31.65745148 205.0013237 30.99745148 205.0013237 30.31745148 C206.6513237 29.98745148 208.3013237 29.65745148 210.0013237 29.31745148 C203.0713237 28.32745148 196.1413237 27.33745148 189.0013237 26.31745148 C189.0013237 26.97745148 189.0013237 27.63745148 189.0013237 28.31745148 C191.6413237 28.31745148 194.2813237 28.31745148 197.0013237 28.31745148 C197.0013237 28.97745148 197.0013237 29.63745148 197.0013237 30.31745148 C198.9813237 30.31745148 200.9613237 30.31745148 203.0013237 30.31745148 C203.0013237 30.64745148 203.0013237 30.97745148 203.0013237 31.31745148 C191.95604174 31.45124359 181.02051585 31.08115786 170.0013237 30.31745148 C172.3113237 30.64745148 174.6213237 30.97745148 177.0013237 31.31745148 C175.0013237 33.31745148 175.0013237 33.31745148 171.3060112 33.51276398 C169.82930702 33.50132238 168.35270569 33.47535054 166.8763237 33.44245148 C164.2775737 33.40120148 161.6788237 33.35995148 159.0013237 33.31745148 C170.3863237 34.30745148 170.3863237 34.30745148 182.0013237 35.31745148 C180.6813237 35.97745148 179.3613237 36.63745148 178.0013237 37.31745148 C178.6097612 37.29424835 179.2181987 37.27104523 179.8450737 37.24713898 C188.36323834 37.071765 196.58799607 38.13515199 205.0013237 39.31745148 C205.0013237 39.64745148 205.0013237 39.97745148 205.0013237 40.31745148 C202.20959315 40.34435252 199.41812022 40.36424201 196.6263237 40.37995148 C195.8322612 40.38833038 195.0381987 40.39670929 194.2200737 40.4053421 C188.2278862 40.43073273 188.2278862 40.43073273 186.0013237 39.31745148 C186.0013237 39.97745148 186.0013237 40.63745148 186.0013237 41.31745148 C186.57092819 41.30004913 187.14053268 41.28264679 187.72739792 41.2647171 C194.95979929 41.14381726 201.96084406 41.89260469 209.1263237 42.81745148 C210.27358932 42.96053741 211.42085495 43.10362335 212.6028862 43.25104523 C215.40309841 43.60107175 218.20248418 43.95664108 221.0013237 44.31745148 C221.0013237 44.64745148 221.0013237 44.97745148 221.0013237 45.31745148 C212.36148721 45.49121355 203.87744035 44.79967285 195.27866745 44.02838898 C193.70278854 43.89303741 193.70278854 43.89303741 192.0950737 43.75495148 C191.16372604 43.67116241 190.23237839 43.58737335 189.27280807 43.50104523 C184.8555071 43.25314893 180.4255751 43.31745148 176.0013237 43.31745148 C184.2513237 43.97745148 192.5013237 44.63745148 201.0013237 45.31745148 C201.0013237 45.97745148 201.0013237 46.63745148 201.0013237 47.31745148 C200.09704636 47.25686554 199.19276901 47.1962796 198.26108932 47.13385773 C179.82135061 45.91887241 161.49265927 44.96466697 143.0013237 45.31745148 C145.3113237 45.97745148 147.6213237 46.63745148 150.0013237 47.31745148 C150.3313237 46.65745148 150.6613237 45.99745148 151.0013237 45.31745148 C155.9513237 45.64745148 160.9013237 45.97745148 166.0013237 46.31745148 C165.3413237 46.64745148 164.6813237 46.97745148 164.0013237 47.31745148 C164.0013237 48.30745148 164.0013237 49.29745148 164.0013237 50.31745148 C163.20206624 50.28822224 162.40280878 50.258993 161.5793314 50.22887802 C139.48930461 49.44140057 117.42370361 49.14121577 95.32063079 49.11726284 C92.68373472 49.11427197 90.04684242 49.11015855 87.40994835 49.10575867 C79.07311096 49.09219667 70.73628284 49.08247138 62.39943522 49.07855678 C52.93282887 49.07408007 43.46636716 49.05650146 33.99980468 49.02755618 C26.56848675 49.00565802 19.13720872 48.99583808 11.70585901 48.99451566 C7.31767335 48.993489 2.92962557 48.98805602 -1.4585247 48.96969604 C-19.24780124 48.89953157 -36.89296416 49.21204642 -54.62636185 50.72077179 C-55.36900398 50.78393129 -56.11164611 50.84709079 -56.87679255 50.91216421 C-69.38290608 52.0015921 -81.73507764 53.6102553 -93.9986763 56.31745148 C-94.77195267 56.48438507 -95.54522903 56.65131866 -96.34193802 56.82331085 C-112.05479023 60.33975623 -128.11906567 66.55360694 -140.9986763 76.31745148 C-143.46778326 77.84594626 -145.95442141 79.29311128 -148.4986763 80.69245148 C-151.15368688 82.29521888 -151.15368688 82.29521888 -153.5611763 84.87995148 C-156.58988585 87.90866103 -158.99258978 88.9820893 -162.9986763 90.31745148 C-165.12421502 92.52636191 -165.12421502 92.52636191 -167.1861763 95.19245148 C-167.90160599 96.07674835 -168.61703568 96.96104523 -169.35414505 97.87213898 C-171.27770657 100.24120678 -171.27770657 100.24120678 -170.9986763 103.31745148 C-173.9986763 105.31745148 -173.9986763 105.31745148 -175.9986763 105.31745148 C-178.4183911 108.28170147 -180.38421231 111.59169222 -182.4361763 114.81745148 C-183.0563765 115.7889212 -183.67657669 116.76039093 -184.31557083 117.76129913 C-190.96126026 128.44582415 -196.08671107 139.7546914 -200.9986763 151.31745148 C-202.09526566 148.0276834 -201.79820768 146.60441381 -200.9986763 143.31745148 C-204.25058829 147.13357533 -206.11494777 151.55045039 -208.1861763 156.06745148 C-208.55420364 156.86022491 -208.92223099 157.65299835 -209.30141068 158.46979523 C-210.20467122 160.4170842 -211.1022404 162.36701137 -211.9986763 164.31745148 C-212.9886763 164.31745148 -213.9786763 164.31745148 -214.9986763 164.31745148 C-215.25262161 165.02772491 -215.50656693 165.73799835 -215.76820755 166.46979523 C-216.11238724 167.38889679 -216.45656693 168.30799835 -216.8111763 169.25495148 C-217.14762161 170.17147491 -217.48406693 171.08799835 -217.83070755 172.03229523 C-218.9986763 174.31745148 -218.9986763 174.31745148 -221.9986763 175.31745148 C-221.9986763 173.99745148 -221.9986763 172.67745148 -221.9986763 171.31745148 C-222.19511048 169.85746774 -222.40390061 168.39910433 -222.6236763 166.94245148 C-223.10961508 162.9151506 -222.64251232 160.0886047 -220.9986763 156.31745148 C-223.04659492 158.3653701 -223.56133321 159.46565562 -224.4986763 162.12995148 C-225.32855137 164.45192515 -226.17093324 166.72895416 -227.1236763 169.00495148 C-228.0400412 171.426773 -228.56180066 173.76901024 -228.9986763 176.31745148 C-229.6586763 176.31745148 -230.3186763 176.31745148 -230.9986763 176.31745148 C-230.9986763 174.33745148 -230.9986763 172.35745148 -230.9986763 170.31745148 C-232.3186763 170.31745148 -233.6386763 170.31745148 -234.9986763 170.31745148 C-234.3386763 167.67745148 -233.6786763 165.03745148 -232.9986763 162.31745148 C-233.6586763 161.98745148 -234.3186763 161.65745148 -234.9986763 161.31745148 C-234.3386763 161.31745148 -233.6786763 161.31745148 -232.9986763 161.31745148 C-233.2049263 160.40995148 -233.4111763 159.50245148 -233.6236763 158.56745148 C-234.0114008 155.20717251 -233.80279597 154.07669333 -231.9986763 151.31745148 C-233.3186763 151.31745148 -234.6386763 151.31745148 -235.9986763 151.31745148 C-236.6586763 153.29745148 -237.3186763 155.27745148 -237.9986763 157.31745148 C-238.3286763 157.31745148 -238.6586763 157.31745148 -238.9986763 157.31745148 C-239.2403997 151.63695163 -238.35860322 146.84215459 -236.9986763 141.31745148 C-237.9886763 143.95745148 -238.9786763 146.59745148 -239.9986763 149.31745148 C-244.97572907 134.38629316 -230.08321937 108.21866766 -223.59633255 95.23151398 C-217.03909615 82.56740755 -208.45769522 71.91211175 -198.9986763 61.31745148 C-197.70553406 59.83957463 -196.41358998 58.36064709 -195.1236763 56.87995148 C-194.59258255 56.27667023 -194.0614888 55.67338898 -193.5143013 55.05182648 C-191.49799396 52.74450571 -189.52241923 50.40345267 -187.5533638 48.05573273 C-159.80303817 17.02835859 -117.18050079 8.26918875 -77.74501419 4.26813507 C-76.6492305 4.1567923 -75.55344681 4.04544952 -74.42445755 3.93073273 C-73.44904007 3.83574493 -72.47362259 3.74075714 -71.468647 3.64289093 C-68.87005813 3.37990772 -68.87005813 3.37990772 -65.9986763 2.31745148 C-44.13548137 -0.14859935 -21.96878982 -0.04665562 0 0 Z " fill="#00CDE3" transform="translate(402.9986763000488,5.682548522949219)"/>
<path d="M0 0 C51.4 0 51.4 0 60 7 C66.44475283 13.74450877 68.55903786 19.79793997 68.4375 28.875 C68.42920166 29.67075439 68.42090332 30.46650879 68.41235352 31.28637695 C68.17994741 39.35442536 66.24847846 44.74034231 60.875 50.8125 C56.85262888 54.58073438 52.18115387 56.32159804 47 58 C49.23947225 62.59466781 51.87393051 66.9309334 54.5 71.3125 C55.29325684 72.63761597 55.29325684 72.63761597 56.10253906 73.98950195 C59.91483737 80.31082184 63.88673904 86.49939059 68.05273438 92.59301758 C71 96.91100529 71 96.91100529 71 98 C65.8578537 99.34421252 60.95559249 100.24102642 56 98 C49.02586194 91.10982027 44.78256701 80.86956032 40.70703125 72.078125 C37.74594592 65.84920291 37.74594592 65.84920291 33 61 C26.02074951 58.84872925 19.26805457 59.63199724 12 60 C12 72.54 12 85.08 12 98 C8.04 98 4.08 98 0 98 C0 65.66 0 33.32 0 0 Z " fill="#FBFBFB" transform="translate(629,249)"/>
<path d="M0 0 C3.96 0 7.92 0 12 0 C15.63926425 7.84769865 18.97048821 15.76208416 22.1328125 23.8125 C22.86319064 25.66048812 23.59357043 27.50847559 24.32403374 29.35643005 C25.33908576 31.92632086 26.35160366 34.49720672 27.36407471 37.06811523 C29.3497219 42.10940061 31.33881843 47.14932387 33.32994843 52.18844604 C33.82255046 53.43534986 34.31488654 54.68235878 34.80695343 55.92947388 C37.56249964 62.91112456 40.34685073 69.87955852 43.19433594 76.82421875 C43.58129922 77.76872643 43.58129922 77.76872643 43.97607994 78.73231506 C45.20957739 81.74057581 46.44803667 84.74666735 47.69290161 87.75024414 C48.12795013 88.80719482 48.56299866 89.86414551 49.01123047 90.953125 C49.58911819 92.34772949 49.58911819 92.34772949 50.17868042 93.77050781 C51 96 51 96 51 98 C46.38 98 41.76 98 37 98 C35.32917399 93.8766401 33.66316551 89.75144848 32 85.625 C31.52304688 84.449375 31.04609375 83.27375 30.5546875 82.0625 C30.10351562 80.94101562 29.65234375 79.81953125 29.1875 78.6640625 C28.76855469 77.62717285 28.34960938 76.5902832 27.91796875 75.52197266 C27 73 27 73 27 71 C12.81 71 -1.38 71 -16 71 C-16.33 72.65 -16.66 74.3 -17 76 C-17.56865695 77.69462441 -18.17478844 79.37701076 -18.8125 81.046875 C-19.16570312 81.97371094 -19.51890625 82.90054688 -19.8828125 83.85546875 C-20.25148438 84.81066406 -20.62015625 85.76585937 -21 86.75 C-21.36867188 87.72066406 -21.73734375 88.69132812 -22.1171875 89.69140625 C-24.86699263 96.86699263 -24.86699263 96.86699263 -26 98 C-28.18639453 98.07258946 -30.37500389 98.08373783 -32.5625 98.0625 C-33.76003906 98.05347656 -34.95757812 98.04445313 -36.19140625 98.03515625 C-37.58166016 98.01775391 -37.58166016 98.01775391 -39 98 C-38.78609619 97.46785889 -38.57219238 96.93571777 -38.35180664 96.38745117 C-32.3920447 81.54908095 -26.49795872 66.68539136 -20.625 51.8125 C-13.79749173 34.52246923 -6.92456813 17.25138073 0 0 Z " fill="#FCFCFC" transform="translate(146,249)"/>
<path d="M0 0 C20.46 0 40.92 0 62 0 C62 3.63 62 7.26 62 11 C45.83 11 29.66 11 13 11 C13 21.89 13 32.78 13 44 C27.85 44 42.7 44 58 44 C58 47.3 58 50.6 58 54 C43.15 54 28.3 54 13 54 C13 64.89 13 75.78 13 87 C29.5 87 46 87 63 87 C63 90.63 63 94.26 63 98 C42.21 98 21.42 98 0 98 C0 65.66 0 33.32 0 0 Z " fill="#F8F8F8" transform="translate(532,249)"/>
<path d="M0 0 C20.46 0 40.92 0 62 0 C62 3.63 62 7.26 62 11 C45.5 11 29 11 12 11 C12 21.89 12 32.78 12 44 C27.18 44 42.36 44 58 44 C58 47.3 58 50.6 58 54 C42.82 54 27.64 54 12 54 C12 64.89 12 75.78 12 87 C28.83 87 45.66 87 63 87 C63 90.63 63 94.26 63 98 C42.21 98 21.42 98 0 98 C0 65.66 0 33.32 0 0 Z " fill="#FCFCFC" transform="translate(302,249)"/>
<path d="M0 0 C25.08 0 50.16 0 76 0 C76 3.96 76 7.92 76 12 C65.44 12 54.88 12 44 12 C44 40.38 44 68.76 44 98 C39.71 98 35.42 98 31 98 C31 69.62 31 41.24 31 12 C20.77 12 10.54 12 0 12 C0 8.04 0 4.08 0 0 Z " fill="#F9F9F9" transform="translate(201,249)"/>
<path d="M0 0 C3.96 0 7.92 0 12 0 C12 28.71 12 57.42 12 87 C27.84 87 43.68 87 60 87 C60 90.63 60 94.26 60 98 C40.2 98 20.4 98 0 98 C0 65.66 0 33.32 0 0 Z " fill="#FDFDFD" transform="translate(396,249)"/>
<path d="M0 0 C7.1775 -0.12375 7.1775 -0.12375 14.5 -0.25 C15.99337891 -0.28641602 17.48675781 -0.32283203 19.02539062 -0.36035156 C26.49303449 -0.4226154 31.73541596 -0.2199468 38 4 C42.72142834 8.96355287 43.22238064 13.18572282 43.3125 19.8125 C43.34150391 20.51181641 43.37050781 21.21113281 43.40039062 21.93164062 C43.46296053 27.07681191 42.36520845 29.91324235 39 34 C33.25353848 38.42956409 29.40012682 39.12894792 22.265625 39.09765625 C20.51427246 39.09390991 20.51427246 39.09390991 18.72753906 39.09008789 C17.24995117 39.08098389 15.77236328 39.07187988 14.25 39.0625 C9.5475 39.041875 4.845 39.02125 0 39 C0 26.13 0 13.26 0 0 Z " fill="#0B0C0B" transform="translate(641,260)"/>
<path d="M0 0 C4.29 0 8.58 0 13 0 C13 32.34 13 64.68 13 98 C8.71 98 4.42 98 0 98 C0 65.66 0 33.32 0 0 Z " fill="#FDFDFD" transform="translate(483,249)"/>
<path d="M0 0 C2.86775731 2.86775731 2.63375519 6.01107557 3 9.875 C3.16172364 11.41300815 3.32580355 12.95077028 3.4921875 14.48828125 C3.57436523 15.24963379 3.65654297 16.01098633 3.74121094 16.79541016 C4.3005363 21.56022907 5.14525868 26.28073676 6 31 C5.7834375 29.31583984 5.7834375 29.31583984 5.5625 27.59765625 C4.61489846 20.02951241 3.72207227 12.64301253 4 5 C6.24606427 6.77444972 6.95081002 7.58352485 7.29296875 10.48046875 C7.25816406 11.37378906 7.22335937 12.26710938 7.1875 13.1875 C7.16042969 14.08855469 7.13335938 14.98960938 7.10546875 15.91796875 C7.07066406 16.60503906 7.03585937 17.29210937 7 18 C7.66 17.34 8.32 16.68 9 16 C9 18.31 9 20.62 9 23 C9.66 23 10.32 23 11 23 C10.67 24.98 10.34 26.96 10 29 C10.66 29 11.32 29 12 29 C13.89588506 44.57214102 15.30865809 59.99498 15.3125 75.6875 C15.31765625 76.95537354 15.3228125 78.22324707 15.328125 79.52954102 C15.21244744 95.05408881 15.21244744 95.05408881 13 101 C10.9230957 102.79956055 10.9230957 102.79956055 9 104 C9 97 9 90 9 83 C8.95101562 84.18078125 8.90203125 85.3615625 8.8515625 86.578125 C8.77651121 88.13543937 8.70096439 89.69272991 8.625 91.25 C8.5940625 92.02730469 8.563125 92.80460937 8.53125 93.60546875 C8.16618114 100.72431144 8.16618114 100.72431144 6 104 C3 102 3 102 2.0859375 98.66796875 C1.82962751 97.177675 1.5944136 95.68367109 1.375 94.1875 C1.24947754 93.36942871 1.12395508 92.55135742 0.99462891 91.70849609 C-0.41612494 81.50522356 -0.55834322 71.22930611 -0.7890625 60.9453125 C-0.94912222 54.27364665 -1.41785495 47.64696255 -2 41 C-1.34 41.33 -0.68 41.66 0 42 C0 28.14 0 14.28 0 0 Z " fill="#00C7E1" transform="translate(652,93)"/>
<path d="M0 0 C1.21465942 -0.00637985 2.42931885 -0.0127597 3.68078613 -0.01933289 C4.99848999 -0.02044571 6.31619385 -0.02155853 7.67382812 -0.02270508 C9.03381384 -0.02591708 10.3937992 -0.02928111 11.75378418 -0.03279114 C14.60523276 -0.03878233 17.45665103 -0.040631 20.30810547 -0.04003906 C23.96688434 -0.03993733 27.62546964 -0.05360134 31.28420258 -0.07081127 C34.09284361 -0.0819129 36.90143753 -0.08395886 39.71009827 -0.08342934 C41.7165368 -0.08518773 43.72296064 -0.0960383 45.72937012 -0.10697937 C47.55135925 -0.10236443 47.55135925 -0.10236443 49.41015625 -0.09765625 C50.48334106 -0.09908127 51.55652588 -0.10050629 52.66223145 -0.10197449 C55.20507812 0.14526367 55.20507812 0.14526367 57.20507812 2.14526367 C57.43554688 4.67651367 57.43554688 4.67651367 57.39257812 7.64526367 C57.38613281 8.62495117 57.3796875 9.60463867 57.37304688 10.61401367 C57.20507812 13.14526367 57.20507812 13.14526367 56.20507812 15.14526367 C40.36507812 15.14526367 24.52507813 15.14526367 8.20507812 15.14526367 C8.20507812 24.71526367 8.20507812 34.28526367 8.20507812 44.14526367 C12.95205078 44.12786133 12.95205078 44.12786133 17.79492188 44.11010742 C20.84627177 44.10231773 23.89762057 44.09624047 26.94897461 44.09033203 C29.07625827 44.08529069 31.20353844 44.07845776 33.33081055 44.06982422 C36.38135638 44.05774988 39.43185658 44.05203353 42.48242188 44.04760742 C43.91834938 44.03986549 43.91834938 44.03986549 45.38328552 44.03196716 C46.70454185 44.03185387 46.70454185 44.03185387 48.05249023 44.03173828 C49.22164223 44.02840736 49.22164223 44.02840736 50.41441345 44.02500916 C52.20507812 44.14526367 52.20507812 44.14526367 53.20507812 45.14526367 C53.3299557 46.95453648 53.38078658 48.76922474 53.39257812 50.58276367 C53.40675781 51.57147461 53.4209375 52.56018555 53.43554688 53.57885742 C53.20507812 56.14526367 53.20507812 56.14526367 51.20507812 58.14526367 C49.3321228 58.38577271 49.3321228 58.38577271 47.03076172 58.37231445 C45.73964981 58.37208786 45.73964981 58.37208786 44.42245483 58.37185669 C43.4922049 58.36153412 42.56195496 58.35121155 41.60351562 58.34057617 C40.65191559 58.33774628 39.70031555 58.33491638 38.71987915 58.33200073 C35.6731522 58.32078356 32.62671659 58.2956763 29.58007812 58.27026367 C27.51758236 58.26023585 25.455082 58.25110966 23.39257812 58.24291992 C18.32987491 58.22253867 13.26780357 58.18339298 8.20507812 58.14526367 C8.20507812 68.04526367 8.20507812 77.94526367 8.20507812 88.14526367 C11.73066406 88.13366211 15.25625 88.12206055 18.88867188 88.11010742 C22.28751536 88.10231804 25.68635787 88.0962406 29.08520508 88.09033203 C31.45500124 88.08529026 33.82479428 88.07845702 36.19458008 88.06982422 C39.59261851 88.05775177 42.99061598 88.05203396 46.38867188 88.04760742 C47.45532578 88.04244614 48.52197968 88.03728485 49.62095642 88.03196716 C51.09236839 88.03185387 51.09236839 88.03185387 52.59350586 88.03173828 C53.46176498 88.02951767 54.33002411 88.02729706 55.22459412 88.02500916 C57.20507812 88.14526367 57.20507812 88.14526367 58.20507812 89.14526367 C58.3299557 90.95453648 58.38078658 92.76922474 58.39257812 94.58276367 C58.40675781 95.57147461 58.4209375 96.56018555 58.43554688 97.57885742 C58.20507812 100.14526367 58.20507812 100.14526367 56.20507812 102.14526367 C53.57957458 102.39250183 53.57957458 102.39250183 50.21069336 102.38818359 C48.95276474 102.39126022 47.69483612 102.39433685 46.39878845 102.39750671 C45.02041441 102.39060949 43.64204217 102.38334256 42.26367188 102.37573242 C40.85645083 102.37454072 39.44922898 102.37408744 38.04200745 102.37434387 C35.09216333 102.3727788 32.14244055 102.36448666 29.19262695 102.35107422 C25.40375984 102.33406871 21.61502595 102.3302603 17.82612514 102.3310194 C14.92058531 102.33074804 12.01507484 102.3252726 9.10954475 102.31801796 C7.71203903 102.31482701 6.31452997 102.3128629 4.9170208 102.31212425 C2.96802455 102.30996609 1.01904061 102.3004368 -0.92993164 102.29052734 C-2.04086685 102.28671555 -3.15180206 102.28290375 -4.29640198 102.27897644 C-6.79492188 102.14526367 -6.79492188 102.14526367 -7.79492188 101.14526367 C-7.89025841 98.04019117 -7.92043314 94.9573991 -7.90844727 91.85205078 C-7.90859329 90.8765477 -7.90873932 89.90104462 -7.90888977 88.89598083 C-7.90819021 85.65483415 -7.90039578 82.41374414 -7.89257812 79.17260742 C-7.8907141 76.93201224 -7.88929012 74.69141666 -7.88829041 72.45082092 C-7.884464 66.54066857 -7.87463268 60.63054063 -7.86358643 54.72039795 C-7.85337493 48.69470551 -7.84879335 42.66900914 -7.84375 36.64331055 C-7.83301052 24.81061751 -7.81593264 12.97794262 -7.79492188 1.14526367 C-5.1043007 -0.20004692 -3.01260857 0.01070035 0 0 Z M-6.79492188 2.14526367 C-6.79492188 34.48526367 -6.79492188 66.82526367 -6.79492188 100.14526367 C13.99507812 100.14526367 34.78507813 100.14526367 56.20507812 100.14526367 C56.20507812 96.51526367 56.20507812 92.88526367 56.20507812 89.14526367 C39.70507812 89.14526367 23.20507812 89.14526367 6.20507812 89.14526367 C6.20507812 78.25526367 6.20507812 67.36526367 6.20507812 56.14526367 C21.05507813 56.14526367 35.90507813 56.14526367 51.20507812 56.14526367 C51.20507812 52.84526367 51.20507812 49.54526367 51.20507812 46.14526367 C36.35507812 46.14526367 21.50507812 46.14526367 6.20507812 46.14526367 C6.20507812 35.25526367 6.20507812 24.36526367 6.20507812 13.14526367 C22.37507812 13.14526367 38.54507813 13.14526367 55.20507812 13.14526367 C55.20507812 9.51526367 55.20507812 5.88526367 55.20507812 2.14526367 C34.74507812 2.14526367 14.28507813 2.14526367 -6.79492188 2.14526367 Z " fill="#000101" transform="translate(538.794921875,246.854736328125)"/>
<path d="M0 0 C0.66 0 1.32 0 2 0 C2.30703857 0.84071045 2.61407715 1.6814209 2.93041992 2.54760742 C4.09442262 5.73314945 5.25942167 8.91832368 6.42504883 12.10327148 C6.92478364 13.46934133 7.4241461 14.83554746 7.9230957 16.2019043 C8.64951902 18.19097277 9.3771295 20.17960107 10.10546875 22.16796875 C10.34506317 22.82248016 10.58465759 23.47699158 10.83151245 24.15133667 C12.84814821 29.63714645 14.96085354 35.08168824 17.1105957 40.5168457 C18 43 18 43 18 45 C6.78 45 -4.44 45 -16 45 C-14.10269958 38.67566526 -12.18196686 32.52420817 -9.86328125 26.3671875 C-9.57897751 25.6044754 -9.29467377 24.84176331 -9.00175476 24.05593872 C-8.10832363 21.66116376 -7.21050321 19.26806372 -6.3125 16.875 C-5.69957623 15.23448465 -5.08694362 13.59386048 -4.47460938 11.953125 C-2.98642724 7.96748737 -1.49431106 3.98334358 0 0 Z " fill="#0E0F0E" transform="translate(151,265)"/>
<path d="M0 0 C0.67880722 -0.00189835 1.35761444 -0.00379669 2.05699158 -0.00575256 C4.28266243 -0.00943318 6.50800114 0.00120249 8.73364258 0.01245117 C10.28729718 0.01364435 11.84095251 0.01409584 13.39460754 0.01383972 C16.64169873 0.01539975 19.88867891 0.02365456 23.13574219 0.03710938 C27.29870921 0.05414104 31.46155494 0.05792221 35.62455273 0.05716419 C38.82869119 0.05743594 42.03280311 0.06291717 45.23693275 0.07016563 C46.77234001 0.07334757 48.30775026 0.0753186 49.84316063 0.07605934 C51.98533646 0.07822554 54.12738314 0.08697458 56.26953125 0.09765625 C57.48831467 0.10146805 58.70709808 0.10527985 59.96281433 0.10920715 C62.94067383 0.24291992 62.94067383 0.24291992 65.94067383 1.24291992 C65.96752795 3.55535784 65.98700224 5.86788262 66.00317383 8.18041992 C66.01477539 9.46819336 66.02637695 10.7559668 66.03833008 12.08276367 C65.94067383 15.24291992 65.94067383 15.24291992 64.94067383 16.24291992 C62.72212119 16.33075534 60.50078887 16.34986601 58.28051758 16.34057617 C57.28381798 16.33845375 57.28381798 16.33845375 56.26698303 16.33628845 C54.13733484 16.3306751 52.00779043 16.31812046 49.87817383 16.30541992 C48.43742013 16.30040664 46.9966648 16.29584343 45.5559082 16.29174805 C42.01746281 16.28070137 38.47907844 16.26342784 34.94067383 16.24291992 C34.94289444 17.30558578 34.94511505 18.36825165 34.94740295 19.46311951 C34.96763385 29.45506883 34.98264571 39.44701403 34.992486 49.43897915 C34.99771496 54.57651558 35.00481284 59.71403555 35.01611328 64.8515625 C35.0269417 69.80523402 35.03295056 74.75888966 35.03555107 79.7125721 C35.0374054 81.60689609 35.04102617 83.50121916 35.04640388 85.39553642 C35.05361372 88.03926378 35.0546648 90.68292463 35.05419922 93.32666016 C35.05779449 94.11787766 35.06138977 94.90909515 35.06509399 95.72428894 C35.05472599 101.12886776 35.05472599 101.12886776 33.94067383 102.24291992 C31.63074 102.36849155 29.31648846 102.41867721 27.00317383 102.43041992 C25.73602539 102.44459961 24.46887695 102.4587793 23.16333008 102.47338867 C19.94067383 102.24291992 19.94067383 102.24291992 17.94067383 100.24291992 C17.74751277 97.63339188 17.67836281 95.13045171 17.69775391 92.52026367 C17.69585556 91.72339142 17.69395721 90.92651917 17.69200134 90.10549927 C17.6882878 87.463707 17.69900598 84.82218788 17.71020508 82.18041992 C17.71139668 80.3496097 17.71185008 78.51879887 17.71159363 76.68798828 C17.7131595 72.84786155 17.721457 69.00782792 17.73486328 65.16772461 C17.75185326 60.23778271 17.75567767 55.30794321 17.7549181 50.37797546 C17.75518964 46.59654762 17.76066825 42.81514229 17.76791954 39.03372192 C17.77110861 37.21558808 17.77307417 35.39745168 17.77381325 33.57931519 C17.77597429 31.04135769 17.78471342 28.50351016 17.79541016 25.96557617 C17.79473038 24.8309343 17.79473038 24.8309343 17.79403687 23.67337036 C17.82619643 18.47187473 17.82619643 18.47187473 18.94067383 16.24291992 C18.0423584 16.25339355 17.14404297 16.26386719 16.21850586 16.2746582 C12.89002936 16.30871463 9.56173761 16.3338061 6.2331543 16.3527832 C4.79171836 16.36284955 3.35030288 16.37650373 1.90893555 16.39379883 C-0.16126551 16.41802004 -2.23119693 16.42939634 -4.30151367 16.43823242 C-6.17105713 16.45394287 -6.17105713 16.45394287 -8.07836914 16.4699707 C-11.05932617 16.24291992 -11.05932617 16.24291992 -13.05932617 14.24291992 C-13.25463867 11.42260742 -13.25463867 11.42260742 -13.18432617 8.11791992 C-13.1662793 7.0222168 -13.14823242 5.92651367 -13.12963867 4.79760742 C-13.10643555 3.95456055 -13.08323242 3.11151367 -13.05932617 2.24291992 C-8.55037498 0.50753312 -4.82041051 -0.00562507 0 0 Z M-11.05932617 2.24291992 C-11.05932617 6.20291992 -11.05932617 10.16291992 -11.05932617 14.24291992 C-0.82932617 14.24291992 9.40067383 14.24291992 19.94067383 14.24291992 C19.94067383 42.62291992 19.94067383 71.00291992 19.94067383 100.24291992 C24.23067383 100.24291992 28.52067383 100.24291992 32.94067383 100.24291992 C32.94067383 71.86291992 32.94067383 43.48291992 32.94067383 14.24291992 C43.50067383 14.24291992 54.06067383 14.24291992 64.94067383 14.24291992 C64.94067383 10.28291992 64.94067383 6.32291992 64.94067383 2.24291992 C39.86067383 2.24291992 14.78067383 2.24291992 -11.05932617 2.24291992 Z " fill="#010101" transform="translate(212.059326171875,246.757080078125)"/>
<path d="M0 0 C0 0.33 0 0.66 0 1 C-12.54 1 -25.08 1 -38 1 C-38 33.34 -38 65.68 -38 99 C-17.21 99 3.58 99 25 99 C25 95.37 25 91.74 25 88 C9.16 88 -6.68 88 -23 88 C-23 87.67 -23 87.34 -23 87 C-16.03996553 86.97473162 -9.0799428 86.95716778 -2.11987305 86.94506836 C0.24992312 86.94002659 2.61971615 86.93319335 4.98950195 86.92456055 C8.38754039 86.9124881 11.78553785 86.90677029 15.18359375 86.90234375 C16.25024765 86.89718246 17.31690155 86.89202118 18.4158783 86.88670349 C19.88729027 86.88659019 19.88729027 86.88659019 21.38842773 86.88647461 C22.25668686 86.884254 23.12494598 86.88203339 24.01951599 86.87974548 C26 87 26 87 27 88 C27.09873816 89.99799572 27.12971799 91.99957158 27.125 94 C27.12886719 95.6396875 27.12886719 95.6396875 27.1328125 97.3125 C27 100 27 100 26 101 C23.98049791 101.09935148 21.95749085 101.12799508 19.93554688 101.12939453 C17.98847839 101.13412277 17.98847839 101.13412277 16.0020752 101.13894653 C14.57429979 101.13715675 13.14652469 101.1351058 11.71875 101.1328125 C10.26525862 101.13348558 8.81176736 101.13445564 7.35827637 101.13571167 C4.30833873 101.13718846 1.25843034 101.1350347 -1.79150391 101.13037109 C-5.70930559 101.1246738 -9.62703878 101.12795291 -13.54483795 101.13394356 C-16.54730754 101.13754969 -19.54976077 101.13641035 -22.55223083 101.13381577 C-23.99718738 101.13314664 -25.44214539 101.13397442 -26.88710022 101.13629532 C-28.90324883 101.13882265 -30.91940262 101.13429052 -32.93554688 101.12939453 C-34.65976868 101.12820114 -34.65976868 101.12820114 -36.41882324 101.12698364 C-39 101 -39 101 -40 100 C-40.11131983 96.93627357 -40.15740507 93.89488305 -40.16113281 90.83032227 C-40.16609772 89.86778534 -40.17106262 88.90524841 -40.17617798 87.9135437 C-40.19083962 84.71449074 -40.19760782 81.51548735 -40.203125 78.31640625 C-40.20887262 76.10302223 -40.2146304 73.88963824 -40.22039795 71.67625427 C-40.23091898 67.02985399 -40.2367546 62.38347107 -40.24023438 57.73706055 C-40.24572508 51.77008803 -40.26976088 45.80334304 -40.29820633 39.83644199 C-40.31678689 35.26323262 -40.32203583 30.69007858 -40.32357025 26.11683464 C-40.32660708 23.91630749 -40.33466998 21.71578155 -40.34775543 19.51529121 C-40.36472231 16.44303969 -40.3629588 13.37135102 -40.35644531 10.29907227 C-40.3656601 9.38211075 -40.37487488 8.46514923 -40.3843689 7.520401 C-40.37879974 6.68609558 -40.37323059 5.85179016 -40.36749268 4.99220276 C-40.36895924 4.26528512 -40.3704258 3.53836748 -40.3719368 2.78942204 C-38.68739814 -5.31504791 -6.98059397 -0.35969622 0 0 Z " fill="#000000" transform="translate(340,248)"/>
<path d="M0 0 C2.84568028 2.84568028 2.63299803 5.91589406 3 9.75 C3.16372895 11.30616254 3.32911616 12.86215144 3.49609375 14.41796875 C3.57843262 15.19446777 3.66077148 15.9709668 3.74560547 16.77099609 C4.10062192 19.88164883 4.58084675 22.96921582 5.0625 26.0625 C6.70396141 37.30715693 7.21658211 48.64147135 7 60 C6.67 58.68 6.34 57.36 6 56 C5.01 56 4.02 56 3 56 C3 63.59 3 71.18 3 79 C4.98 78.505 4.98 78.505 7 78 C6.83628906 77.43796875 6.67257812 76.8759375 6.50390625 76.296875 C5.97135003 73.86940944 5.90101319 71.73110319 5.9375 69.25 C5.94652344 68.45078125 5.95554687 67.6515625 5.96484375 66.828125 C5.98224609 65.92320312 5.98224609 65.92320312 6 65 C6.33 65 6.66 65 7 65 C8.12717304 72.09978469 8.18382685 79.01384275 8.1875 86.1875 C8.19974609 87.45787109 8.21199219 88.72824219 8.22460938 90.03710938 C8.22750977 91.86532227 8.22750977 91.86532227 8.23046875 93.73046875 C8.23457764 94.83801514 8.23868652 95.94556152 8.24291992 97.08666992 C8.00508727 99.9389886 7.4802893 101.58467536 6 104 C3 102 3 102 2.0859375 98.66796875 C1.82962751 97.177675 1.5944136 95.68367109 1.375 94.1875 C1.24947754 93.36942871 1.12395508 92.55135742 0.99462891 91.70849609 C-0.41612494 81.50522356 -0.55834322 71.22930611 -0.7890625 60.9453125 C-0.94912222 54.27364665 -1.41785495 47.64696255 -2 41 C-1.34 41.33 -0.68 41.66 0 42 C0 28.14 0 14.28 0 0 Z " fill="#01D8E9" transform="translate(652,93)"/>
<path d="M0 0 C2.00636471 0.29259485 4.00714063 0.62633887 6 1 C6.33 1 6.66 1 7 1 C12.66666667 1 18.33333333 1 24 1 C23.01 1.33 22.02 1.66 21 2 C21 2.66 21 3.32 21 4 C22.65 4 24.3 4 26 4 C26 3.34 26 2.68 26 2 C27.95803507 1.94610913 29.91648909 1.90725783 31.875 1.875 C33.51082031 1.84019531 33.51082031 1.84019531 35.1796875 1.8046875 C38 2 38 2 40 4 C42.22779855 4.32403533 42.22779855 4.32403533 44.83496094 4.30297852 C45.84492126 4.31962051 46.85488159 4.33626251 47.89544678 4.35340881 C48.99729309 4.36182297 50.0991394 4.37023712 51.234375 4.37890625 C52.37795471 4.39590073 53.52153442 4.4128952 54.69976807 4.43040466 C58.38312133 4.48366907 62.06646784 4.52374878 65.75 4.5625 C70.53653108 4.62142998 75.32296226 4.68607179 80.109375 4.75390625 C81.27786987 4.76982819 82.44636475 4.78575012 83.65026855 4.80215454 C94.44604911 4.96791801 105.21901979 5.42594244 116 6 C116 6.33 116 6.66 116 7 C100.54892437 7.88240873 85.25713363 8.01642254 69.79296875 7.51171875 C67.64611971 7.44725784 65.49925332 7.38337268 63.35237122 7.32002258 C58.89089929 7.18654518 54.42965817 7.0473191 49.96850586 6.90356445 C44.3314308 6.72221791 38.69405877 6.55383931 33.05647087 6.38931084 C-11.37425957 5.08465193 -11.37425957 5.08465193 -33 3 C-33 2.34 -33 1.68 -33 1 C-32.03586182 1.00523682 -31.07172363 1.01047363 -30.07836914 1.01586914 C-26.51327436 1.03392118 -22.94818364 1.04543274 -19.38305664 1.05493164 C-17.83780234 1.0599714 -16.29255284 1.0668032 -14.74731445 1.07543945 C-12.53074971 1.08752076 -10.31424782 1.09323173 -8.09765625 1.09765625 C-7.05545677 1.10539818 -7.05545677 1.10539818 -5.99220276 1.11329651 C-4.3277067 1.11349277 -2.66334501 1.06189129 -1 1 C-0.67 0.67 -0.34 0.34 0 0 Z " fill="#00EAF6" transform="translate(227,578)"/>
<path d="M0 0 C8.58428456 -0.31643081 16.7200886 0.64886589 25.1875 2 C27.0447168 2.28617188 27.0447168 2.28617188 28.93945312 2.578125 C31.96085745 3.04475115 34.980883 3.51883523 38 4 C38 4.33 38 4.66 38 5 C33.71 5 29.42 5 25 5 C25 5.66 25 6.32 25 7 C25.83249268 7.11069824 26.66498535 7.22139648 27.52270508 7.33544922 C30.61538395 7.75045507 33.70700984 8.17242468 36.7980957 8.59912109 C38.13528125 8.78225279 39.47284898 8.96261625 40.81079102 9.14013672 C42.73552433 9.39600546 44.6588073 9.6627104 46.58203125 9.9296875 C47.73936768 10.08679199 48.8967041 10.24389648 50.08911133 10.40576172 C53 11 53 11 56 13 C50.69474494 12.53761538 45.39382097 12.04561198 40.09765625 11.48828125 C39.22850586 11.39788574 38.35935547 11.30749023 37.46386719 11.21435547 C35.72848678 11.03314724 33.99344046 10.8487033 32.25878906 10.66064453 C22.25441164 9.18939173 22.25441164 9.18939173 13 12 C12.01 11.34 11.02 10.68 10 10 C9.01 10.33 8.02 10.66 7 11 C7 11.66 7 12.32 7 13 C5.5629191 13.05422947 4.12524538 13.09289723 2.6875 13.125 C1.88699219 13.14820313 1.08648438 13.17140625 0.26171875 13.1953125 C-2.46782984 12.95960019 -4.04901868 11.95098132 -6 10 C-9.12227655 9.76272205 -12.23680294 9.60446344 -15.36523438 9.48242188 C-19.30213705 9.27845722 -21.37888595 8.81055702 -25 7 C-18.4 7 -11.8 7 -5 7 C-10.28 6.34 -15.56 5.68 -21 5 C-21 4.67 -21 4.34 -21 4 C-12.45431197 3.90983448 -4.02286336 3.85094203 4.484375 4.77734375 C8.65393005 5.14638822 12.81825885 5.0816392 17 5 C15.83232386 3.60096525 15.83232386 3.60096525 12.578125 3.9375 C10.41121219 3.96157681 8.2448158 4.00009324 6.078125 4.0390625 C2.24311814 4.08136037 -1.27368035 3.93891519 -5 3 C-5 2.67 -5 2.34 -5 2 C-3.22925083 1.97294271 -1.45838289 1.95357805 0.3125 1.9375 C1.29863281 1.92589844 2.28476562 1.91429687 3.30078125 1.90234375 C6 2 6 2 9 3 C9 2.34 9 1.68 9 1 C6.03 1 3.06 1 0 1 C0 0.67 0 0.34 0 0 Z " fill="#057C8E" transform="translate(583,31)"/>
<path d="M0 0 C0.33 0 0.66 0 1 0 C1 2.31 1 4.62 1 7 C1.66 7 2.32 7 3 7 C2.67 8.98 2.34 10.96 2 13 C2.66 13 3.32 13 4 13 C5.89588506 28.57214102 7.30865809 43.99498 7.3125 59.6875 C7.32023438 61.5893103 7.32023438 61.5893103 7.328125 63.52954102 C7.21244744 79.05408881 7.21244744 79.05408881 5 85 C3.68 85.99 2.36 86.98 1 88 C1 82.72 1 77.44 1 72 C1.99 72 2.98 72 4 72 C3.42978625 65.04339229 1.98697306 58.68572695 0 52 C0.495 51.505 0.495 51.505 1 51 C1.10049727 48.849548 1.13081745 46.69576682 1.1328125 44.54296875 C1.13376923 43.88476639 1.13472595 43.22656403 1.13571167 42.54841614 C1.13639433 41.14531357 1.13453411 39.74220788 1.13037109 38.33911133 C1.12511723 36.234461 1.13026355 34.13003342 1.13671875 32.02539062 C1.13997289 24.82222334 0.93556971 17.69431849 0.22045898 10.51977539 C-0.08759938 6.99876721 -0.06792328 3.5320108 0 0 Z " fill="#00D1E5" transform="translate(660,109)"/>
<path d="M0 0 C15.36492438 -0.48863717 30.33967592 1.85191089 45.5 4.0625 C46.70027832 4.2368457 47.90055664 4.41119141 49.13720703 4.59082031 C50.8172583 4.8417041 50.8172583 4.8417041 52.53125 5.09765625 C53.53736328 5.24726807 54.54347656 5.39687988 55.58007812 5.55102539 C58 6 58 6 60 7 C60.495 8.485 60.495 8.485 61 10 C61 8.68 61 7.36 61 6 C56.545 5.01 56.545 5.01 52 4 C52 3.67 52 3.34 52 3 C60.37495014 3.38612648 68.00269231 4.45175967 76 7 C73.79480314 7.56302899 71.61213244 8.07387953 69.375 8.5 C66.99712092 8.89587313 66.99712092 8.89587313 65 10 C65.99 10.99 65.99 10.99 67 12 C55.64759062 11.19964461 44.32619427 10.10354495 33 9 C33 8.34 33 7.68 33 7 C34.65 6.67 36.3 6.34 38 6 C31.07 5.01 24.14 4.02 17 3 C17 3.66 17 4.32 17 5 C13.83308393 4.85929844 10.66653622 4.71148731 7.5 4.5625 C6.613125 4.52318359 5.72625 4.48386719 4.8125 4.44335938 C-0.50615127 4.18915913 -5.7256256 3.73323663 -11 3 C-11 2.67 -11 2.34 -11 2 C-8.70839681 1.97307516 -6.41670454 1.95363876 -4.125 1.9375 C-2.84882812 1.92589844 -1.57265625 1.91429688 -0.2578125 1.90234375 C3 2 3 2 5 3 C5 2.34 5 1.68 5 1 C3.35 1 1.7 1 0 1 C0 0.67 0 0.34 0 0 Z " fill="#03DFEE" transform="translate(575,29)"/>
<path d="M0 0 C0.69681885 0.05566635 1.3936377 0.1113327 2.11157227 0.16868591 C10.76040097 0.91346077 19.35009508 2.16115819 27.9375 3.41015625 C29.59887705 3.64705511 31.26033519 3.88338601 32.921875 4.11914062 C36.92804378 4.68880154 40.93305246 5.26602435 44.9375 5.84765625 C41.90810499 8.26210996 39.80445903 9.31057861 35.9375 9.84765625 C38.2475 10.50765625 40.5575 11.16765625 42.9375 11.84765625 C41.9475 12.17765625 40.9575 12.50765625 39.9375 12.84765625 C39.9375 13.83765625 39.9375 14.82765625 39.9375 15.84765625 C39.2775 15.51765625 38.6175 15.18765625 37.9375 14.84765625 C38.2675 14.18765625 38.5975 13.52765625 38.9375 12.84765625 C34.26465531 12.16930883 29.59137974 11.49403009 24.91772461 10.82128906 C23.33623005 10.59323956 21.75484495 10.3644293 20.17358398 10.13476562 C9.1127201 8.52898596 -1.95577079 7.09814714 -13.0625 5.84765625 C-13.0625 5.51765625 -13.0625 5.18765625 -13.0625 4.84765625 C-0.66111471 5.41068211 11.59875468 6.46645342 23.9375 7.84765625 C12.3875 6.19765625 0.8375 4.54765625 -11.0625 2.84765625 C-6.43889891 -0.62004457 -5.53005841 -0.45603292 0 0 Z " fill="#08151D" transform="translate(596.0625,23.15234375)"/>
<path d="M0 0 C17.90374015 -0.14582562 35.73815326 0.24489583 53.625 1 C56.01169938 1.09683273 58.39841816 1.19318861 60.78515625 1.2890625 C66.52367125 1.52058262 72.26192447 1.75784358 78 2 C78 2.33 78 2.66 78 3 C69.42 3 60.84 3 52 3 C52 3.66 52 4.32 52 5 C51.34 4.67 50.68 4.34 50 4 C47.47266765 3.34444881 47.47266765 3.34444881 45 3 C44.67 3.33 44.34 3.66 44 4 C33.35336715 4.55948302 22.62390495 3.67453365 12 3 C12 3.66 12 4.32 12 5 C14.64 5 17.28 5 20 5 C20 5.33 20 5.66 20 6 C4.21880804 6.27958805 4.21880804 6.27958805 -3 5 C-3.33 4.34 -3.66 3.68 -4 3 C-3.01 2.67 -2.02 2.34 -1 2 C-0.67 1.34 -0.34 0.68 0 0 Z " fill="#070E19" transform="translate(182,576)"/>
<path d="M0 0 C9.47485755 -0.27727533 18.77191625 0.59009492 28.1875 1.5 C29.72716967 1.64499786 31.26688305 1.78953242 32.80664062 1.93359375 C36.53827871 2.28373048 40.2692888 2.64010585 44 3 C41.0228196 4.98478693 39.4358615 5.45406619 36 6.0625 C33.20869559 6.56510094 30.6984093 7.10053023 28 8 C25.52543893 7.91017401 23.09041871 7.76361103 20.625 7.5625 C13.40571641 7.03492427 6.24043149 6.88841801 -1 7 C-1 6.34 -1 5.68 -1 5 C-2.32 4.67 -3.64 4.34 -5 4 C-4 3 -4 3 -1.04296875 2.8671875 C19.72782875 2.90927625 19.72782875 2.90927625 26 5 C26 4.34 26 3.68 26 3 C25.36835937 3.01160156 24.73671875 3.02320313 24.0859375 3.03515625 C16.41442233 3.11253465 8.59833197 3.13439886 1 2 C0.67 1.34 0.34 0.68 0 0 Z " fill="#071621" transform="translate(578,48)"/>
<path d="M0 0 C2.66673742 -0.02727345 5.33318869 -0.04696948 8 -0.0625 C8.74378906 -0.07087891 9.48757813 -0.07925781 10.25390625 -0.08789062 C15.26148844 -0.10966272 20.04279032 0.28458451 25 1 C23.02 1.99 23.02 1.99 21 3 C21.91265625 2.96519531 21.91265625 2.96519531 22.84375 2.9296875 C31.36191464 2.75431352 39.58667237 3.81770051 48 5 C48 5.33 48 5.66 48 6 C45.20826945 6.02690104 42.41679652 6.04679053 39.625 6.0625 C38.43390625 6.07506836 38.43390625 6.07506836 37.21875 6.08789062 C31.2265625 6.11328125 31.2265625 6.11328125 29 5 C29 5.66 29 6.32 29 7 C29.85440674 6.97389648 29.85440674 6.97389648 30.72607422 6.94726562 C37.95847559 6.82636578 44.95952036 7.57515321 52.125 8.5 C53.27226563 8.64308594 54.41953125 8.78617188 55.6015625 8.93359375 C58.40177471 9.28362028 61.20116048 9.6391896 64 10 C64 10.33 64 10.66 64 11 C57.09940799 11.08772677 50.2802503 10.8395528 43.3984375 10.34375 C42.435961 10.27716187 41.4734845 10.21057373 40.48184204 10.14196777 C37.44599294 9.93120022 34.41050333 9.71568431 31.375 9.5 C29.30080328 9.35515296 27.22658468 9.21061881 25.15234375 9.06640625 C20.10130263 8.71455091 15.05057792 8.35844041 10 8 C10.33 7.34 10.66 6.68 11 6 C11.66 6 12.32 6 13 6 C13 5.01 13 4.02 13 3 C13.99 2.67 14.98 2.34 16 2 C10.72 1.67 5.44 1.34 0 1 C0 0.67 0 0.34 0 0 Z " fill="#03E3EF" transform="translate(560,40)"/>
<path d="M0 0 C1.3423986 0.05843573 2.68484724 0.11573364 4.02734375 0.171875 C7.26889697 0.31179816 10.50948603 0.46303832 13.75 0.625 C14.245 2.11 14.245 2.11 14.75 3.625 C22.67 3.625 30.59 3.625 38.75 3.625 C38.75 3.955 38.75 4.285 38.75 4.625 C32.29452371 4.65060061 25.83906076 4.66797078 19.38354492 4.67993164 C17.19278474 4.68492418 15.00202782 4.69172055 12.8112793 4.70043945 C-10.03380667 4.78900649 -10.03380667 4.78900649 -21.25 3.625 C-21.58 3.625 -21.91 3.625 -22.25 3.625 C-23.91666667 3.625 -25.58333333 3.625 -27.25 3.625 C-27.25 2.965 -27.25 2.305 -27.25 1.625 C-18.03204753 -0.36381957 -9.39014901 -0.47186678 0 0 Z " fill="#00BED9" transform="translate(275.25,578.375)"/>
<path d="M0 0 C0.33 0 0.66 0 1 0 C1.33 10.23 1.66 20.46 2 31 C5.23683594 30.98839844 8.47367187 30.97679687 11.80859375 30.96484375 C14.92944236 30.95705413 18.05028991 30.95097683 21.17114258 30.94506836 C23.34692873 30.94002692 25.52271147 30.93319393 27.69848633 30.92456055 C30.81853067 30.91248662 33.93853038 30.90676995 37.05859375 30.90234375 C38.52733192 30.89460182 38.52733192 30.89460182 40.02574158 30.88670349 C41.37702904 30.88659019 41.37702904 30.88659019 42.75561523 30.88647461 C43.95141457 30.88314369 43.95141457 30.88314369 45.17137146 30.87974548 C47 31 47 31 48 32 C48.07205511 33.68608966 48.08386068 35.37500659 48.0625 37.0625 C48.05347656 37.98160156 48.04445313 38.90070313 48.03515625 39.84765625 C48.02355469 40.55792969 48.01195312 41.26820313 48 42 C47.01 42.495 47.01 42.495 46 43 C46 39.7 46 36.4 46 33 C30.82 33 15.64 33 0 33 C0 22.11 0 11.22 0 0 Z " fill="#1C1C1C" transform="translate(314,260)"/>
<path d="M0 0 C1.49609375 1.20703125 1.49609375 1.20703125 3 3 C3.22265625 5.19921875 3.22265625 5.19921875 3.0625 7.6875 C2.95680066 11.00742011 3.0381452 13.80012167 3.9375 17 C6.05889047 24.61293318 6.09152756 32.33422841 6.125 40.1875 C6.12967285 40.94788574 6.1343457 41.70827148 6.13916016 42.49169922 C6.12610742 47.09529923 5.75793131 51.45842747 5 56 C2.59895826 52.39843738 2.61418856 50.35460583 2.375 46.0625 C2.33560303 45.39009277 2.29620605 44.71768555 2.25561523 44.02490234 C2.04127462 40.04994389 1.99076223 36.10368726 2.0625 32.125 C2.13262021 26.36735182 1.44943565 20.8018952 0.71557617 15.10424805 C0.07300511 10.00837506 -0.18643719 5.12702281 0 0 Z " fill="#057C92" transform="translate(656,98)"/>
<path d="M0 0 C0.68191406 0.052771 1.36382813 0.10554199 2.06640625 0.15991211 C11.09953718 0.93657554 20.05650703 2.41801703 29 3.875 C29 4.865 29 5.855 29 6.875 C20.10655475 7.20898256 11.59975967 6.17356658 2.8125 4.875 C1.4655956 4.68158836 0.11859064 4.4888756 -1.22851562 4.296875 C-4.48672809 3.82974777 -7.74376042 3.35565407 -11 2.875 C-7.11275902 -0.33871956 -5.06966039 -0.40515729 0 0 Z " fill="#080A0E" transform="translate(596,23.125)"/>
<path d="M0 0 C2.42116821 3.63175232 2.25758646 5.36506246 2.265625 9.6875 C2.26753845 10.34524414 2.2694519 11.00298828 2.27142334 11.68066406 C2.27278405 13.07601299 2.2690955 14.47137463 2.26074219 15.86669922 C2.25017714 17.96482237 2.26056879 20.06206216 2.2734375 22.16015625 C2.29645798 39.01114416 2.29645798 39.01114416 0 45 C-1.32 45.99 -2.64 46.98 -4 48 C-4 42.72 -4 37.44 -4 32 C-3.01 32 -2.02 32 -1 32 C-1 29.36 -1 26.72 -1 24 C-0.34 24 0.32 24 1 24 C0.67 16.08 0.34 8.16 0 0 Z " fill="#03DEEB" transform="translate(665,149)"/>
<path d="M0 0 C0.33 -0.66 0.66 -1.32 1 -2 C5.95 -1.67 10.9 -1.34 16 -1 C15.34 -0.67 14.68 -0.34 14 0 C14 0.99 14 1.98 14 3 C3.11 2.67 -7.78 2.34 -19 2 C-19 1.67 -19 1.34 -19 1 C-16.69 1 -14.38 1 -12 1 C-12 0.34 -12 -0.32 -12 -1 C-12.99 -0.505 -12.99 -0.505 -14 0 C-15.87379605 0.07033769 -17.75001102 0.0843022 -19.625 0.0625 C-20.62789062 0.05347656 -21.63078125 0.04445312 -22.6640625 0.03515625 C-23.43492187 0.02355469 -24.20578125 0.01195312 -25 0 C-25 -0.33 -25 -0.66 -25 -1 C-16.78221914 -2.9093357 -7.94329175 -2.95564344 0 0 Z " fill="#03A5C3" transform="translate(553,53)"/>
<path d="M0 0 C2.00720923 0.28674418 4.0085944 0.61866701 6 1 C5.67 1.66 5.34 2.32 5 3 C2.9375 3.625 2.9375 3.625 1 4 C1 4.33 1 4.66 1 5 C-3.1668836 4.85999343 -7.33344499 4.71194282 -11.5 4.5625 C-12.67304688 4.52318359 -13.84609375 4.48386719 -15.0546875 4.44335938 C-21.09570769 4.22276032 -27.0180985 3.88099787 -33 3 C-33 2.34 -33 1.68 -33 1 C-32.03586182 1.00523682 -31.07172363 1.01047363 -30.07836914 1.01586914 C-26.51327436 1.03392118 -22.94818364 1.04543274 -19.38305664 1.05493164 C-17.83780234 1.0599714 -16.29255284 1.0668032 -14.74731445 1.07543945 C-12.53074971 1.08752076 -10.31424782 1.09323173 -8.09765625 1.09765625 C-7.05545677 1.10539818 -7.05545677 1.10539818 -5.99220276 1.11329651 C-4.3277067 1.11349277 -2.66334501 1.06189129 -1 1 C-0.67 0.67 -0.34 0.34 0 0 Z " fill="#02D1E1" transform="translate(227,578)"/>
<path d="M0 0 C1.20628008 2.33214148 2.1654738 4.49642139 3 7 C3 5.02 3 3.04 3 1 C3.33 1 3.66 1 4 1 C6.06827652 8.61353757 6.23812461 15.70033991 6.125 23.5625 C6.11597656 24.76197266 6.10695312 25.96144531 6.09765625 27.19726562 C6.07427412 30.13172309 6.0415028 33.06575234 6 36 C3.92903293 34.30913835 3.07839281 33.35367129 2.49169922 30.70678711 C2.42998535 29.8225708 2.36827148 28.93835449 2.3046875 28.02734375 C2.22863281 27.04443359 2.15257812 26.06152344 2.07421875 25.04882812 C2.00847656 24.02208984 1.94273437 22.99535156 1.875 21.9375 C1.72713363 19.92573919 1.57870055 17.91401995 1.4296875 15.90234375 C1.36104492 14.92249512 1.29240234 13.94264648 1.22167969 12.93310547 C0.89522116 8.61364213 0.45802832 4.30725078 0 0 Z " fill="#01E6F3" transform="translate(167,397)"/>
<path d="M0 0 C8.37495014 0.38612648 16.00269231 1.45175967 24 4 C21.79480314 4.56302899 19.61213244 5.07387953 17.375 5.5 C14.99712092 5.89587313 14.99712092 5.89587313 13 7 C13.66 7.66 14.32 8.32 15 9 C10.71 8.67 6.42 8.34 2 8 C2 7.67 2 7.34 2 7 C0.35 6.67 -1.3 6.34 -3 6 C-1 4 -1 4 1.1640625 3.8046875 C2.38222656 3.83949219 2.38222656 3.83949219 3.625 3.875 C4.85089844 3.90207031 4.85089844 3.90207031 6.1015625 3.9296875 C7.04128906 3.96449219 7.04128906 3.96449219 8 4 C8.33 4.99 8.66 5.98 9 7 C9 5.68 9 4.36 9 3 C4.545 2.01 4.545 2.01 0 1 C0 0.67 0 0.34 0 0 Z " fill="#06788F" transform="translate(627,32)"/>
<path d="M0 0 C15.14090906 -1.26957933 29.35647119 2.51814914 44 6 C44 6.33 44 6.66 44 7 C19.11688312 4.55844156 19.11688312 4.55844156 16 3 C16 3.66 16 4.32 16 5 C14.18674449 4.88648483 12.37436643 4.75887039 10.5625 4.625 C9.04849609 4.52058594 9.04849609 4.52058594 7.50390625 4.4140625 C6.67761719 4.27742188 5.85132813 4.14078125 5 4 C4.67 3.34 4.34 2.68 4 2 C1.98330173 0.86649466 1.98330173 0.86649466 0 0 Z " fill="#04CEE5" transform="translate(609,19)"/>
<path d="M0 0 C2.27113803 0.14100857 4.54190725 0.28796755 6.8125 0.4375 C8.07707031 0.51871094 9.34164062 0.59992187 10.64453125 0.68359375 C14 1 14 1 17 2 C17 1.34 17 0.68 17 0 C22.67355671 0.61726196 28.33861055 1.27945952 34 2 C34 2.66 34 3.32 34 4 C34.99 4.33 35.98 4.66 37 5 C37 5.33 37 5.66 37 6 C27.69091528 6.5325112 19.05112972 4.88757029 10 3 C8.00024386 2.60293651 6.00028655 2.20688274 4 1.8125 C2.66645315 1.54271996 1.3330199 1.27237185 0 1 C0 0.67 0 0.34 0 0 Z " fill="#091017" transform="translate(608,22)"/>
<path d="M0 0 C0.33 0 0.66 0 1 0 C1 2.31 1 4.62 1 7 C1.66 7 2.32 7 3 7 C2.67 8.98 2.34 10.96 2 13 C2.66 13 3.32 13 4 13 C4.66 21.58 5.32 30.16 6 39 C5.505 37.515 5.505 37.515 5 36 C4.34 36 3.68 36 3 36 C2.67 37.32 2.34 38.64 2 40 C0.3764299 36.75285979 0.94508279 33.18811526 1 29.625 C1.05596961 23.22029602 0.8535148 16.94998067 0.22265625 10.5703125 C-0.0838831 7.03166521 -0.06825922 3.54947966 0 0 Z " fill="#01E9F4" transform="translate(660,109)"/>
<path d="M0 0 C8.06797851 0.01634849 16.00881705 0.29498662 24.04296875 1.1328125 C24.04296875 1.7928125 24.04296875 2.4528125 24.04296875 3.1328125 C26.68296875 3.1328125 29.32296875 3.1328125 32.04296875 3.1328125 C31.71296875 3.7928125 31.38296875 4.4528125 31.04296875 5.1328125 C29.89441406 5.060625 28.74585938 4.9884375 27.5625 4.9140625 C18.37236267 4.35765552 9.25300351 3.98636318 0.04296875 4.1328125 C0.04296875 3.4728125 0.04296875 2.8128125 0.04296875 2.1328125 C-1.27703125 1.8028125 -2.59703125 1.4728125 -3.95703125 1.1328125 C-2.95703125 0.1328125 -2.95703125 0.1328125 0 0 Z " fill="#073F4B" transform="translate(576.95703125,50.8671875)"/>
<path d="M0 0 C8.58428456 -0.31643081 16.7200886 0.64886589 25.1875 2 C27.0447168 2.28617188 27.0447168 2.28617188 28.93945312 2.578125 C31.96085745 3.04475115 34.980883 3.51883523 38 4 C38 4.33 38 4.66 38 5 C32.56778433 5.09456468 27.21853715 5.0833262 21.8125 4.5 C16.38481115 3.93608428 11.01863184 3.93873001 5.56958008 4.03710938 C1.90182314 4.0844294 -1.43456383 3.88103442 -5 3 C-5 2.67 -5 2.34 -5 2 C-3.22925083 1.97294271 -1.45838289 1.95357805 0.3125 1.9375 C1.29863281 1.92589844 2.28476562 1.91429687 3.30078125 1.90234375 C6 2 6 2 9 3 C9 2.34 9 1.68 9 1 C6.03 1 3.06 1 0 1 C0 0.67 0 0.34 0 0 Z " fill="#08253A" transform="translate(583,31)"/>
<path d="M0 0 C1.4540625 0.0309375 1.4540625 0.0309375 2.9375 0.0625 C-0.0625 6.0625 -0.0625 6.0625 -2.29296875 7.39453125 C-5.34230343 9.23101349 -7.75768309 11.34206844 -10.375 13.75 C-11.25800781 14.55824219 -12.14101562 15.36648437 -13.05078125 16.19921875 C-14.04658203 17.12154297 -14.04658203 17.12154297 -15.0625 18.0625 C-15.7225 17.4025 -16.3825 16.7425 -17.0625 16.0625 C-16.29164063 15.31484375 -15.52078125 14.5671875 -14.7265625 13.796875 C-13.71327644 12.80235349 -12.70027025 11.80754677 -11.6875 10.8125 C-11.17960938 10.32136719 -10.67171875 9.83023438 -10.1484375 9.32421875 C-7.53160671 6.74181995 -5.4839896 4.46782674 -4.0625 1.0625 C-3.0625 0.0625 -3.0625 0.0625 0 0 Z " fill="#03A2B6" transform="translate(223.0625,47.9375)"/>
<path d="M0 0 C0.99 0.66 1.98 1.32 3 2 C3 1.67 3 1.34 3 1 C5.08304538 0.94581674 7.16649768 0.90712449 9.25 0.875 C10.99023438 0.84019531 10.99023438 0.84019531 12.765625 0.8046875 C15.88822414 0.99325025 17.36680318 1.44829473 20 3 C21.65740715 3.37668344 23.32345271 3.72057545 25 4 C25 4.33 25 4.66 25 5 C6.92271442 6.71536287 6.92271442 6.71536287 0 5 C-1.80078125 3.453125 -1.80078125 3.453125 -3 2 C-2.01 2 -1.02 2 0 2 C0 1.34 0 0.68 0 0 Z " fill="#0A171C" transform="translate(592,39)"/>
<path d="M0 0 C0 0.33 0 0.66 0 1 C3.3 1.33 6.6 1.66 10 2 C10 2.33 10 2.66 10 3 C-4.52 3 -19.04 3 -34 3 C-34 2.67 -34 2.34 -34 2 C-30.02132817 1.66058296 -26.04199752 1.32958345 -22.0625 1 C-20.94552734 0.90460937 -19.82855469 0.80921875 -18.67773438 0.7109375 C-12.42573608 0.19757694 -6.27276963 -0.10643087 0 0 Z " fill="#00C4D5" transform="translate(508,585)"/>
<path d="M0 0 C1.98 0.99 1.98 0.99 4 2 C4.20638953 28.75125788 4.20638953 28.75125788 3 42 C2.67 42 2.34 42 2 42 C1.97494385 41.18958252 1.9498877 40.37916504 1.92407227 39.54418945 C1.82762262 36.47070446 1.72849396 33.39731949 1.62768555 30.32397461 C1.56424794 28.36643735 1.50376182 26.40880514 1.44335938 24.45117188 C1.17300432 16.27813048 0.70317332 8.14731978 0 0 Z " fill="#02C8DB" transform="translate(650,134)"/>
<path d="M0 0 C0.33 0 0.66 0 1 0 C1.125 5.75 1.125 5.75 0 8 C0.58137549 10.22617146 1.24026634 12.43235273 1.9375 14.625 C3.55605252 20.03129913 4.44856637 24.39292036 4 30 C3.67 29.01 3.34 28.02 3 27 C2.01 27 1.02 27 0 27 C0.309375 26.071875 0.309375 26.071875 0.625 25.125 C0.74875 24.42375 0.8725 23.7225 1 23 C0.34 22.34 -0.32 21.68 -1 21 C-1.36222775 18.17812895 -1.60410267 15.45823202 -1.75 12.625 C-1.80542969 11.85671875 -1.86085938 11.0884375 -1.91796875 10.296875 C-2.31567396 3.33100793 -2.31567396 3.33100793 0 0 Z " fill="#017AB3" transform="translate(661,154)"/>
<path d="M0 0 C6.94485303 -0.48452463 13.2990368 1.30712509 20 3 C20 3.33 20 3.66 20 4 C17.03 4 14.06 4 11 4 C13.31 4.33 15.62 4.66 18 5 C18 5.33 18 5.66 18 6 C15.91695462 6.05418326 13.83350232 6.09287551 11.75 6.125 C10.00976562 6.15980469 10.00976562 6.15980469 8.234375 6.1953125 C5.17213954 6.0103949 3.55797249 5.60823023 1 4 C1.33 3.34 1.66 2.68 2 2 C1.34 1.34 0.68 0.68 0 0 Z " fill="#01ECF4" transform="translate(602,16)"/>
<path d="M0 0 C1.65 0.33 3.3 0.66 5 1 C4.67 1.639375 4.34 2.27875 4 2.9375 C2.66943072 7.01236841 2.83340801 10.75190425 3 15 C1.68 14.34 0.36 13.68 -1 13 C-1 12.34 -1 11.68 -1 11 C-1.99 10.67 -2.98 10.34 -4 10 C-4 9.34 -4 8.68 -4 8 C-3.34 8 -2.68 8 -2 8 C-1.34 5.36 -0.68 2.72 0 0 Z " fill="#0B0D12" transform="translate(167,155)"/>
<path d="M0 0 C0 0.66 0 1.32 0 2 C0.88042969 2.06058594 1.76085937 2.12117188 2.66796875 2.18359375 C3.82941406 2.26738281 4.99085938 2.35117187 6.1875 2.4375 C7.33605469 2.51871094 8.48460937 2.59992187 9.66796875 2.68359375 C12.51598171 2.95403812 15.21210482 3.37521747 18 4 C18 4.33 18 4.66 18 5 C11.34523528 6.18498759 5.64346768 5.63919993 -1 4.5625 C-1.96550781 4.41490234 -2.93101562 4.26730469 -3.92578125 4.11523438 C-6.28552495 3.75309549 -8.64327044 3.38117928 -11 3 C-7.24528933 -0.16492205 -4.90567888 -0.28301994 0 0 Z " fill="#065263" transform="translate(596,23)"/>
<path d="M0 0 C4.95 0 9.9 0 15 0 C15 0.33 15 0.66 15 1 C9.06 1.495 9.06 1.495 3 2 C5.97 2.33 8.94 2.66 12 3 C12 3.66 12 4.32 12 5 C14.64 5 17.28 5 20 5 C20 5.33 20 5.66 20 6 C4.21880804 6.27958805 4.21880804 6.27958805 -3 5 C-3.33 4.34 -3.66 3.68 -4 3 C-3.01 2.67 -2.02 2.34 -1 2 C-0.67 1.34 -0.34 0.68 0 0 Z " fill="#073A4B" transform="translate(182,576)"/>
<path d="M0 0 C4.29 0 8.58 0 13 0 C13.33 0.66 13.66 1.32 14 2 C12.68 2 11.36 2 10 2 C10 2.99 10 3.98 10 5 C9.01 5.495 9.01 5.495 8 6 C9.134375 6.12375 10.26875 6.2475 11.4375 6.375 C12.613125 6.58125 13.78875 6.7875 15 7 C15.33 7.66 15.66 8.32 16 9 C11.71 8.67 7.42 8.34 3 8 C3.66 6.35 4.32 4.7 5 3 C5.66 3 6.32 3 7 3 C7 2.34 7 1.68 7 1 C4.69 1 2.38 1 0 1 C0 0.67 0 0.34 0 0 Z " fill="#02A6C4" transform="translate(563,41)"/>
<path d="M0 0 C1 3 1 3 -0.375 5.8125 C-0.91125 6.864375 -1.4475 7.91625 -2 9 C-2.38290462 10.99110401 -2.72604615 12.99100513 -3 15 C-3.33 15.66 -3.66 16.32 -4 17 C-4.66 17 -5.32 17 -6 17 C-6.19335938 17.77085938 -6.38671875 18.54171875 -6.5859375 19.3359375 C-6.84632813 20.33882812 -7.10671875 21.34171875 -7.375 22.375 C-7.63023437 23.37273437 -7.88546875 24.37046875 -8.1484375 25.3984375 C-9 28 -9 28 -11 30 C-10.25567721 19.33137334 -4.93869768 9.30997051 0 0 Z " fill="#00E8F1" transform="translate(178,105)"/>
<path d="M0 0 C0 0.33 0 0.66 0 1 C-15.08896313 1.92189426 -29.91337821 1.98173236 -45 1 C-45 0.67 -45 0.34 -45 0 C-29.92103822 -1.09512013 -15.09058784 -0.82159867 0 0 Z " fill="#00F3F7" transform="translate(343,584)"/>
<path d="M0 0 C2.51012963 2.51012963 2.29721609 3.46805237 2.3125 6.9375 C2.32925781 7.81277344 2.34601562 8.68804687 2.36328125 9.58984375 C1.92888764 12.47178845 1.17055355 13.14631558 -1 15 C-1.66 15.99 -2.32 16.98 -3 18 C-3.21586845 12.06361776 -2.71249434 6.71248111 -1 1 C-0.67 0.67 -0.34 0.34 0 0 Z " fill="#01DAEA" transform="translate(658,392)"/>
<path d="M0 0 C0.33 0 0.66 0 1 0 C0.67 4.29 0.34 8.58 0 13 C0.99 13 1.98 13 3 13 C2.5020163 16.73487777 2.12508244 18.81237635 0 22 C-0.66 22 -1.32 22 -2 22 C-2 20.68 -2 19.36 -2 18 C-2.22170954 16.6029628 -2.45124756 15.20715151 -2.6875 13.8125 C-3.31863353 8.67814344 -1.96823941 4.70375859 0 0 Z " fill="#02E4F2" transform="translate(183,159)"/>
<path d="M0 0 C0.66 0 1.32 0 2 0 C2.82514784 2.83384108 3.07936233 5.16935251 2.87890625 8.109375 C2.83056641 8.86347656 2.78222656 9.61757812 2.73242188 10.39453125 C2.64831055 11.56048828 2.64831055 11.56048828 2.5625 12.75 C2.51029297 13.54277344 2.45808594 14.33554688 2.40429688 15.15234375 C2.27510676 17.10193997 2.13830035 19.05102886 2 21 C-0.12999997 17.20960634 -0.16702456 14.34263862 0 10 C-0.66 9.67 -1.32 9.34 -2 9 C-2.20140476 5.37471432 -1.85776765 3.13498292 0 0 Z " fill="#00C1DB" transform="translate(663,145)"/>
<path d="M0 0 C2.93090395 2.93090395 2.71996449 6.29924381 3.125 10.25 C3.21136719 11.00152344 3.29773438 11.75304687 3.38671875 12.52734375 C3.84609471 16.7054775 4.0938536 20.78999587 4 25 C3.01 25.33 2.02 25.66 1 26 C0.67 17.42 0.34 8.84 0 0 Z " fill="#03EDF7" transform="translate(652,93)"/>
<path d="M0 0 C5.28 0.66 10.56 1.32 16 2 C16 2.33 16 2.66 16 3 C11.84373632 4.00926479 7.95634906 4.10239579 3.6875 4.0625 C2.43324219 4.05347656 1.17898438 4.04445313 -0.11328125 4.03515625 C-1.06589844 4.02355469 -2.01851562 4.01195312 -3 4 C-2.67 3.34 -2.34 2.68 -2 2 C-1.34 2 -0.68 2 0 2 C0 1.34 0 0.68 0 0 Z " fill="#01D2E7" transform="translate(573,44)"/>
<path d="M0 0 C-2 2 -2 2 -4.03125 2.23046875 C-10.06590948 2.12543512 -16.00617313 1.71415809 -22 1 C-15.9519817 -3.0320122 -6.94458874 -1.2626525 0 0 Z " fill="#02E6EE" transform="translate(580,37)"/>
<path d="M0 0 C0 0.33 0 0.66 0 1 C-8.91 1 -17.82 1 -27 1 C-27 1.66 -27 2.32 -27 3 C-28.65 3 -30.3 3 -32 3 C-32 2.34 -32 1.68 -32 1 C-21.25671167 -1.64215018 -10.93108521 -0.7993086 0 0 Z " fill="#055E7E" transform="translate(280,579)"/>
<path d="M0 0 C5.61 0 11.22 0 17 0 C16.01 0.33 15.02 0.66 14 1 C14 1.66 14 2.32 14 3 C9.38 3 4.76 3 0 3 C0 2.01 0 1.02 0 0 Z " fill="#03AAC4" transform="translate(234,579)"/>
<path d="M0 0 C0 0.66 0 1.32 0 2 C-2.06168985 2.19620767 -4.12440998 2.38160753 -6.1875 2.5625 C-7.33605469 2.66691406 -8.48460937 2.77132812 -9.66796875 2.87890625 C-12.68631199 2.98859985 -15.08923936 2.74002389 -18 2 C-17.67 1.34 -17.34 0.68 -17 0 C-14.453125 -0.44921875 -14.453125 -0.44921875 -11.25 -0.6875 C-10.20328125 -0.77386719 -9.1565625 -0.86023438 -8.078125 -0.94921875 C-5.19508148 -0.99678165 -2.78929511 -0.68699305 0 0 Z " fill="#090205" transform="translate(202,577)"/>
<path d="M0 0 C1.65 0 3.3 0 5 0 C6.76062164 3.32561865 7.10784228 4.59173995 6.125 8.3125 C5.75375 9.199375 5.3825 10.08625 5 11 C4.34 11 3.68 11 3 11 C3 9.02 3 7.04 3 5 C1.68 5 0.36 5 -1 5 C-0.67 3.35 -0.34 1.7 0 0 Z " fill="#01DAE9" transform="translate(169,171)"/>
<path d="M0 0 C0.66 0 1.32 0 2 0 C1.4352699 3.90829085 -0.42131971 5.89920223 -3.0625 8.75 C-4.16271484 9.94882813 -4.16271484 9.94882813 -5.28515625 11.171875 C-5.85105469 11.77515625 -6.41695312 12.3784375 -7 13 C-7.99 12.67 -8.98 12.34 -10 12 C-8.52149287 10.18696196 -7.04217625 8.37458402 -5.5625 6.5625 C-4.32693359 5.04849609 -4.32693359 5.04849609 -3.06640625 3.50390625 C-1 1 -1 1 0 0 Z " fill="#086572" transform="translate(241,94)"/>
<path d="M0 0 C0.33 0.66 0.66 1.32 1 2 C0.22914063 2.47050781 -0.54171875 2.94101562 -1.3359375 3.42578125 C-2.33882812 4.04839844 -3.34171875 4.67101563 -4.375 5.3125 C-5.37273437 5.92738281 -6.37046875 6.54226562 -7.3984375 7.17578125 C-10.19826812 8.90437775 -10.19826812 8.90437775 -12 12 C-15.125 12.6875 -15.125 12.6875 -18 13 C-13.06993839 7.38992989 -6.65798808 3.32899404 0 0 Z " fill="#02D9E6" transform="translate(243,33)"/>
<path d="M0 0 C2.64 0.33 5.28 0.66 8 1 C8 1.66 8 2.32 8 3 C8.99 3.33 9.98 3.66 11 4 C11 4.33 11 4.66 11 5 C9.22950311 5.05410687 7.45853151 5.09284119 5.6875 5.125 C4.20830078 5.15980469 4.20830078 5.15980469 2.69921875 5.1953125 C0 5 0 5 -3 3 C-2.01 2.67 -1.02 2.34 0 2 C0 1.34 0 0.68 0 0 Z " fill="#093E4A" transform="translate(634,23)"/>
<path d="M0 0 C5.28 0 10.56 0 16 0 C16.33 0.99 16.66 1.98 17 3 C16.67 3.66 16.34 4.32 16 5 C14.18674449 4.88648483 12.37436643 4.75887039 10.5625 4.625 C9.04849609 4.52058594 9.04849609 4.52058594 7.50390625 4.4140625 C6.67761719 4.27742188 5.85132813 4.14078125 5 4 C4.67 3.34 4.34 2.68 4 2 C2.68 1.34 1.36 0.68 0 0 Z " fill="#0591AD" transform="translate(609,19)"/>
<path d="M0 0 C1.13824219 0.09925781 2.27648437 0.19851563 3.44921875 0.30078125 C5.20685547 0.46126953 5.20685547 0.46126953 7 0.625 C9.27070768 0.81401562 11.54153347 1.00162018 13.8125 1.1875 C15.54170273 1.33290515 17.27088373 1.47857033 19 1.625 C19 1.955 19 2.285 19 2.625 C14.91672643 2.6830772 10.83355917 2.71862249 6.75 2.75 C5.01169922 2.77513672 5.01169922 2.77513672 3.23828125 2.80078125 C2.12324219 2.80722656 1.00820312 2.81367187 -0.140625 2.8203125 C-1.16704102 2.83078613 -2.19345703 2.84125977 -3.25097656 2.85205078 C-6.01984288 2.62336111 -7.64418792 2.0493299 -10 0.625 C-6.524231 -0.49459867 -3.61734458 -0.3280435 0 0 Z " fill="#00F5FC" transform="translate(234,580.375)"/>
<path d="M0 0 C2.00720923 0.28674418 4.0085944 0.61866701 6 1 C5.67 1.66 5.34 2.32 5 3 C2.9375 3.625 2.9375 3.625 1 4 C1 4.33 1 4.66 1 5 C-0.27875 5.061875 -1.5575 5.12375 -2.875 5.1875 C-3.59429687 5.22230469 -4.31359375 5.25710938 -5.0546875 5.29296875 C-5.69664062 5.19628906 -6.33859375 5.09960938 -7 5 C-7.66 4.01 -8.32 3.02 -9 2 C-6.06193103 1.02064368 -4.04722362 1 -1 1 C-0.67 0.67 -0.34 0.34 0 0 Z " fill="#02BBCF" transform="translate(227,578)"/>
<path d="M0 0 C0.33 0 0.66 0 1 0 C1 2.31 1 4.62 1 7 C1.66 7 2.32 7 3 7 C2.67 8.98 2.34 10.96 2 13 C2.66 13 3.32 13 4 13 C4 16.3 4 19.6 4 23 C0.59761284 19.59761284 0.57633903 18.89157297 0.3125 14.3125 C0.24804688 13.25160156 0.18359375 12.19070312 0.1171875 11.09765625 C-0.02309426 7.38954177 -0.07134628 3.71000665 0 0 Z " fill="#05C1DA" transform="translate(660,109)"/>
<path d="M0 0 C2.97 0.495 2.97 0.495 6 1 C6 1.99 6 2.98 6 4 C4.68 3.67 3.36 3.34 2 3 C1.87882813 3.62648437 1.75765625 4.25296875 1.6328125 4.8984375 C1.46523437 5.71570313 1.29765625 6.53296875 1.125 7.375 C0.96257812 8.18710938 0.80015625 8.99921875 0.6328125 9.8359375 C0 12 0 12 -2 14 C-2.21192221 8.80790596 -1.5912689 4.873261 0 0 Z " fill="#02E3EC" transform="translate(166,149)"/>
<path d="M0 0 C4.95 0.33 9.9 0.66 15 1 C14.01 1.495 14.01 1.495 13 2 C13 2.99 13 3.98 13 5 C11.02 5 9.04 5 7 5 C6.67 4.34 6.34 3.68 6 3 C3.67843403 2.59270772 1.3431213 2.25561323 -1 2 C-0.67 1.34 -0.34 0.68 0 0 Z " fill="#04667E" transform="translate(554,51)"/>
<path d="M0 0 C0.99 0.33 1.98 0.66 3 1 C4.61729417 4.67566856 4.06546005 9.07239675 4 13 C3.67 12.01 3.34 11.02 3 10 C2.01 10 1.02 10 0 10 C0.20625 9.4225 0.4125 8.845 0.625 8.25 C1.08979923 5.46120465 0.29883111 4.43530833 -1 2 C-0.67 1.34 -0.34 0.68 0 0 Z " fill="#038EBB" transform="translate(661,171)"/>
<path d="M0 0 C0 0.66 0 1.32 0 2 C-0.99 2.495 -0.99 2.495 -2 3 C-2 3.66 -2 4.32 -2 5 C-3.4370809 5.05422947 -4.87475462 5.09289723 -6.3125 5.125 C-7.11300781 5.14820313 -7.91351562 5.17140625 -8.73828125 5.1953125 C-11 5 -11 5 -14 3 C-12.906875 2.87625 -11.81375 2.7525 -10.6875 2.625 C-6.32294604 1.88524509 -4.50672953 0 0 0 Z " fill="#046382" transform="translate(592,39)"/>
<path d="M0 0 C1.65322266 0.01740234 1.65322266 0.01740234 3.33984375 0.03515625 C4.99693359 0.04869141 4.99693359 0.04869141 6.6875 0.0625 C7.54214844 0.07410156 8.39679688 0.08570313 9.27734375 0.09765625 C8.94734375 1.08765625 8.61734375 2.07765625 8.27734375 3.09765625 C2.99734375 3.09765625 -2.28265625 3.09765625 -7.72265625 3.09765625 C-6.40265625 2.43765625 -5.08265625 1.77765625 -3.72265625 1.09765625 C-2.72265625 0.09765625 -2.72265625 0.09765625 0 0 Z " fill="#01C4D9" transform="translate(497.72265625,7.90234375)"/>
<path d="M0 0 C5.28 0 10.56 0 16 0 C15.67 0.99 15.34 1.98 15 3 C12.87436897 2.88623383 10.7494739 2.75864369 8.625 2.625 C7.44164062 2.55539062 6.25828125 2.48578125 5.0390625 2.4140625 C2 2 2 2 0 0 Z " fill="#0A0304" transform="translate(166,576)"/>
<path d="M0 0 C1.37478516 0.01740234 1.37478516 0.01740234 2.77734375 0.03515625 C3.69644531 0.04417969 4.61554687 0.05320313 5.5625 0.0625 C6.27277344 0.07410156 6.98304688 0.08570313 7.71484375 0.09765625 C7.71484375 0.75765625 7.71484375 1.41765625 7.71484375 2.09765625 C9.03484375 2.42765625 10.35484375 2.75765625 11.71484375 3.09765625 C8.08484375 3.42765625 4.45484375 3.75765625 0.71484375 4.09765625 C0.71484375 3.43765625 0.71484375 2.77765625 0.71484375 2.09765625 C-0.60515625 1.76765625 -1.92515625 1.43765625 -3.28515625 1.09765625 C-2.28515625 0.09765625 -2.28515625 0.09765625 0 0 Z " fill="#0A2F39" transform="translate(576.28515625,50.90234375)"/>
<path d="M0 0 C2.26273207 3.55818936 2.07331744 6.12547951 1.625 10.25 C1.51414063 11.32765625 1.40328125 12.4053125 1.2890625 13.515625 C1.19367188 14.33546875 1.09828125 15.1553125 1 16 C0.67 15.34 0.34 14.68 0 14 C-0.66 14 -1.32 14 -2 14 C-1.85866501 12.22880197 -1.71176792 10.45804713 -1.5625 8.6875 C-1.48128906 7.70136719 -1.40007812 6.71523438 -1.31640625 5.69921875 C-1 3 -1 3 0 0 Z " fill="#04D2E1" transform="translate(165,400)"/>
<path d="M0 0 C0.99 0.66 1.98 1.32 3 2 C2.67 2.66 2.34 3.32 2 4 C1.79282822 6.67021407 1.62622225 9.32595835 1.5 12 C1.13513514 19.72972973 1.13513514 19.72972973 0 22 C-0.66 21.67 -1.32 21.34 -2 21 C-1.84152588 20.42475586 -1.68305176 19.84951172 -1.51977539 19.25683594 C-1.02086674 17.09060223 -0.80111676 15.10677317 -0.68359375 12.890625 C-0.62075195 11.75947266 -0.62075195 11.75947266 -0.55664062 10.60546875 C-0.51732422 9.82816406 -0.47800781 9.05085937 -0.4375 8.25 C-0.39431641 7.45722656 -0.35113281 6.66445312 -0.30664062 5.84765625 C-0.20097009 3.89862185 -0.10002034 1.94933252 0 0 Z " fill="#0A1021" transform="translate(660,175)"/>
<path d="M0 0 C0.33 0 0.66 0 1 0 C0.67 4.29 0.34 8.58 0 13 C-0.66 13 -1.32 13 -2 13 C-2.05391993 11.20866022 -2.09275571 9.41686101 -2.125 7.625 C-2.14820313 6.62726563 -2.17140625 5.62953125 -2.1953125 4.6015625 C-2 2 -2 2 0 0 Z " fill="#02E4F2" transform="translate(665,397)"/>
<path d="M0 0 C1.67079383 2.54856595 2.04343532 3.6929123 1.609375 6.76171875 C1.32578125 7.72722656 1.0421875 8.69273437 0.75 9.6875 C0.47671875 10.66074219 0.2034375 11.63398438 -0.078125 12.63671875 C-1 15 -1 15 -3 16 C-2.69075786 13.89535207 -2.3774944 11.7912947 -2.0625 9.6875 C-1.88847656 8.51574219 -1.71445313 7.34398437 -1.53515625 6.13671875 C-1 3 -1 3 0 0 Z " fill="#04E4F3" transform="translate(165,139)"/>
<path d="M0 0 C0.33 0.66 0.66 1.32 1 2 C-0.91635217 2.05423638 -2.83314925 2.09289963 -4.75 2.125 C-6.35101563 2.15980469 -6.35101563 2.15980469 -7.984375 2.1953125 C-10.92470106 2.00487687 -12.52361878 1.52670104 -15 0 C-9.70936543 -0.83536335 -5.30788029 -1.19156496 0 0 Z " fill="#02F3F9" transform="translate(218,580)"/>
<path d="M0 0 C4.62 0 9.24 0 14 0 C14 0.66 14 1.32 14 2 C14.99 2.33 15.98 2.66 17 3 C15.33388095 3.042721 13.66617115 3.04063832 12 3 C11.67 2.67 11.34 2.34 11 2 C8.94603274 2.40929986 8.94603274 2.40929986 7 3 C7 2.34 7 1.68 7 1 C4.69 1 2.38 1 0 1 C0 0.67 0 0.34 0 0 Z " fill="#0A1217" transform="translate(597,50)"/>
<path d="M0 0 C1.92199219 0.43119141 1.92199219 0.43119141 3.8828125 0.87109375 C5.36394531 1.21333984 5.36394531 1.21333984 6.875 1.5625 C6.875 1.8925 6.875 2.2225 6.875 2.5625 C4.58339681 2.58942484 2.29170454 2.60886124 0 2.625 C-1.27617188 2.63660156 -2.55234375 2.64820313 -3.8671875 2.66015625 C-7.125 2.5625 -7.125 2.5625 -9.125 1.5625 C-9.125 0.9025 -9.125 0.2425 -9.125 -0.4375 C-5.95954798 -2.02022601 -3.38081122 -0.76836619 0 0 Z " fill="#02D5E5" transform="translate(615.125,17.4375)"/>
<path d="M0 0 C1.62490954 -0.02698189 3.24994633 -0.04638757 4.875 -0.0625 C5.77992188 -0.07410156 6.68484375 -0.08570313 7.6171875 -0.09765625 C10 0 10 0 12 1 C12 1.66 12 2.32 12 3 C8.04 3 4.08 3 0 3 C0 2.01 0 1.02 0 0 Z " fill="#01C3D7" transform="translate(350,7)"/>
<path d="M0 0 C0.33 0 0.66 0 1 0 C1.66 4.29 2.32 8.58 3 13 C2.34 13 1.68 13 1 13 C1 12.34 1 11.68 1 11 C0.34 11 -0.32 11 -1 11 C-0.67 7.37 -0.34 3.74 0 0 Z " fill="#03C3D9" transform="translate(160,405)"/>
<path d="M0 0 C0.66 0 1.32 0 2 0 C2.66 2.31 3.32 4.62 4 7 C2.02 7.33 0.04 7.66 -2 8 C-1.34 5.36 -0.68 2.72 0 0 Z " fill="#141414" transform="translate(151,265)"/>
<path d="M0 0 C0.33 0 0.66 0 1 0 C3.48063781 9.41002278 3.48063781 9.41002278 2 14 C1.34 13.67 0.68 13.34 0 13 C0 8.71 0 4.42 0 0 Z " fill="#02BFD2" transform="translate(170,398)"/>
<path d="M0 0 C0.93423645 3.01031744 1.04449911 3.86650268 0 7 C-0.99 7.33 -1.98 7.66 -3 8 C-3.66 7.67 -4.32 7.34 -5 7 C-5 5.68 -5 4.36 -5 3 C-3.68 3.33 -2.36 3.66 -1 4 C-0.67 2.68 -0.34 1.36 0 0 Z " fill="#0582A1" transform="translate(173,149)"/>
<path d="M0 0 C1.40907283 2.81814566 0.50872691 4.17277204 -0.4375 7.125 C-0.72496094 8.03507813 -1.01242188 8.94515625 -1.30859375 9.8828125 C-1.53675781 10.58148438 -1.76492187 11.28015625 -2 12 C-2.33 11.34 -2.66 10.68 -3 10 C-3.66 9.67 -4.32 9.34 -5 9 C-2.25 2.25 -2.25 2.25 0 0 Z " fill="#071827" transform="translate(182,161)"/>
<path d="M0 0 C1.32 0 2.64 0 4 0 C3.34 3.96 2.68 7.92 2 12 C1.67 12 1.34 12 1 12 C0.67 8.04 0.34 4.08 0 0 Z " fill="#0B1421" transform="translate(661,396)"/>
<path d="M0 0 C1.65 0.33 3.3 0.66 5 1 C3.70700306 3.88437779 2.34058637 5.87219421 0 8 C-1.125 2.25 -1.125 2.25 0 0 Z " fill="#092937" transform="translate(167,155)"/>
<path d="M0 0 C2 2 2 2 2.1953125 4.1640625 C2.16050781 5.38222656 2.16050781 5.38222656 2.125 6.625 C2.10695313 7.44226563 2.08890625 8.25953125 2.0703125 9.1015625 C2.04710937 9.72804687 2.02390625 10.35453125 2 11 C1.34 11 0.68 11 0 11 C-0.19406478 9.35492782 -0.38007935 7.70890406 -0.5625 6.0625 C-0.66691406 5.14597656 -0.77132812 4.22945312 -0.87890625 3.28515625 C-0.91886719 2.53105469 -0.95882812 1.77695313 -1 1 C-0.67 0.67 -0.34 0.34 0 0 Z " fill="#08131A" transform="translate(666,141)"/>
<path d="M0 0 C1.485 0.99 1.485 0.99 3 2 C3.22137393 4.62697064 3.28162025 7.00893964 3.1875 9.625 C3.16719727 10.68460938 3.16719727 10.68460938 3.14648438 11.765625 C3.1111104 13.51074128 3.05730221 15.25546608 3 17 C2.67 17 2.34 17 2 17 C2 12.71 2 8.42 2 4 C1.34 4 0.68 4 0 4 C0 2.68 0 1.36 0 0 Z " fill="#09293D" transform="translate(662,118)"/>
<path d="M0 0 C5.94 1.485 5.94 1.485 12 3 C12 3.33 12 3.66 12 4 C3.42857143 4.28571429 3.42857143 4.28571429 0 2 C0 1.34 0 0.68 0 0 Z " fill="#0B0201" transform="translate(642,24)"/>
<path d="M0 0 C3.96 0 7.92 0 12 0 C12 0.33 12 0.66 12 1 C10.35 1 8.7 1 7 1 C7 1.66 7 2.32 7 3 C4.625 3.1875 4.625 3.1875 2 3 C1.34 2.01 0.68 1.02 0 0 Z " fill="#00ADC8" transform="translate(349,552)"/>
<path d="M0 0 C0.99 0.33 1.98 0.66 3 1 C2.01 2.98 1.02 4.96 0 7 C-0.66 7 -1.32 7 -2 7 C-2 5 -2 3 -2 1 C-1.34 0.67 -0.68 0.34 0 0 Z " fill="#04D2E2" transform="translate(183,174)"/>
<path d="M0 0 C1.32 0.99 2.64 1.98 4 3 C3.67 3.99 3.34 4.98 3 6 C2.34 6 1.68 6 1 6 C1 7.65 1 9.3 1 11 C0.67 11 0.34 11 0 11 C0 7.37 0 3.74 0 0 Z " fill="#0A0F1A" transform="translate(668,405)"/>
<path d="M0 0 C0 0.66 0 1.32 0 2 C-3.3 2 -6.6 2 -10 2 C-10.33 1.34 -10.66 0.68 -11 0 C-6.94952424 -1.35015859 -4.2079832 -0.62084998 0 0 Z " fill="#01DCEB" transform="translate(570,42)"/>
<path d="M0 0 C0.33 0.99 0.66 1.98 1 3 C-0.9375 5.6875 -0.9375 5.6875 -3 8 C-2.34 8.33 -1.68 8.66 -1 9 C-1.99 9 -2.98 9 -4 9 C-4.8125 7.3125 -4.8125 7.3125 -5 5 C-2.5625 2.25 -2.5625 2.25 0 0 Z " fill="#0C0204" transform="translate(185,177)"/>
<path d="M0 0 C0 0.33 0 0.66 0 1 C-8.42857143 2.28571429 -8.42857143 2.28571429 -13 1 C-13 0.67 -13 0.34 -13 0 C-8.37078475 -1.0161692 -4.65537393 -0.83796731 0 0 Z " fill="#063E4C" transform="translate(614,27)"/>
<path d="M0 0 C3.29148243 1.13499394 3.9959869 1.99283376 5.75 5.125 C6.1625 6.07375 6.575 7.0225 7 8 C3.70851757 6.86500606 3.0040131 6.00716624 1.25 2.875 C0.8375 1.92625 0.425 0.9775 0 0 Z " fill="#060606" transform="translate(663,314)"/>
<path d="M0 0 C0.33 0.66 0.66 1.32 1 2 C3.02463255 2.65213292 3.02463255 2.65213292 5 3 C4.67 4.98 4.34 6.96 4 9 C3.34 9 2.68 9 2 9 C2 7.02 2 5.04 2 3 C1.34 3 0.68 3 0 3 C0 2.01 0 1.02 0 0 Z " fill="#067A99" transform="translate(170,173)"/>
<path d="M0 0 C1.04449911 3.13349732 0.93423645 3.98968256 0 7 C-1.32 7.33 -2.64 7.66 -4 8 C-2.87548273 5.0280615 -1.77706209 2.66559313 0 0 Z " fill="#0B0C13" transform="translate(202,147)"/>
<path d="M0 0 C0 0.99 0 1.98 0 3 C-1.8125 4.0625 -1.8125 4.0625 -4 5 C-4.99 4.67 -5.98 4.34 -7 4 C-6.34 4 -5.68 4 -5 4 C-4.67 3.01 -4.34 2.02 -4 1 C-2 0 -2 0 0 0 Z " fill="#0B1518" transform="translate(256,86)"/>
<path d="M0 0 C2 1.375 2 1.375 4 3 C4 3.66 4 4.32 4 5 C1.0625 4.625 1.0625 4.625 -2 4 C-2.33 3.34 -2.66 2.68 -3 2 C-2.01 2 -1.02 2 0 2 C0 1.34 0 0.68 0 0 Z " fill="#061D2D" transform="translate(592,39)"/>
<path d="M0 0 C5.75 -0.125 5.75 -0.125 8 1 C8 1.66 8 2.32 8 3 C5.69 3 3.38 3 1 3 C0.67 2.01 0.34 1.02 0 0 Z " fill="#02C6D9" transform="translate(322,10)"/>
</svg>
