<?xml version="1.0" encoding="UTF-8"?>
<svg version="1.1" xmlns="http://www.w3.org/2000/svg" width="755" height="251">
<path d="M0 0 C249.15 0 498.3 0 755 0 C755 82.83 755 165.66 755 251 C505.85 251 256.7 251 0 251 C0 168.17 0 85.34 0 0 Z " fill="#060606" transform="translate(0,0)"/>
<path d="M0 0 C12.40738997 11.51979891 19.75937586 27.58264031 20.50195408 44.57320976 C20.50103229 45.54846674 20.50011049 46.52372372 20.49916077 47.52853394 C20.50122276 49.21952965 20.50122276 49.21952965 20.50332642 50.94468689 C20.49973114 52.16676346 20.49613586 53.38884003 20.49243164 54.64794922 C20.49257767 55.94605026 20.49272369 57.24415131 20.49287415 58.58158875 C20.4931603 62.12865494 20.48729291 65.67568711 20.48030019 69.22274542 C20.47403643 72.93431264 20.47346046 76.6458807 20.47227478 80.35745239 C20.46917037 87.38024639 20.46096899 94.40302476 20.45092529 101.42581189 C20.4397365 109.42337832 20.43424674 117.42094551 20.42922986 125.41851783 C20.41878562 141.86495996 20.40045122 158.31138059 20.37890625 174.7578125 C8.82890625 174.7578125 -2.72109375 174.7578125 -14.62109375 174.7578125 C-14.62109375 158.9178125 -14.62109375 143.0778125 -14.62109375 126.7578125 C-37.39109375 126.7578125 -60.16109375 126.7578125 -83.62109375 126.7578125 C-83.58148585 142.18055936 -83.58148585 142.18055936 -83.53100586 157.60327148 C-83.52808684 159.52848251 -83.52553825 161.45369415 -83.5234375 163.37890625 C-83.51832153 164.38860474 -83.51320557 165.39830322 -83.50793457 166.43859863 C-83.5077533 167.86976013 -83.5077533 167.86976013 -83.50756836 169.32983398 C-83.50534775 170.16256332 -83.50312714 170.99529266 -83.50083923 171.85325623 C-83.62109375 173.7578125 -83.62109375 173.7578125 -84.62109375 174.7578125 C-87.14203451 174.84628993 -89.63540268 174.87308551 -92.15625 174.85546875 C-93.28612587 174.85334633 -93.28612587 174.85334633 -94.43882751 174.85118103 C-96.85378935 174.84556626 -99.26865976 174.83301133 -101.68359375 174.8203125 C-103.31705596 174.8152994 -104.95051961 174.81073616 -106.58398438 174.80664062 C-110.5963896 174.79559204 -114.60872616 174.77831756 -118.62109375 174.7578125 C-118.69146325 158.08427025 -118.7442178 141.41077686 -118.77653027 124.73712158 C-118.79193845 116.99364225 -118.81291084 109.25025569 -118.84741211 101.50683594 C-118.87750125 94.75039412 -118.89671259 87.99401955 -118.90335923 81.23751259 C-118.9072388 77.66657805 -118.91622664 74.09583573 -118.93828392 70.52496338 C-119.09743603 43.67717238 -117.76966224 21.19091796 -98.53515625 0.515625 C-70.53372858 -26.23666835 -28.44049828 -24.32912968 0 0 Z " fill="#F9F9F9" transform="translate(127.62109375,29.2421875)"/>
<path d="M0 0 C15.68040116 16.73632043 17.3203125 37.45405185 17.3203125 59.4765625 C-12.3796875 59.4765625 -42.0796875 59.4765625 -72.6796875 59.4765625 C-70.44956117 70.62719417 -67.88893606 79.93350209 -58.6953125 87.14453125 C-50.74761908 92.39678601 -42.01487358 93.3066095 -32.6796875 92.4765625 C-21.69388364 89.76176078 -16.25700594 84.34741273 -9.6796875 75.4765625 C-6.71377013 76.79005726 -4.85247071 78.1151137 -2.76953125 80.59375 C-1.99706055 81.50447266 -1.99706055 81.50447266 -1.20898438 82.43359375 C-0.68369141 83.06652344 -0.15839844 83.69945312 0.3828125 84.3515625 C0.91197266 84.97675781 1.44113281 85.60195312 1.98632812 86.24609375 C3.00233685 87.45204639 4.01009594 88.66501184 5.00830078 89.88574219 C6.05592392 91.15599011 7.14800286 92.38953005 8.25390625 93.609375 C9.3203125 95.4765625 9.3203125 95.4765625 9.23046875 97.98828125 C6.52250902 105.39158745 -1.82908599 109.38075523 -8.4921875 112.7890625 C-9.11875244 113.11430908 -9.74531738 113.43955566 -10.39086914 113.7746582 C-20.14545706 118.51830236 -30.22983956 120.04122392 -40.9921875 119.9765625 C-42.08015625 119.97229248 -43.168125 119.96802246 -44.2890625 119.96362305 C-53.28638042 119.77439586 -60.51836836 118.29293065 -68.6796875 114.4765625 C-69.50984375 114.10402344 -70.34 113.73148438 -71.1953125 113.34765625 C-86.24506279 105.79647035 -97.70650797 92.09034487 -103.6796875 76.4765625 C-109.90157031 57.65357912 -110.39762959 36.37966607 -101.9296875 18.2890625 C-93.83802516 3.0576981 -80.86113264 -8.54378045 -64.69140625 -14.65234375 C-62.02701524 -15.43244126 -59.41162285 -16.03469677 -56.6796875 -16.5234375 C-55.91914062 -16.66394531 -55.15859375 -16.80445312 -54.375 -16.94921875 C-33.7441405 -19.83198195 -15.20474162 -14.25146629 0 0 Z " fill="#F5F5F5" transform="translate(630.6796875,86.5234375)"/>
<path d="M0 0 C15.49051863 13.26429345 21.99651746 29.63968472 24.8359375 49.515625 C24.8359375 54.795625 24.8359375 60.075625 24.8359375 65.515625 C-4.8640625 65.515625 -34.5640625 65.515625 -65.1640625 65.515625 C-62.93393617 76.66625667 -60.37331106 85.97256459 -51.1796875 93.18359375 C-43.5384178 98.23334757 -35.15938457 99.34305279 -26.1640625 98.515625 C-15.45066055 96.10256567 -8.75175818 89.95611009 -2.1640625 81.515625 C3.32917615 83.34670455 6.33263296 89.08157453 9.8359375 93.515625 C10.91488281 94.79759766 10.91488281 94.79759766 12.015625 96.10546875 C12.65757812 96.88019531 13.29953125 97.65492188 13.9609375 98.453125 C14.54101562 99.14277344 15.12109375 99.83242187 15.71875 100.54296875 C16.8359375 102.515625 16.8359375 102.515625 16.81640625 104.49609375 C12.73027873 112.91253968 1.03080314 118.0590727 -7.1640625 121.515625 C-8.06640625 121.92941406 -8.96875 122.34320313 -9.8984375 122.76953125 C-24.75794996 128.53261243 -44.12396505 127.53355465 -58.890625 121.9921875 C-76.72839829 113.94603201 -88.61794835 100.3447859 -96.1640625 82.515625 C-97.46966243 78.55117557 -98.42557771 74.62160045 -99.1640625 70.515625 C-99.29425781 69.79503906 -99.42445313 69.07445312 -99.55859375 68.33203125 C-102.18751139 49.78939882 -99.86828308 31.16595308 -88.8046875 15.66015625 C-88.26328125 14.95246094 -87.721875 14.24476562 -87.1640625 13.515625 C-86.60203125 12.77699219 -86.04 12.03835937 -85.4609375 11.27734375 C-65.47677877 -13.03111824 -25.34652158 -20.55626154 0 0 Z " fill="#F5F6F6" transform="translate(363.1640625,80.484375)"/>
<path d="M0 0 C11.88 0 23.76 0 36 0 C36 14.52 36 29.04 36 44 C45.9 44 55.8 44 66 44 C66.020625 48.599375 66.04125 53.19875 66.0625 57.9375 C66.071604 59.39019287 66.08070801 60.84288574 66.09008789 62.33959961 C66.09258545 63.47405518 66.09508301 64.60851074 66.09765625 65.77734375 C66.10289307 66.94515381 66.10812988 68.11296387 66.11352539 69.31616211 C66 72 66 72 65 73 C62.85441173 73.08775605 60.70595579 73.10695219 58.55859375 73.09765625 C57.25341797 73.09443359 55.94824219 73.09121094 54.60351562 73.08789062 C53.2148431 73.07953401 51.82617123 73.07106905 50.4375 73.0625 C49.04492344 73.05748666 47.65234519 73.05292347 46.25976562 73.04882812 C42.8398013 73.03699434 39.41992156 73.0205088 36 73 C36.01488143 81.64968674 36.05650314 90.29871405 36.13209057 98.94808483 C36.16635437 102.96457038 36.1914695 106.98067584 36.19555664 110.99731445 C36.19984107 114.87505773 36.22831405 118.75194369 36.27343178 122.62941933 C36.28640246 124.10730301 36.29071592 125.58528932 36.28615379 127.06322289 C36.28124394 129.13707947 36.30734807 131.20843389 36.34057617 133.28198242 C36.34723801 134.46112717 36.35389984 135.64027191 36.36076355 136.85514832 C37.18613298 140.91571844 38.82601316 142.42473333 42 145 C44.31294107 145.63503738 44.31294107 145.63503738 46.6875 145.375 C47.55117187 145.33503906 48.41484375 145.29507813 49.3046875 145.25390625 C52.77867132 144.92664691 56.23211392 144.48929045 59.67578125 143.92578125 C62.92795409 144.02963215 64.45649626 144.99227218 67 147 C67.56762695 149.8190918 67.56762695 149.8190918 67.48828125 153.19921875 C67.47216797 154.40771484 67.45605469 155.61621094 67.43945312 156.86132812 C67.39755859 158.12396484 67.35566406 159.38660156 67.3125 160.6875 C67.28994141 161.96173828 67.26738281 163.23597656 67.24414062 164.54882812 C67.18512262 167.7003896 67.10282975 170.84961279 67 174 C50.13068131 177.58739942 31.3232963 180.5167884 15.53515625 171.609375 C6.79051455 165.42136039 2.97018014 158.05615175 0.45729065 147.78083801 C-0.09495492 144.42256799 -0.1194875 141.22736522 -0.11352539 137.82299805 C-0.11367142 137.12001083 -0.11381744 136.41702362 -0.1139679 135.69273376 C-0.11327441 133.38236341 -0.10550857 131.07207492 -0.09765625 128.76171875 C-0.09579006 127.15460759 -0.09436711 125.54749585 -0.09336853 123.94038391 C-0.08955915 119.72031063 -0.07974239 115.50027203 -0.06866455 111.2802124 C-0.05841643 106.97001616 -0.05386363 102.6598143 -0.04882812 98.34960938 C-0.03811867 89.89972371 -0.02106127 81.44986617 0 73 C-1.28777344 73.01160156 -2.57554687 73.02320312 -3.90234375 73.03515625 C-5.58072772 73.0445327 -7.25911326 73.05363305 -8.9375 73.0625 C-9.78763672 73.07087891 -10.63777344 73.07925781 -11.51367188 73.08789062 C-12.32255859 73.09111328 -13.13144531 73.09433594 -13.96484375 73.09765625 C-14.7137085 73.10289307 -15.46257324 73.10812988 -16.23413086 73.11352539 C-18 73 -18 73 -19 72 C-19.08767112 69.92737924 -19.10695873 67.85179706 -19.09765625 65.77734375 C-19.09443359 64.51728516 -19.09121094 63.25722656 -19.08789062 61.95898438 C-19.07953403 60.61848891 -19.07106907 59.27799412 -19.0625 57.9375 C-19.0574866 56.59310058 -19.05292342 55.2486994 -19.04882812 53.90429688 C-19.03699497 50.60284567 -19.01905886 47.3014174 -19 44 C-12.73 44 -6.46 44 0 44 C0 29.48 0 14.96 0 0 Z " fill="#F8F8F8" transform="translate(188,28)"/>
<path d="M0 0 C4.82380802 -0.0246519 9.64757967 -0.04283693 14.47143555 -0.05493164 C16.11369464 -0.05997174 17.75594923 -0.06680378 19.39819336 -0.07543945 C21.75375479 -0.08751926 24.10925709 -0.09323139 26.46484375 -0.09765625 C27.20339096 -0.10281754 27.94193817 -0.10797882 28.7028656 -0.11329651 C30.46898088 -0.1134925 32.23497146 -0.06194719 34 0 C35.68560712 1.68560712 35.12475509 3.76884367 35.13374341 6.01879168 C35.13151268 6.74280405 35.12928196 7.46681642 35.12698364 8.21276855 C35.12854363 8.97654171 35.13010362 9.74031486 35.13171089 10.52723265 C35.13572384 13.10606491 35.13253011 15.68483909 35.12939453 18.26367188 C35.13074844 20.10453832 35.13252832 21.94540449 35.13470459 23.78627014 C35.13928014 28.80058768 35.13748886 33.81488474 35.1343255 38.82920265 C35.13180253 44.06448041 35.13413927 49.29975636 35.13571167 54.53503418 C35.13753355 63.32853512 35.13512658 72.12202768 35.13037109 80.91552734 C35.12492844 91.09760253 35.12669108 101.27965769 35.1321975 111.46173239 C35.13672811 120.18696308 35.13737944 128.91218773 35.13475883 137.63741922 C35.13319577 142.85601537 35.13300309 148.07460209 35.13629532 153.29319763 C35.13917328 158.19817993 35.13719974 163.10313629 35.13140106 168.00811577 C35.13007306 169.81376032 35.13046826 171.61940703 35.13266373 173.42505074 C35.13537366 175.87914096 35.13199606 178.33314669 35.12698364 180.78723145 C35.12921436 181.51124382 35.13144509 182.23525619 35.13374341 182.98120832 C35.11414986 187.88585014 35.11414986 187.88585014 34 189 C31.56339554 189.10082764 29.15575299 189.13972603 26.71875 189.1328125 C25.99006714 189.13376923 25.26138428 189.13472595 24.51062012 189.13571167 C22.9672029 189.13639335 21.42378283 189.13453988 19.88037109 189.13037109 C17.510026 189.12502262 15.13987041 189.13031642 12.76953125 189.13671875 C11.27343708 189.13605797 9.77734303 189.1347768 8.28125 189.1328125 C7.21094543 189.13584885 7.21094543 189.13584885 6.11901855 189.13894653 C1.11495191 189.11495191 1.11495191 189.11495191 0 188 C-0.09768222 185.57150529 -0.12996531 183.17148637 -0.12025452 180.74253845 C-0.12110894 179.97397618 -0.12196337 179.20541391 -0.12284368 178.41356188 C-0.12450081 175.81857214 -0.11897334 173.22364597 -0.11352539 170.62866211 C-0.11324354 168.77632143 -0.1134012 166.92398063 -0.1139679 165.07164001 C-0.11425597 160.02639589 -0.10835773 154.98117532 -0.10139394 149.93593669 C-0.09516195 144.66949631 -0.09455672 139.40305544 -0.09336853 134.13661194 C-0.09025475 124.15642042 -0.08204075 114.1762398 -0.07201904 104.19605309 C-0.06085933 92.8371181 -0.05534781 81.4781826 -0.05032361 70.1192435 C-0.03985817 46.74615628 -0.02225784 23.37307875 0 0 Z " fill="#F6F6F6" transform="translate(406,15)"/>
<path d="M0 0 C0.83982422 -0.00128906 1.67964844 -0.00257812 2.54492188 -0.00390625 C3.84719727 0.00189453 3.84719727 0.00189453 5.17578125 0.0078125 C6.49545898 0.00201172 6.49545898 0.00201172 7.84179688 -0.00390625 C8.67775391 -0.00261719 9.51371094 -0.00132813 10.375 0 C11.14030029 0.00112793 11.90560059 0.00225586 12.6940918 0.00341797 C14.48828125 0.1328125 14.48828125 0.1328125 15.48828125 1.1328125 C15.5760373 3.27840077 15.59523344 5.42685671 15.5859375 7.57421875 C15.58110352 9.53198242 15.58110352 9.53198242 15.57617188 11.52929688 C15.56781526 12.9179694 15.5593503 14.30664127 15.55078125 15.6953125 C15.54576791 17.08788906 15.54120472 18.48046731 15.53710938 19.87304688 C15.52527559 23.2930112 15.50879005 26.71289094 15.48828125 30.1328125 C14.27914062 30.14699219 13.07 30.16117188 11.82421875 30.17578125 C-1.72467332 30.50082131 -13.99963216 32.07649699 -24.73828125 41.23828125 C-30.81515927 47.73010028 -31.64765778 55.28475455 -31.71704102 63.8605957 C-31.72694061 64.62210434 -31.73684021 65.38361298 -31.74703979 66.16819763 C-31.77850695 68.67329856 -31.80335345 71.17841842 -31.828125 73.68359375 C-31.84870731 75.42523173 -31.86970412 77.16686485 -31.89109802 78.90849304 C-31.94618682 83.48361268 -31.99565407 88.05877641 -32.04394531 92.63397217 C-32.1031088 98.12818454 -32.16926394 103.62231665 -32.2342453 109.11646271 C-32.33208876 117.45519679 -32.42105834 125.79398329 -32.51171875 134.1328125 C-44.06171875 134.1328125 -55.61171875 134.1328125 -67.51171875 134.1328125 C-67.51171875 90.5728125 -67.51171875 47.0128125 -67.51171875 2.1328125 C-55.96171875 2.1328125 -44.41171875 2.1328125 -32.51171875 2.1328125 C-32.01671875 8.5678125 -32.01671875 8.5678125 -31.51171875 15.1328125 C-30.12984375 13.9365625 -28.74796875 12.7403125 -27.32421875 11.5078125 C-19.61470183 5.31600362 -10.1038802 0.01482594 0 0 Z " fill="#F6F6F6" transform="translate(733.51171875,69.8671875)"/>
<path d="M0 0 C8.75875239 6.22590421 13.5470704 14.22719515 15.78125 24.67578125 C15.86509385 26.20226911 15.89906972 27.73195949 15.89477539 29.26074219 C15.89465454 30.17388184 15.89453369 31.08702148 15.89440918 32.02783203 C15.88929321 32.97899902 15.88417725 33.93016602 15.87890625 34.91015625 C15.87789917 35.79074707 15.87689209 36.67133789 15.87585449 37.57861328 C15.87063133 40.86101589 15.85667006 44.14339991 15.84375 47.42578125 C15.823125 54.76828125 15.8025 62.11078125 15.78125 69.67578125 C-6.98875 69.67578125 -29.75875 69.67578125 -53.21875 69.67578125 C-53.30125 62.68390625 -53.38375 55.69203125 -53.46875 48.48828125 C-53.52337402 45.22014526 -53.52337402 45.22014526 -53.57910156 41.88598633 C-53.70285102 29.20277278 -53.58135295 16.63463502 -44.9765625 6.38671875 C-33.0983318 -5.17475913 -14.65065669 -8.74396587 0 0 Z " fill="#060606" transform="translate(97.21875,52.32421875)"/>
<path d="M0 0 C11.22 0 22.44 0 34 0 C34 43.56 34 87.12 34 132 C22.78 132 11.56 132 0 132 C0 88.44 0 44.88 0 0 Z " fill="#F5F5F5" transform="translate(468,72)"/>
<path d="M0 0 C46.2 0 92.4 0 140 0 C140 6.93 140 13.86 140 21 C93.8 21 47.6 21 0 21 C0 14.07 0 7.14 0 0 Z " fill="#00B0F2" transform="translate(10,222)"/>
<path d="M0 0 C8.18649326 5.10765993 11.93483876 12.43430593 14.5 21.5 C14.5 21.83 14.5 22.16 14.5 22.5 C-3.98 22.5 -22.46 22.5 -41.5 22.5 C-38.6681234 12.5884319 -33.39552725 5.81987414 -24.5 0.5 C-17.64792849 -2.90846634 -7.06773052 -3.13812789 0 0 Z " fill="#060606" transform="translate(340.5,100.5)"/>
<path d="M0 0 C6.27855469 2.782979 10.82392843 7.13021496 14.046875 13.19140625 C15.036875 16.49140625 16.026875 19.79140625 17.046875 23.19140625 C-1.433125 23.19140625 -19.913125 23.19140625 -38.953125 23.19140625 C-37.14076304 14.12959646 -31.41950329 7.48924085 -23.953125 2.19140625 C-16.61525865 -2.17441926 -8.16308282 -2.23512982 0 0 Z " fill="#060605" transform="translate(597.953125,99.80859375)"/>
<path d="M0 0 C3.72847577 2.21258624 5.79562976 4.32592237 7.5625 8.375 C8.36836103 14.59031895 8.25720566 20.09684905 4.5625 25.375 C0.13319127 29.38906103 -3.92169461 29.5558213 -9.75 29.625 C-11.04550781 29.65078125 -12.34101563 29.6765625 -13.67578125 29.703125 C-18.96754676 29.24153798 -22.19792262 27.74858574 -25.75 23.8125 C-29.03668454 19.06506677 -29.01579917 15.04743451 -28.4375 9.375 C-27.38969127 5.61563218 -25.75498616 3.29614697 -22.5546875 1.05859375 C-15.44370542 -2.59884685 -7.38723136 -3.26795737 0 0 Z " fill="#EAEAEA" transform="translate(493.4375,34.625)"/>
<path d="M0 0 C0.66 0 1.32 0 2 0 C2 61.71 2 123.42 2 187 C17.345 186.505 17.345 186.505 33 186 C33.495 94.425 33.495 94.425 34 1 C34.33 1 34.66 1 35 1 C35.02332615 25.36449922 35.04097777 49.72899678 35.05181217 74.09350491 C35.05697574 85.40552073 35.06401958 96.71752963 35.07543945 108.02954102 C35.08538445 117.88527702 35.09185299 127.74100801 35.09408849 137.59674889 C35.09539592 142.81871636 35.09848374 148.04066948 35.10573006 153.26263237 C35.11248737 158.17170108 35.11461755 163.08074946 35.11310768 167.98982239 C35.11338414 169.79708021 35.11539097 171.60433867 35.11920547 173.41159248 C35.12413823 175.86792125 35.12299985 178.32417196 35.12025452 180.78050232 C35.12316736 181.50519681 35.1260802 182.2298913 35.12908131 182.97654623 C35.11412121 187.88587879 35.11412121 187.88587879 34 189 C31.56339554 189.10082764 29.15575299 189.13972603 26.71875 189.1328125 C25.99006714 189.13376923 25.26138428 189.13472595 24.51062012 189.13571167 C22.9672029 189.13639335 21.42378283 189.13453988 19.88037109 189.13037109 C17.510026 189.12502262 15.13987041 189.13031642 12.76953125 189.13671875 C11.27343708 189.13605797 9.77734303 189.1347768 8.28125 189.1328125 C7.21094543 189.13584885 7.21094543 189.13584885 6.11901855 189.13894653 C1.11495191 189.11495191 1.11495191 189.11495191 0 188 C-0.09768222 185.57150529 -0.12996531 183.17148637 -0.12025452 180.74253845 C-0.12110894 179.97397618 -0.12196337 179.20541391 -0.12284368 178.41356188 C-0.12450081 175.81857214 -0.11897334 173.22364597 -0.11352539 170.62866211 C-0.11324354 168.77632143 -0.1134012 166.92398063 -0.1139679 165.07164001 C-0.11425597 160.02639589 -0.10835773 154.98117532 -0.10139394 149.93593669 C-0.09516195 144.66949631 -0.09455672 139.40305544 -0.09336853 134.13661194 C-0.09025475 124.15642042 -0.08204075 114.1762398 -0.07201904 104.19605309 C-0.06085933 92.8371181 -0.05534781 81.4781826 -0.05032361 70.1192435 C-0.03985817 46.74615628 -0.02225784 23.37307875 0 0 Z " fill="#E9E9E9" transform="translate(406,15)"/>
<path d="M0 0 C10.56 0 21.12 0 32 0 C32 43.56 32 87.12 32 132 C21.44 132 10.88 132 0 132 C0 131.34 0 130.68 0 130 C9.9 130 19.8 130 30 130 C30 87.43 30 44.86 30 1 C28.02 1.33 26.04 1.66 24 2 C20.43832872 2.20200118 16.87942049 2.18504851 13.3125 2.1875 C12.36310547 2.19974609 11.41371094 2.21199219 10.43554688 2.22460938 C9.06946289 2.22750977 9.06946289 2.22750977 7.67578125 2.23046875 C6.4369519 2.23663208 6.4369519 2.23663208 5.1730957 2.24291992 C3 2 3 2 0 0 Z " fill="#FCFCFB" transform="translate(470,72)"/>
<path d="M0 0 C0.33 0 0.66 0 1 0 C1 42.57 1 85.14 1 129 C11.56 129 22.12 129 33 129 C32.97679687 123.77671875 32.95359375 118.5534375 32.9296875 113.171875 C32.91946871 109.86327628 32.9098408 106.55469702 32.90234375 103.24609375 C32.89038712 97.99426229 32.8762406 92.74250056 32.84912109 87.49072266 C32.82739411 83.25673915 32.81543166 79.02283042 32.81024551 74.78879547 C32.8065495 73.17325921 32.79933215 71.55772704 32.78853989 69.9422226 C32.77402682 67.67981617 32.77202197 65.41771891 32.77294922 63.15527344 C32.768508 61.86731873 32.76406677 60.57936401 32.75949097 59.25238037 C33 56 33 56 35 52 C35 78.07 35 104.14 35 131 C23.45 131 11.9 131 0 131 C0 87.77 0 44.54 0 0 Z " fill="#FCFDFC" transform="translate(666,73)"/>
<path d="M0 0 C0.33 0 0.66 0 1 0 C1.33 5.94 1.66 11.88 2 18 C-44.2 18 -90.4 18 -138 18 C-138 17.34 -138 16.68 -138 16 C-92.46 16 -46.92 16 0 16 C0 10.72 0 5.44 0 0 Z " fill="#01A8DD" transform="translate(148,225)"/>
<path d="M0 0 C0.66 0 1.32 0 2 0 C2 14.85 2 29.7 2 45 C-20.77 45 -43.54 45 -67 45 C-67 44.67 -67 44.34 -67 44 C-45.22 43.67 -23.44 43.34 -1 43 C-0.67 28.81 -0.34 14.62 0 0 Z " fill="#303131" transform="translate(111,77)"/>
<path d="M0 0 C0.66 0.33 1.32 0.66 2 1 C2 1.66 2 2.32 2 3 C-6.35873272 6.58231402 -14.07985057 6.29551415 -23 6 C-23 5.01 -23 4.02 -23 3 C-22.09378906 3.03480469 -21.18757813 3.06960937 -20.25390625 3.10546875 C-13.53761633 3.25471964 -7.90642649 3.19538714 -1.671875 0.55859375 C-1.12015625 0.37425781 -0.5684375 0.18992188 0 0 Z " fill="#F3F3F3" transform="translate(346,176)"/>
<path d="M0 0 C5.875 1.875 5.875 1.875 7 3 C7.08758003 4.99964982 7.10696576 7.0023611 7.09765625 9.00390625 C7.09443359 10.21884766 7.09121094 11.43378906 7.08789062 12.68554688 C7.07951172 13.96494141 7.07113281 15.24433594 7.0625 16.5625 C7.05798828 17.84576172 7.05347656 19.12902344 7.04882812 20.45117188 C7.03699545 23.63416022 7.02051068 26.81705762 7 30 C6.67 30 6.34 30 6 30 C5.67 21.75 5.34 13.5 5 5 C2.525 4.01 2.525 4.01 0 3 C0 2.01 0 1.02 0 0 Z " fill="#E3E4E4" transform="translate(248,172)"/>
<path d="M0 0 C0.33 0.66 0.66 1.32 1 2 C0.34 1.67 -0.32 1.34 -1 1 C-0.67 0.67 -0.34 0.34 0 0 Z M-3 2 C-2.01 2.33 -1.02 2.66 0 3 C-2.80804268 5.96404505 -5.18315774 8.44499019 -9 10 C-7.55746343 6.63408134 -5.66735273 4.48952921 -3 2 Z M-11 11 C-10.34 11.66 -9.68 12.32 -9 13 C-10.98 13.99 -10.98 13.99 -13 15 C-12.34 13.68 -11.68 12.36 -11 11 Z M-14 15 C-14 18 -14 18 -14 18 Z " fill="#F1F1F1" transform="translate(287,83)"/>
<path d="M0 0 C1.67542976 0.28604898 3.34385343 0.61781233 5 1 C3.8553125 1.8971875 3.8553125 1.8971875 2.6875 2.8125 C-2.34695856 6.87954337 -2.34695856 6.87954337 -4 13 C-4.33 13 -4.66 13 -5 13 C-5.8125 9.8125 -5.8125 9.8125 -6 6 C-3.625 3.125 -3.625 3.125 -1 1 C-0.67 0.67 -0.34 0.34 0 0 Z " fill="#E1E0E0" transform="translate(472,35)"/>
<path d="M0 0 C1.051875 0.00773437 2.10375 0.01546875 3.1875 0.0234375 C4.239375 0.01570313 5.29125 0.00796875 6.375 0 C9.1875 0.3984375 9.1875 0.3984375 12.1875 3.3984375 C6.2475 3.3984375 0.3075 3.3984375 -5.8125 3.3984375 C-2.8125 0.3984375 -2.8125 0.3984375 0 0 Z " fill="#EFEFEF" transform="translate(323.8125,68.6015625)"/>
<path d="M0 0 C0.66 0.66 1.32 1.32 2 2 C0.60974609 2.09087891 0.60974609 2.09087891 -0.80859375 2.18359375 C-2.00613281 2.26738281 -3.20367187 2.35117188 -4.4375 2.4375 C-5.63246094 2.51871094 -6.82742187 2.59992187 -8.05859375 2.68359375 C-10.88570244 2.67656114 -10.88570244 2.67656114 -12 4 C-13.66617115 4.04063832 -15.33388095 4.042721 -17 4 C-16.67 3.01 -16.34 2.02 -16 1 C-10.60293036 0.22899005 -5.45399653 -0.28210327 0 0 Z " fill="#E3E4E3" transform="translate(83,10)"/>
<path d="M0 0 C2.31 0.33 4.62 0.66 7 1 C7 1.66 7 2.32 7 3 C9.31 3 11.62 3 14 3 C14.33 3.66 14.66 4.32 15 5 C9.5814234 5.22577402 5.22512279 4.46670113 0 3 C0 2.01 0 1.02 0 0 Z " fill="#E7E8E7" transform="translate(309,201)"/>
<path d="M0 0 C0 0.66 0 1.32 0 2 C-7.42857143 4.42857143 -7.42857143 4.42857143 -11 3 C-10 1 -10 1 -6.625 -0.1875 C-3 -1 -3 -1 0 0 Z M-13 4 C-11 5 -11 5 -11 5 Z " fill="#EDEEEE" transform="translate(732,71)"/>
<path d="M0 0 C0.33 0.66 0.66 1.32 1 2 C0.34 2 -0.32 2 -1 2 C-1.33 2.66 -1.66 3.32 -2 4 C-2.99 3.67 -3.98 3.34 -5 3 C-3.35 2.01 -1.7 1.02 0 0 Z M-7 4 C-6.34 4 -5.68 4 -5 4 C-5.33 4.99 -5.66 5.98 -6 7 C-6.66 6.34 -7.32 5.68 -8 5 C-7.67 4.67 -7.34 4.34 -7 4 Z M-10 6 C-9.34 6.33 -8.68 6.66 -8 7 C-9.98 7.99 -9.98 7.99 -12 9 C-11.34 8.01 -10.68 7.02 -10 6 Z M-15 10 C-14.34 10.33 -13.68 10.66 -13 11 C-13.99 11.99 -14.98 12.98 -16 14 C-16.66 13.67 -17.32 13.34 -18 13 C-17.01 12.01 -16.02 11.02 -15 10 Z " fill="#EDEEEE" transform="translate(46,18)"/>
<path d="M0 0 C0 0.66 0 1.32 0 2 C-4.455 3.485 -4.455 3.485 -9 5 C-9.66 4.01 -10.32 3.02 -11 2 C-9.54494642 1.47007308 -8.08581873 0.9513211 -6.625 0.4375 C-5.81289063 0.14746094 -5.00078125 -0.14257812 -4.1640625 -0.44140625 C-2 -1 -2 -1 0 0 Z " fill="#E8E9E9" transform="translate(348,177)"/>
<path d="M0 0 C5.53846154 0.61538462 5.53846154 0.61538462 7.875 2.5625 C8.431875 3.2740625 8.431875 3.2740625 9 4 C8.67 4.66 8.34 5.32 8 6 C6.66402348 5.19185349 5.331275 4.37836819 4 3.5625 C3.2575 3.11003906 2.515 2.65757812 1.75 2.19140625 C1.1725 1.79824219 0.595 1.40507812 0 1 C0 0.67 0 0.34 0 0 Z " fill="#E8E8E8" transform="translate(295,196)"/>
<path d="M0 0 C0.66 0.33 1.32 0.66 2 1 C1.67 3.97 1.34 6.94 1 10 C0.01 10.33 -0.98 10.66 -2 11 C-1.125 3.375 -1.125 3.375 0 0 Z " fill="#ECECEC" transform="translate(526,111)"/>
<path d="M0 0 C0.99 0.495 0.99 0.495 2 1 C2 1.66 2 2.32 2 3 C2.66 3 3.32 3 4 3 C4.33 5.31 4.66 7.62 5 10 C4.01 10.495 4.01 10.495 3 11 C2.49384702 9.73160474 1.99530901 8.46016898 1.5 7.1875 C1.2215625 6.47980469 0.943125 5.77210937 0.65625 5.04296875 C0 3 0 3 0 0 Z " fill="#ECEDEC" transform="translate(108,62)"/>
<path d="M0 0 C0.99 0.33 1.98 0.66 3 1 C1.625 3.5 1.625 3.5 0 6 C-0.66 6 -1.32 6 -2 6 C-2.33 6.99 -2.66 7.98 -3 9 C-3.33 8.34 -3.66 7.68 -4 7 C-3.22265625 5.2734375 -3.22265625 5.2734375 -2.0625 3.375 C-1.381875 2.26125 -0.70125 1.1475 0 0 Z " fill="#E9E9E9" transform="translate(532,99)"/>
<path d="M0 0 C-1 1.5 -1 1.5 -3 3 C-5.71846235 3.27345479 -8.25677199 3.13491285 -11 3 C-7.48550811 -0.37391222 -4.73940561 -0.27342725 0 0 Z " fill="#EFEFEF" transform="translate(591,69)"/>
<path d="M0 0 C0.66 0.33 1.32 0.66 2 1 C1.34 3.64 0.68 6.28 0 9 C-0.99 9 -1.98 9 -3 9 C-3 7.68 -3 6.36 -3 5 C-2.34 5 -1.68 5 -1 5 C-0.67 3.35 -0.34 1.7 0 0 Z " fill="#E9E9E9" transform="translate(702,117)"/>
<path d="M0 0 C-0.33 0.66 -0.66 1.32 -1 2 C-3.32156597 2.40729228 -5.6568787 2.74438677 -8 3 C-7.67 2.01 -7.34 1.02 -7 0 C-4.05610218 -1.17755913 -3.10046087 -1.03348696 0 0 Z " fill="#EEEEEE" transform="translate(612,202)"/>
<path d="M0 0 C0.99 0.33 1.98 0.66 3 1 C2.01 1.33 1.02 1.66 0 2 C0 1.34 0 0.68 0 0 Z M-2 3 C-1.34 3.66 -0.68 4.32 0 5 C-1.98 5.99 -1.98 5.99 -4 7 C-3.34 5.68 -2.68 4.36 -2 3 Z M-5 7 C-5 10 -5 10 -5 10 Z " fill="#EBECEB" transform="translate(278,91)"/>
</svg>
