<?xml version="1.0" encoding="UTF-8"?>
<!DOCTYPE svg PUBLIC "-//W3C//DTD SVG 1.1//EN" "http://www.w3.org/Graphics/SVG/1.1/DTD/svg11.dtd">
<svg xmlns="http://www.w3.org/2000/svg" version="1.1" width="1024px" height="1024px" style="shape-rendering:geometricPrecision; text-rendering:geometricPrecision; image-rendering:optimizeQuality; fill-rule:evenodd; clip-rule:evenodd" xmlns:xlink="http://www.w3.org/1999/xlink">
<g><path style="opacity:1" fill="#090a09" d="M -0.5,-0.5 C 340.833,-0.5 682.167,-0.5 1023.5,-0.5C 1023.5,340.833 1023.5,682.167 1023.5,1023.5C 682.167,1023.5 340.833,1023.5 -0.5,1023.5C -0.5,682.167 -0.5,340.833 -0.5,-0.5 Z"/></g>
<g><path style="opacity:1" fill="#130804" d="M 847.5,513.5 C 844.757,500.348 839.09,488.682 830.5,478.5C 828.105,475.139 825.105,472.472 821.5,470.5C 818.033,467.39 814.033,465.057 809.5,463.5C 810.602,462.824 811.602,462.158 812.5,461.5C 815.54,460.32 818.206,458.653 820.5,456.5C 827.214,452.12 832.548,446.453 836.5,439.5C 842.498,430.006 845.998,419.673 847,408.5C 825.021,399.31 803.855,400.977 783.5,413.5C 782.833,409.167 782.167,404.833 781.5,400.5C 780.487,389.488 776.487,379.822 769.5,371.5C 766.49,365.977 762.49,361.144 757.5,357C 755.788,355.249 753.788,354.582 751.5,355C 738.945,364.715 730.612,377.215 726.5,392.5C 724.985,399.759 723.985,407.093 723.5,414.5C 707.346,404.698 690.012,401.365 671.5,404.5C 667.838,404.723 664.505,405.723 661.5,407.5C 660.005,407.415 659.005,408.081 658.5,409.5C 661.194,423.427 666.694,436.094 675,447.5C 678.767,451.776 682.934,455.443 687.5,458.5C 685.345,458.628 683.345,458.128 681.5,457C 674.704,451.56 669.204,445.06 665,437.5C 661.384,428.779 658.217,419.946 655.5,411C 656.09,409.491 656.756,407.991 657.5,406.5C 669.121,400.757 681.454,398.924 694.5,401C 703.211,402.204 711.544,404.704 719.5,408.5C 719.808,409.308 720.308,409.975 721,410.5C 721.82,385.538 732.32,365.871 752.5,351.5C 773.207,365.57 784.04,385.236 785,410.5C 788.773,407.696 792.94,405.529 797.5,404C 812.934,398.914 828.267,398.914 843.5,404C 846.561,404.849 849.228,406.349 851.5,408.5C 848.3,425.401 840.966,440.234 829.5,453C 825.316,456.585 820.983,459.918 816.5,463C 834.106,475.031 845.106,491.531 849.5,512.5C 849.333,513.5 849.167,514.5 849,515.5C 848.722,514.584 848.222,513.918 847.5,513.5 Z"/></g>
<g><path style="opacity:1" fill="#f85b1c" d="M 737.5,385.5 C 736.677,388.461 736.01,391.461 735.5,394.5C 734.043,396.242 732.876,398.242 732,400.5C 731,399.167 730,399.167 729,400.5C 728.371,396.129 728.537,391.796 729.5,387.5C 730.167,386.167 730.833,384.833 731.5,383.5C 732.695,383.322 733.862,382.989 735,382.5C 736.749,382.748 737.582,383.748 737.5,385.5 Z"/></g>
<g><path style="opacity:1" fill="#f6342e" d="M 769.5,371.5 C 770.828,376.494 772.995,381.161 776,385.5C 779.055,394.575 780.222,403.909 779.5,413.5C 778.533,412.194 777.199,411.527 775.5,411.5C 775.318,406.206 774.818,406.206 774,411.5C 773.751,405.936 772.918,400.602 771.5,395.5C 768.481,384.983 763.148,375.816 755.5,368C 753.833,367.333 752.167,367.333 750.5,368C 745.536,373.455 741.203,379.289 737.5,385.5C 737.582,383.748 736.749,382.748 735,382.5C 733.862,382.989 732.695,383.322 731.5,383.5C 735.87,372.462 742.87,363.462 752.5,356.5C 758.502,361.171 764.168,366.171 769.5,371.5 Z"/></g>
<g><path style="opacity:1" fill="#e2514d" d="M 769.5,371.5 C 764.168,366.171 758.502,361.171 752.5,356.5C 742.87,363.462 735.87,372.462 731.5,383.5C 730.833,384.833 730.167,386.167 729.5,387.5C 728.313,389.072 727.313,390.739 726.5,392.5C 730.612,377.215 738.945,364.715 751.5,355C 753.788,354.582 755.788,355.249 757.5,357C 762.49,361.144 766.49,365.977 769.5,371.5 Z"/></g>
<g><path style="opacity:1" fill="#e1454c" d="M 771.5,395.5 C 771.666,404.839 771.5,414.173 771,423.5C 768.182,428.513 769.349,429.68 774.5,427C 775.191,425.933 775.691,424.766 776,423.5C 776.875,425.513 778.209,425.513 780,423.5C 780.333,423.833 780.667,424.167 781,424.5C 786.92,422.604 792.42,419.77 797.5,416C 807.403,411.903 817.737,410.569 828.5,412C 831.543,412.798 834.376,413.965 837,415.5C 836.153,420.09 834.653,424.59 832.5,429C 832.833,429.5 833.167,430 833.5,430.5C 834.72,429.289 835.887,429.289 837,430.5C 837.974,428.122 838.641,428.456 839,431.5C 842.249,424.433 844.249,417.1 845,409.5C 841.27,408.085 837.437,406.918 833.5,406C 816.226,402.99 800.226,405.99 785.5,415C 783.011,415.941 781.011,415.441 779.5,413.5C 780.222,403.909 779.055,394.575 776,385.5C 772.995,381.161 770.828,376.494 769.5,371.5C 776.487,379.822 780.487,389.488 781.5,400.5C 781.173,405.214 781.507,409.88 782.5,414.5C 783.107,414.376 783.44,414.043 783.5,413.5C 803.855,400.977 825.021,399.31 847,408.5C 845.998,419.673 842.498,430.006 836.5,439.5C 836.44,438.957 836.107,438.624 835.5,438.5C 833.229,442.274 830.396,445.607 827,448.5C 824.385,447.689 821.552,447.689 818.5,448.5C 817.702,448.043 817.369,447.376 817.5,446.5C 826.354,437.958 832.021,427.625 834.5,415.5C 811.882,411.263 792.549,417.263 776.5,433.5C 772.453,434.184 768.786,435.851 765.5,438.5C 765.167,438.167 764.833,437.833 764.5,437.5C 767.67,432.668 769.336,427.335 769.5,421.5C 773.426,401.361 768.426,383.861 754.5,369C 753.365,368.251 752.365,368.417 751.5,369.5C 744.07,377.701 738.736,387.034 735.5,397.5C 735.5,396.5 735.5,395.5 735.5,394.5C 736.01,391.461 736.677,388.461 737.5,385.5C 741.203,379.289 745.536,373.455 750.5,368C 752.167,367.333 753.833,367.333 755.5,368C 763.148,375.816 768.481,384.983 771.5,395.5 Z"/></g>
<g><path style="opacity:1" fill="#f9da1d" d="M 723.5,414.5 C 723.5,415.167 723.833,415.5 724.5,415.5C 725.463,416.363 725.463,417.03 724.5,417.5C 720.757,414.962 716.757,412.962 712.5,411.5C 698.261,405.189 683.427,403.856 668,407.5C 667.167,407.333 666.333,407.167 665.5,407C 667.723,406.434 669.723,405.6 671.5,404.5C 690.012,401.365 707.346,404.698 723.5,414.5 Z"/></g>
<g><path style="opacity:1" fill="#681118" d="M 781.5,400.5 C 782.167,404.833 782.833,409.167 783.5,413.5C 783.44,414.043 783.107,414.376 782.5,414.5C 781.507,409.88 781.173,405.214 781.5,400.5 Z"/></g>
<g><path style="opacity:1" fill="#f57a14" d="M 729.5,387.5 C 728.537,391.796 728.371,396.129 729,400.5C 730,399.167 731,399.167 732,400.5C 732.876,398.242 734.043,396.242 735.5,394.5C 735.5,395.5 735.5,396.5 735.5,397.5C 735.5,402.833 735.5,408.167 735.5,413.5C 735.006,423.871 738.006,433.205 744.5,441.5C 743.098,443.146 741.264,444.146 739,444.5C 736.156,440.796 733.322,437.129 730.5,433.5C 728.717,430.9 726.717,428.566 724.5,426.5C 724.354,424.058 725.187,423.391 727,424.5C 727.296,416.278 726.962,407.945 726,399.5C 725.827,405.016 725.327,410.349 724.5,415.5C 723.833,415.5 723.5,415.167 723.5,414.5C 723.985,407.093 724.985,399.759 726.5,392.5C 727.313,390.739 728.313,389.072 729.5,387.5 Z"/></g>
<g><path style="opacity:1" fill="#f03738" d="M 771.5,395.5 C 772.918,400.602 773.751,405.936 774,411.5C 774.818,406.206 775.318,406.206 775.5,411.5C 777.199,411.527 778.533,412.194 779.5,413.5C 781.011,415.441 783.011,415.941 785.5,415C 800.226,405.99 816.226,402.99 833.5,406C 837.437,406.918 841.27,408.085 845,409.5C 844.249,417.1 842.249,424.433 839,431.5C 838.641,428.456 837.974,428.122 837,430.5C 835.887,429.289 834.72,429.289 833.5,430.5C 833.167,430 832.833,429.5 832.5,429C 834.653,424.59 836.153,420.09 837,415.5C 834.376,413.965 831.543,412.798 828.5,412C 817.737,410.569 807.403,411.903 797.5,416C 792.42,419.77 786.92,422.604 781,424.5C 780.667,424.167 780.333,423.833 780,423.5C 778.209,425.513 776.875,425.513 776,423.5C 775.691,424.766 775.191,425.933 774.5,427C 769.349,429.68 768.182,428.513 771,423.5C 771.5,414.173 771.666,404.839 771.5,395.5 Z"/></g>
<g><path style="opacity:1" fill="#fb940d" d="M 724.5,426.5 C 719.372,422.431 714.039,418.598 708.5,415C 710.675,415.049 712.842,415.549 715,416.5C 715.5,416.167 716,415.833 716.5,415.5C 715.335,414.416 714.002,413.583 712.5,413C 711.262,412.31 711.262,411.81 712.5,411.5C 716.757,412.962 720.757,414.962 724.5,417.5C 725.463,417.03 725.463,416.363 724.5,415.5C 725.327,410.349 725.827,405.016 726,399.5C 726.962,407.945 727.296,416.278 727,424.5C 725.187,423.391 724.354,424.058 724.5,426.5 Z"/></g>
<g><path style="opacity:1" fill="#efdb26" d="M 675.5,428.5 C 683.301,444.415 695.968,454.082 713.5,457.5C 720.5,458.167 727.5,458.833 734.5,459.5C 728.87,460.292 723.203,460.625 717.5,460.5C 710.61,460.091 704.277,458.091 698.5,454.5C 686.796,449.128 678.463,440.462 673.5,428.5C 673.97,427.537 674.637,427.537 675.5,428.5 Z"/></g>
<g><path style="opacity:1" fill="#f3dc22" d="M 661.5,407.5 C 665.243,407.459 665.41,408.126 662,409.5C 663.981,427.101 671.481,441.934 684.5,454C 687.732,456.114 691.065,457.947 694.5,459.5C 696.933,460.548 696.933,461.214 694.5,461.5C 692.046,460.773 689.713,459.773 687.5,458.5C 682.934,455.443 678.767,451.776 675,447.5C 666.694,436.094 661.194,423.427 658.5,409.5C 659.005,408.081 660.005,407.415 661.5,407.5 Z"/></g>
<g><path style="opacity:1" fill="#f3b205" d="M 671.5,404.5 C 669.723,405.6 667.723,406.434 665.5,407C 666.333,407.167 667.167,407.333 668,407.5C 683.427,403.856 698.261,405.189 712.5,411.5C 711.262,411.81 711.262,412.31 712.5,413C 714.002,413.583 715.335,414.416 716.5,415.5C 716,415.833 715.5,416.167 715,416.5C 712.842,415.549 710.675,415.049 708.5,415C 714.039,418.598 719.372,422.431 724.5,426.5C 726.717,428.566 728.717,430.9 730.5,433.5C 729.833,433.5 729.167,433.5 728.5,433.5C 720.985,424.647 711.651,418.647 700.5,415.5C 701.873,415.657 703.207,415.49 704.5,415C 693.626,411.099 682.626,410.599 671.5,413.5C 672.325,414.386 673.325,414.719 674.5,414.5C 673.602,415.158 672.602,415.824 671.5,416.5C 673.039,420.45 674.372,424.45 675.5,428.5C 674.637,427.537 673.97,427.537 673.5,428.5C 678.463,440.462 686.796,449.128 698.5,454.5C 696.369,455.314 694.036,455.814 691.5,456C 693.426,456.422 694.426,457.589 694.5,459.5C 691.065,457.947 687.732,456.114 684.5,454C 671.481,441.934 663.981,427.101 662,409.5C 665.41,408.126 665.243,407.459 661.5,407.5C 664.505,405.723 667.838,404.723 671.5,404.5 Z"/></g>
<g><path style="opacity:1" fill="#ebc514" d="M 700.5,415.5 C 691.867,414.623 683.2,414.289 674.5,414.5C 673.325,414.719 672.325,414.386 671.5,413.5C 682.626,410.599 693.626,411.099 704.5,415C 703.207,415.49 701.873,415.657 700.5,415.5 Z"/></g>
<g><path style="opacity:1" fill="#e77135" d="M 735.5,413.5 C 737.381,422.949 740.715,431.949 745.5,440.5C 746.347,443.16 746.847,445.826 747,448.5C 745.181,450.503 743.015,451.836 740.5,452.5C 737.276,445.73 733.276,439.396 728.5,433.5C 729.167,433.5 729.833,433.5 730.5,433.5C 733.322,437.129 736.156,440.796 739,444.5C 741.264,444.146 743.098,443.146 744.5,441.5C 738.006,433.205 735.006,423.871 735.5,413.5 Z"/></g>
<g><path style="opacity:1" fill="#d46350" d="M 745.5,440.5 C 750.246,444.342 751.746,449.342 750,455.5C 749.439,456.022 748.772,456.355 748,456.5C 745.502,455.003 743.002,453.67 740.5,452.5C 743.015,451.836 745.181,450.503 747,448.5C 746.847,445.826 746.347,443.16 745.5,440.5 Z"/></g>
<g><path style="opacity:1" fill="#ca3857" d="M 769.5,421.5 C 769.336,427.335 767.67,432.668 764.5,437.5C 764.833,437.833 765.167,438.167 765.5,438.5C 768.786,435.851 772.453,434.184 776.5,433.5C 774.427,437.308 772.094,440.974 769.5,444.5C 766.847,448.307 763.347,451.307 759,453.5C 758.228,453.355 757.561,453.022 757,452.5C 756.503,450.19 756.337,447.857 756.5,445.5C 762.402,438.363 766.736,430.363 769.5,421.5 Z"/></g>
<g><path style="opacity:1" fill="#c4435c" d="M 836.5,439.5 C 832.548,446.453 827.214,452.12 820.5,456.5C 819.07,456.421 817.736,456.754 816.5,457.5C 814.297,455.822 811.797,454.822 809,454.5C 807.97,454.164 807.47,453.497 807.5,452.5C 810.566,450.11 813.9,448.11 817.5,446.5C 817.369,447.376 817.702,448.043 818.5,448.5C 821.552,447.689 824.385,447.689 827,448.5C 830.396,445.607 833.229,442.274 835.5,438.5C 836.107,438.624 836.44,438.957 836.5,439.5 Z"/></g>
<g><path style="opacity:1" fill="#a24a62" d="M 769.5,444.5 C 767.878,450.572 764.045,454.572 758,456.5C 757.228,456.355 756.561,456.022 756,455.5C 755.192,451.973 755.359,448.64 756.5,445.5C 756.337,447.857 756.503,450.19 757,452.5C 757.561,453.022 758.228,453.355 759,453.5C 763.347,451.307 766.847,448.307 769.5,444.5 Z"/></g>
<g><path style="opacity:1" fill="#a94863" d="M 807.5,452.5 C 807.47,453.497 807.97,454.164 809,454.5C 811.797,454.822 814.297,455.822 816.5,457.5C 817.736,456.754 819.07,456.421 820.5,456.5C 818.206,458.653 815.54,460.32 812.5,461.5C 809.001,461.741 808.668,460.908 811.5,459C 809.616,458.784 807.949,458.117 806.5,457C 804.443,456.695 802.443,456.695 800.5,457C 801.381,456.292 802.047,455.458 802.5,454.5C 804.05,453.559 805.716,452.893 807.5,452.5 Z"/></g>
<g><path style="opacity:1" fill="#7f4d6a" d="M 802.5,454.5 C 802.047,455.458 801.381,456.292 800.5,457C 802.443,456.695 804.443,456.695 806.5,457C 807.949,458.117 809.616,458.784 811.5,459C 808.668,460.908 809.001,461.741 812.5,461.5C 811.602,462.158 810.602,462.824 809.5,463.5C 814.033,465.057 818.033,467.39 821.5,470.5C 821.5,471.167 821.167,471.5 820.5,471.5C 814.285,467.595 807.618,464.762 800.5,463C 795.523,461.893 790.523,460.893 785.5,460C 786.056,459.617 786.389,459.117 786.5,458.5C 791.847,457.296 797.18,455.963 802.5,454.5 Z"/></g>
<g><path style="opacity:1" fill="#c6b505" d="M 698.5,454.5 C 704.277,458.091 710.61,460.091 717.5,460.5C 713.299,464.179 708.465,465.512 703,464.5C 700.789,467.594 697.956,468.261 694.5,466.5C 694.158,465.662 693.492,465.328 692.5,465.5C 693.429,464.685 694.429,463.852 695.5,463C 694.944,462.617 694.611,462.117 694.5,461.5C 696.933,461.214 696.933,460.548 694.5,459.5C 694.426,457.589 693.426,456.422 691.5,456C 694.036,455.814 696.369,455.314 698.5,454.5 Z"/></g>
<g><path style="opacity:1" fill="#93982c" d="M 742.5,460.5 C 741.432,461.434 740.099,461.768 738.5,461.5C 738.719,462.675 738.386,463.675 737.5,464.5C 736.069,464.977 734.736,465.643 733.5,466.5C 733.709,467.086 734.043,467.586 734.5,468C 732.19,468.497 729.857,468.663 727.5,468.5C 723.833,468.5 720.167,468.5 716.5,468.5C 720.312,467.676 724.312,467.176 728.5,467C 727.167,466.333 725.833,465.667 724.5,465C 728.627,464.44 731.96,462.607 734.5,459.5C 727.5,458.833 720.5,458.167 713.5,457.5C 721.203,457.768 728.87,457.435 736.5,456.5C 738.871,457.347 740.871,458.68 742.5,460.5 Z"/></g>
<g><path style="opacity:1" fill="#7c904b" d="M 742.5,460.5 C 743.613,461.946 743.78,463.613 743,465.5C 738.294,469.413 733.128,470.413 727.5,468.5C 729.857,468.663 732.19,468.497 734.5,468C 734.043,467.586 733.709,467.086 733.5,466.5C 734.736,465.643 736.069,464.977 737.5,464.5C 738.386,463.675 738.719,462.675 738.5,461.5C 740.099,461.768 741.432,461.434 742.5,460.5 Z"/></g>
<g><path style="opacity:1" fill="#b2b411" d="M 734.5,459.5 C 731.96,462.607 728.627,464.44 724.5,465C 725.833,465.667 727.167,466.333 728.5,467C 724.312,467.176 720.312,467.676 716.5,468.5C 701.547,469.974 689.547,476.64 680.5,488.5C 677.882,488.221 675.382,487.554 673,486.5C 672.617,487.056 672.117,487.389 671.5,487.5C 676.94,478.059 684.607,471.059 694.5,466.5C 697.956,468.261 700.789,467.594 703,464.5C 708.465,465.512 713.299,464.179 717.5,460.5C 723.203,460.625 728.87,460.292 734.5,459.5 Z"/></g>
<g><path style="opacity:1" fill="#664a69" d="M 770.5,457.5 C 775.74,458.449 781.073,458.782 786.5,458.5C 786.389,459.117 786.056,459.617 785.5,460C 790.523,460.893 795.523,461.893 800.5,463C 807.618,464.762 814.285,467.595 820.5,471.5C 820.217,472.289 819.717,472.956 819,473.5C 815.103,472.969 811.603,471.469 808.5,469C 799.433,467.457 790.767,464.791 782.5,461C 778.106,460.697 773.773,460.03 769.5,459C 770.056,458.617 770.389,458.117 770.5,457.5 Z"/></g>
<g><path style="opacity:1" fill="#545270" d="M 770.5,457.5 C 770.389,458.117 770.056,458.617 769.5,459C 773.773,460.03 778.106,460.697 782.5,461C 790.767,464.791 799.433,467.457 808.5,469C 811.603,471.469 815.103,472.969 819,473.5C 819.717,472.956 820.217,472.289 820.5,471.5C 821.167,471.5 821.5,471.167 821.5,470.5C 825.105,472.472 828.105,475.139 830.5,478.5C 829.844,479.278 829.011,479.944 828,480.5C 825.946,479.921 823.946,479.588 822,479.5C 821.837,481.387 822.671,482.887 824.5,484C 823.944,484.383 823.611,484.883 823.5,485.5C 808.772,471.426 791.272,466.093 771,469.5C 767.597,467.881 764.43,465.881 761.5,463.5C 764.004,460.748 767.004,458.748 770.5,457.5 Z"/></g>
<g><path style="opacity:1" fill="#e2e533" d="M 692.5,465.5 C 693.492,465.328 694.158,465.662 694.5,466.5C 684.607,471.059 676.94,478.059 671.5,487.5C 670.609,488.11 669.609,488.443 668.5,488.5C 673.889,478.111 681.889,470.445 692.5,465.5 Z"/></g>
<g><path style="opacity:1" fill="#3a5b70" d="M 767.5,478.5 C 767.662,480.527 767.495,482.527 767,484.5C 766.667,483.833 766.333,483.167 766,482.5C 765.167,484 764,485.167 762.5,486C 763.684,487.145 763.684,488.312 762.5,489.5C 758.21,483.535 755.877,476.868 755.5,469.5C 760.08,469.878 763.913,471.878 767,475.5C 767.483,476.448 767.649,477.448 767.5,478.5 Z"/></g>
<g><path style="opacity:1" fill="#42845f" d="M 742.5,491.5 C 742.631,490.761 742.464,490.094 742,489.5C 741.148,490.571 740.315,491.571 739.5,492.5C 738.244,492.539 737.244,492.039 736.5,491C 736.833,490 737.167,489 737.5,488C 736.956,487.283 736.289,486.783 735.5,486.5C 735.672,485.508 735.338,484.842 734.5,484.5C 736.559,476.441 741.559,471.441 749.5,469.5C 750.571,478 748.238,485.334 742.5,491.5 Z"/></g>
<g><path style="opacity:1" fill="#9bc418" d="M 680.5,488.5 C 679.396,490.389 678.063,492.055 676.5,493.5C 675.735,493.077 674.902,492.743 674,492.5C 671.044,494.061 667.877,495.061 664.5,495.5C 665.079,492.669 666.412,490.336 668.5,488.5C 669.609,488.443 670.609,488.11 671.5,487.5C 672.117,487.389 672.617,487.056 673,486.5C 675.382,487.554 677.882,488.221 680.5,488.5 Z"/></g>
<g><path style="opacity:1" fill="#38d240" d="M 676.5,493.5 C 676.107,495.284 675.441,496.95 674.5,498.5C 671.737,498.743 668.737,499.243 665.5,500C 663.915,503.894 662.915,504.061 662.5,500.5C 662.796,498.597 663.463,496.93 664.5,495.5C 667.877,495.061 671.044,494.061 674,492.5C 674.902,492.743 675.735,493.077 676.5,493.5 Z"/></g>
<g><path style="opacity:1" fill="#3cbc7e" d="M 734.5,484.5 C 735.338,484.842 735.672,485.508 735.5,486.5C 730.411,495.587 723.078,502.254 713.5,506.5C 712.537,506.03 712.537,505.363 713.5,504.5C 722.449,499.885 729.449,493.218 734.5,484.5 Z"/></g>
<g><path style="opacity:1" fill="#209557" d="M 735.5,486.5 C 736.289,486.783 736.956,487.283 737.5,488C 737.167,489 736.833,490 736.5,491C 737.244,492.039 738.244,492.539 739.5,492.5C 732.565,504.262 722.398,511.595 709,514.5C 707.833,514.167 706.667,513.833 705.5,513.5C 707.576,513.242 709.909,512.742 712.5,512C 711.167,511.667 709.833,511.333 708.5,511C 711.428,509.476 711.761,507.976 709.5,506.5C 710.514,505.326 711.847,504.66 713.5,504.5C 712.537,505.363 712.537,506.03 713.5,506.5C 723.078,502.254 730.411,495.587 735.5,486.5 Z"/></g>
<g><path style="opacity:1" fill="#146280" d="M 830.5,478.5 C 839.09,488.682 844.757,500.348 847.5,513.5C 846.205,514.488 844.872,515.488 843.5,516.5C 843.631,515.624 843.298,514.957 842.5,514.5C 833.745,518.195 824.911,519.195 816,517.5C 815.309,515.109 814.309,515.109 813,517.5C 812.667,516.833 812.333,516.167 812,515.5C 810.644,516.38 809.144,516.714 807.5,516.5C 807.5,515.5 807.5,514.5 807.5,513.5C 812.136,512.851 816.802,512.351 821.5,512C 817.975,511.821 814.641,511.321 811.5,510.5C 819.269,510.805 826.935,510.138 834.5,508.5C 834.477,506.073 833.977,503.74 833,501.5C 830.074,495.974 826.907,490.641 823.5,485.5C 823.611,484.883 823.944,484.383 824.5,484C 822.671,482.887 821.837,481.387 822,479.5C 823.946,479.588 825.946,479.921 828,480.5C 829.011,479.944 829.844,479.278 830.5,478.5 Z"/></g>
<g><path style="opacity:1" fill="#23aa60" d="M 742.5,491.5 C 731.596,508.901 715.929,518.734 695.5,521C 684.098,522.603 673.098,521.27 662.5,517C 660.089,516.144 658.756,514.477 658.5,512C 659.367,507.894 660.7,504.061 662.5,500.5C 662.915,504.061 663.915,503.894 665.5,500C 668.737,499.243 671.737,498.743 674.5,498.5C 672.733,501.897 671.733,505.564 671.5,509.5C 684.412,511.376 697.078,510.376 709.5,506.5C 711.761,507.976 711.428,509.476 708.5,511C 709.833,511.333 711.167,511.667 712.5,512C 709.909,512.742 707.576,513.242 705.5,513.5C 706.667,513.833 707.833,514.167 709,514.5C 722.398,511.595 732.565,504.262 739.5,492.5C 740.315,491.571 741.148,490.571 742,489.5C 742.464,490.094 742.631,490.761 742.5,491.5 Z"/></g>
<g><path style="opacity:1" fill="#167082" d="M 767.5,478.5 C 776.468,496.986 791.135,507.652 811.5,510.5C 814.641,511.321 817.975,511.821 821.5,512C 816.802,512.351 812.136,512.851 807.5,513.5C 807.5,514.5 807.5,515.5 807.5,516.5C 809.144,516.714 810.644,516.38 812,515.5C 812.333,516.167 812.667,516.833 813,517.5C 814.309,515.109 815.309,515.109 816,517.5C 824.911,519.195 833.745,518.195 842.5,514.5C 843.298,514.957 843.631,515.624 843.5,516.5C 814.187,527.474 789.02,521.474 768,498.5C 766.156,495.472 764.322,492.472 762.5,489.5C 763.684,488.312 763.684,487.145 762.5,486C 764,485.167 765.167,484 766,482.5C 766.333,483.167 766.667,483.833 767,484.5C 767.495,482.527 767.662,480.527 767.5,478.5 Z"/></g>
<g><path style="opacity:1" fill="#f4f5f4" d="M 184.5,569.5 C 194.083,569.182 203.583,569.515 213,570.5C 227.506,610.843 242.006,651.177 256.5,691.5C 247.853,692.665 239.186,692.832 230.5,692C 227.299,683.397 224.299,674.731 221.5,666C 206.167,665.333 190.833,665.333 175.5,666C 172.119,674.353 169.119,682.853 166.5,691.5C 157.833,692.833 149.167,692.833 140.5,691.5C 155.372,650.881 170.039,610.215 184.5,569.5 Z"/></g>
<g><path style="opacity:1" fill="#f8f8f8" d="M 256.5,569.5 C 289.833,569.5 323.167,569.5 356.5,569.5C 356.5,576.833 356.5,584.167 356.5,591.5C 344.167,591.5 331.833,591.5 319.5,591.5C 319.5,625.167 319.5,658.833 319.5,692.5C 311.167,692.5 302.833,692.5 294.5,692.5C 294.5,658.833 294.5,625.167 294.5,591.5C 281.833,591.5 269.167,591.5 256.5,591.5C 256.5,584.167 256.5,576.833 256.5,569.5 Z"/></g>
<g><path style="opacity:1" fill="#f4f5f5" d="M 384.5,569.5 C 411.833,569.5 439.167,569.5 466.5,569.5C 466.5,576.833 466.5,584.167 466.5,591.5C 447.5,591.5 428.5,591.5 409.5,591.5C 409.5,600.5 409.5,609.5 409.5,618.5C 426.503,618.333 443.503,618.5 460.5,619C 461.481,626.413 461.814,633.913 461.5,641.5C 444.167,641.5 426.833,641.5 409.5,641.5C 409.5,651.167 409.5,660.833 409.5,670.5C 429.167,670.5 448.833,670.5 468.5,670.5C 468.5,677.833 468.5,685.167 468.5,692.5C 440.5,692.5 412.5,692.5 384.5,692.5C 384.5,651.5 384.5,610.5 384.5,569.5 Z"/></g>
<g><path style="opacity:1" fill="#fcfcfc" d="M 502.5,569.5 C 510.833,569.5 519.167,569.5 527.5,569.5C 527.333,602.835 527.5,636.168 528,669.5C 546.09,670.492 564.257,670.826 582.5,670.5C 582.5,677.833 582.5,685.167 582.5,692.5C 555.833,692.5 529.167,692.5 502.5,692.5C 502.5,651.5 502.5,610.5 502.5,569.5 Z"/></g>
<g><path style="opacity:1" fill="#efefef" d="M 611.5,569.5 C 619.833,569.5 628.167,569.5 636.5,569.5C 636.5,610.5 636.5,651.5 636.5,692.5C 628.167,692.5 619.833,692.5 611.5,692.5C 611.5,651.5 611.5,610.5 611.5,569.5 Z"/></g>
<g><path style="opacity:1" fill="#f6f6f6" d="M 674.5,569.5 C 702.167,569.5 729.833,569.5 757.5,569.5C 757.5,576.833 757.5,584.167 757.5,591.5C 738.167,591.5 718.833,591.5 699.5,591.5C 699.5,600.5 699.5,609.5 699.5,618.5C 716.833,618.5 734.167,618.5 751.5,618.5C 751.5,626.167 751.5,633.833 751.5,641.5C 734.167,641.5 716.833,641.5 699.5,641.5C 699.5,651.167 699.5,660.833 699.5,670.5C 719.167,670.5 738.833,670.5 758.5,670.5C 758.5,677.833 758.5,685.167 758.5,692.5C 730.5,692.5 702.5,692.5 674.5,692.5C 674.5,651.5 674.5,610.5 674.5,569.5 Z"/></g>
<g><path style="opacity:1" fill="#eaebeb" d="M 185.5,571.5 C 194.167,571.5 202.833,571.5 211.5,571.5C 224.581,611.152 238.581,650.486 253.5,689.5C 246.445,689.558 239.112,689.558 231.5,689.5C 229.207,680.872 226.207,672.372 222.5,664C 206.5,663.333 190.5,663.333 174.5,664C 173.667,664.833 172.833,665.667 172,666.5C 169.797,674.276 167.297,681.943 164.5,689.5C 157.524,690.664 150.524,690.831 143.5,690C 157.127,652.123 170.96,614.289 185,576.5C 185.494,574.866 185.66,573.199 185.5,571.5 Z"/></g>
<g><path style="opacity:1" fill="#eaeaea" d="M 259.5,571.5 C 290.833,571.5 322.167,571.5 353.5,571.5C 353.5,577.5 353.5,583.5 353.5,589.5C 342.162,589.333 330.828,589.5 319.5,590C 319,590.5 318.5,591 318,591.5C 317.5,624.498 317.333,657.498 317.5,690.5C 310.5,690.5 303.5,690.5 296.5,690.5C 296.667,657.498 296.5,624.498 296,591.5C 295.5,591 295,590.5 294.5,590C 282.838,589.5 271.171,589.333 259.5,589.5C 259.5,583.5 259.5,577.5 259.5,571.5 Z"/></g>
<g><path style="opacity:1" fill="#eaebea" d="M 386.5,571.5 C 412.5,571.5 438.5,571.5 464.5,571.5C 464.5,577.5 464.5,583.5 464.5,589.5C 446.164,589.333 427.83,589.5 409.5,590C 409,590.5 408.5,591 408,591.5C 407.182,601.078 407.349,610.578 408.5,620C 425.072,621.471 441.738,621.971 458.5,621.5C 458.5,627.5 458.5,633.5 458.5,639.5C 441.83,639.333 425.163,639.5 408.5,640C 407.181,650.439 407.181,660.939 408.5,671.5C 427.453,672.487 446.453,672.821 465.5,672.5C 465.5,678.5 465.5,684.5 465.5,690.5C 439.167,690.5 412.833,690.5 386.5,690.5C 386.5,650.833 386.5,611.167 386.5,571.5 Z"/></g>
<g><path style="opacity:1" fill="#eaebea" d="M 504.5,571.5 C 511.5,571.5 518.5,571.5 525.5,571.5C 525.333,604.502 525.5,637.502 526,670.5C 526.5,671 527,671.5 527.5,672C 545.164,672.5 562.83,672.667 580.5,672.5C 580.5,678.5 580.5,684.5 580.5,690.5C 555.167,690.5 529.833,690.5 504.5,690.5C 504.5,650.833 504.5,611.167 504.5,571.5 Z"/></g>
<g><path style="opacity:1" fill="#eaebea" d="M 613.5,571.5 C 620.167,571.5 626.833,571.5 633.5,571.5C 633.5,611.167 633.5,650.833 633.5,690.5C 626.833,690.5 620.167,690.5 613.5,690.5C 613.5,650.833 613.5,611.167 613.5,571.5 Z"/></g>
<g><path style="opacity:1" fill="#eaebeb" d="M 676.5,571.5 C 702.833,571.5 729.167,571.5 755.5,571.5C 755.5,577.5 755.5,583.5 755.5,589.5C 736.83,589.333 718.164,589.5 699.5,590C 698.667,590.833 697.833,591.667 697,592.5C 696.333,601.167 696.333,609.833 697,618.5C 697.833,619.333 698.667,620.167 699.5,621C 716.163,621.5 732.83,621.667 749.5,621.5C 749.5,627.5 749.5,633.5 749.5,639.5C 732.497,639.333 715.497,639.5 698.5,640C 697.874,640.75 697.374,641.584 697,642.5C 696.333,652.167 696.333,661.833 697,671.5C 716.424,672.493 735.924,672.826 755.5,672.5C 755.5,678.5 755.5,684.5 755.5,690.5C 729.167,690.5 702.833,690.5 676.5,690.5C 676.5,650.833 676.5,611.167 676.5,571.5 Z"/></g>
<g><path style="opacity:1" fill="#0a0b0a" d="M 197.5,597.5 C 198.497,597.47 199.164,597.97 199.5,599C 204.476,613.426 209.142,627.926 213.5,642.5C 203.5,642.5 193.5,642.5 183.5,642.5C 188.172,627.485 192.839,612.485 197.5,597.5 Z"/></g>
<g><path style="opacity:1" fill="#f1f1f1" d="M 789.5,569.5 C 808.836,569.333 828.17,569.5 847.5,570C 874.928,573.997 887.095,589.831 884,617.5C 880.784,630.885 872.951,640.551 860.5,646.5C 869.773,661.769 879.439,676.769 889.5,691.5C 879.833,692.833 870.167,692.833 860.5,691.5C 852.418,677.667 844.084,664 835.5,650.5C 828.866,649.503 822.2,649.17 815.5,649.5C 815.5,663.833 815.5,678.167 815.5,692.5C 806.833,692.5 798.167,692.5 789.5,692.5C 789.5,651.5 789.5,610.5 789.5,569.5 Z"/></g>
<g><path style="opacity:1" fill="#eaebeb" d="M 792.5,571.5 C 812.862,571.131 833.195,571.631 853.5,573C 877.521,580.523 886.354,596.689 880,621.5C 877.044,631.933 870.544,639.099 860.5,643C 859.257,644.154 858.257,645.488 857.5,647C 867.085,660.683 875.752,674.849 883.5,689.5C 876.415,689.41 869.415,689.577 862.5,690C 854,676.167 845.5,662.333 837,648.5C 829.58,647.353 822.08,647.187 814.5,648C 814,648.5 813.5,649 813,649.5C 812.5,663.163 812.333,676.829 812.5,690.5C 805.833,690.5 799.167,690.5 792.5,690.5C 792.5,650.833 792.5,611.167 792.5,571.5 Z"/></g>
<g><path style="opacity:1" fill="#0b0c0b" d="M 815.5,591.5 C 825.172,591.334 834.839,591.5 844.5,592C 857.203,596.911 861.036,605.744 856,618.5C 853.795,621.04 851.295,623.207 848.5,625C 837.555,626.379 826.555,626.879 815.5,626.5C 815.5,614.833 815.5,603.167 815.5,591.5 Z"/></g>
</svg>
